<svg width="429.7" height="339.9" enable-background="new -74.447 -42.393 2692.97 682.775" version="1.1" viewBox="0 0 429.7 339.9" xml:space="preserve" xmlns="http://www.w3.org/2000/svg">
<path d="m429.6 181.2 0.0606-37.25c-0.4909 2.834-0.9632 5.672-1.475 8.5-0.505-10.03-0.758-20.1-2.041-30.06-0.525 9.355-0.7679 18.75-1.879 28.08-1.101-7.335-1.738-14.72-2.354-22.11-0.313 6.739-0.625 13.47-0.959 20.22-1.253-3.89-2.305-7.85-3.184-11.83-0.475 3.415-1.302 6.698-1.717 10.14-1.677-8.416-1.637-17.07-2.223-25.6-0.293 10.14-0.5968 20.3-1.799 30.39-2.132-9.669-1.586-19.67-2.293-29.48-1.384 7.911-1.193 15.97-1.436 23.97-1.101-2.607-2.131-5.203-3.242-7.779-0.343 2.01-1.031 6.02-1.375 8.031-0.707-8.042-1.283-16.09-1.889-24.13-0.495 8.375-0.9182 16.76-1.615 25.12-0.94-7.365-1.788-14.73-2.566-22.11-1.334 9.305-2.062 18.68-2.961 28.03-0.333-9.992-0.6553-19.98-1.695-29.92-0.778 7.092-0.6485 14.46-3.104 21.25-0.404-5.769-0.7576-11.54-1.061-17.31-0.667 6.031-1.294 12.08-2.102 18.1-1.031-6.991-1.565-14.04-1.969-21.1-0.798 5.041-1.597 10.08-2.506 15.12-0.748-5.021-1.232-10.09-1.777-15.12-0.303 6.355-0.5969 12.71-0.9199 19.07-1.546-9.335-2.655-18.74-2.988-28.2-0.495 7.304-0.8496 14.62-1.557 21.91-0.869-3.576-1.637-7.111-2.516-10.66-0.657 3.253-1.445 6.465-2.031 9.738-0.677-5.607-1.323-11.23-2.01-16.83-0.293 2.97-0.5661 5.952-0.8281 8.932-1.212-3.334-2.466-6.709-3.588-10.05-2.819 6.961-1.889 14.68-2.465 21.99-0.697-3.607-1.365-7.212-2.102-10.81-0.384 4.284-0.7371 8.577-1.08 12.88-1.384-11.37-1.526-22.81-1.889-34.23-0.616 8.002-1.081 16.03-1.98 24.02-0.232-2.95-0.6764-8.849-0.8984-11.8-0.525 2.213-1.021 4.445-1.486 6.678-0.293-7.325-0.5845-14.64-0.9785-21.94-1.182 10.7-1.334 21.48-1.707 32.24-0.556-6.688-1.02-13.37-1.688-20.03-0.919 3.263-1.707 6.577-2.607 9.85-1.071-6.112-1.355-12.34-1.729-18.52-0.364 0-1.089 0.0115-1.443 0.0215-0.232 7.203-0.475 14.42-0.748 21.63-0.445-10.39-0.5865-20.8-1.98-31.12-0.859 13.07-1.456 26.15-2.072 39.23-1.818-16.76-1.262-33.64-1.959-50.46-0.445 10.83-0.455 21.72-2 32.47-2.465-14.39-1.536-29.12-3.193-43.59-0.455 17.83-0.1114 35.67-0.8594 53.5-0.475-14.47-0.8978-28.93-1.969-43.37-0.697 8.406-1.244 16.86-2.971 25.14-0.485-6.365-0.8482-12.73-1.242-19.09-0.323 9.406-0.5569 18.8-0.9609 28.21-0.434-8.396-0.6362-16.8-1.031-25.19-0.323 11.09-0.504 22.19-0.918 33.28-0.748-25.06-1.759-50.12-1.486-75.21l-1.051-0.0293c-0.081 22.04 0.5458 44.11-0.5762 66.13-1.202-9.355-1.484-18.79-1.959-28.2-0.424 5.728-0.8291 11.46-1.244 17.18-2.98-10.52-2.314-21.54-2.768-32.34-0.253 8.729-0.7158 17.45-0.9688 26.19-0.424-5.698-0.8289-11.4-1.213-17.08-0.283 14.11-0.3444 28.23-0.8594 42.34-0.445-10.76-0.5659-21.55-1.879-32.25-0.586 9.729-0.7774 19.48-1.191 29.22-0.364-15.87-0.3648-31.8-2.84-47.52-3.89 12.08-2.535 24.93-3.262 37.41-0.384-10.35-0.596-20.72-1.334-31.06-0.434 1.334-0.8594 2.668-1.273 4.012-0.657-0.495-1.293-0.9894-1.93-1.484-0.101 7.163-0.2018 14.33-0.3438 21.49-0.636-6.385-1.172-12.79-1.92-19.16-0.424 7.052-0.8196 14.09-1.184 21.14-0.546-6.082-1.05-12.17-1.615-18.25-0.879 8.416-1.061 16.87-1.566 25.31-0.323-6.365-0.5761-12.73-0.8691-19.08-1.354 12.79-0.4135 26.54-6.729 38.21-1.111-4.072-1.99-8.185-3.172-12.23-0.445 7.133-0.8887 14.26-1.303 21.4-0.485-9.042-0.768-18.1-2.041-27.08-0.242 4.971-0.4545 9.921-0.6465 14.91-0.95-1.152-1.89-2.303-2.82-3.445-0.182 5.88-0.3739 11.75-0.5859 17.64-0.384-10.07-0.5344-20.17-0.9394-30.23-0.364 6.365-0.6169 12.74-0.9199 19.12-0.344-2.96-0.9599-6.061-1.172-8.98-0.323 3.991-0.625 7.991-0.918 11.99-2.374-9.204-2.758-18.72-3.152-28.17-0.636 9.396-1.161 18.81-1.777 28.22-0.445-2.677-0.8599-5.344-1.254-8.012-0.202 2.99-0.6861 5.85-0.7871 8.891-0.727-7.476-1.062-14.98-2.082-22.42-0.808 2.374-1.596 4.76-2.354 7.145-1.96-15.28-2.001-30.71-3.678-46.01-0.424 5.647-0.838 11.3-1.252 16.97-1.394-14.61-1.385-29.29-1.324-43.94l-0.8984 0.01c0.03 13.66 0.1104 27.38-1.516 40.97-0.636-8.416-0.8265-16.87-1.271-25.29-0.273 11.41-0.3655 22.83-0.7695 34.24-1.839-19.8-1.192-39.7-2.324-59.54-1.647 12.71-1.293 25.57-1.879 38.36-0.414-15.79-0.3314-31.6-0.8164-47.39-1.041 14.75-1.677 29.53-2.162 44.31-1.02-23.87 0.1213-47.77-0.9297-71.63-0.434 6.031-0.8091 12.07-1.203 18.12-0.344-8.062-0.5757-16.12-0.9297-24.18-1.728 24.87-1.051 49.82-1.99 74.72-0.818-15.79-1.423-31.58-1.949-47.37-0.374 10.4-0.7185 20.8-1.062 31.2-0.394-9.072-0.6245-18.15-0.9785-27.21-0.505 8.749-0.8501 17.52-1.83 26.24-1.475-5.93-1.919-12.05-2.607-18.1-0.313 23.21 0.2324 46.41-0.4336 69.61-0.495-4.011-0.9603-8.021-1.404-12.02-0.525 11.05-1.05 22.11-1.686 33.16-0.677-2.869-1.323-5.738-1.98-8.598-1.344 4.152-2.809 8.253-4.203 12.38-0.687 3.354-1.466 6.669-2.102 10.04-0.677-2.162-1.354-4.325-2.031-6.477-0.697 6.254-1.322 12.53-2.07 18.78-0.303-7.335-0.5757-14.67-0.8887-21.99-0.839 6.981-1.456 13.98-2.143 20.98-0.333-5.627-0.6152-11.24-0.9082-16.86-0.828 4.617-1.586 9.252-2.283 13.9-0.182-7.011-0.3649-14.02-0.5469-21.02-0.727 5.001-1.353 10.01-2.121 15-0.404-4.657-0.749-9.335-1.082-13.98-0.626 4.678-1.232 9.365-1.898 14.04-0.344-4.041-1.042-12.11-1.385-16.15-1.041 8.719-1.394 17.49-2 26.25-0.202-13.15-0.2521-26.32-1.08-39.45-0.909 8.062-1.334 16.17-1.859 24.28-0.445-9.416-0.6362-18.85-1.617-28.23-0.455 8.729-0.95 17.47-1.293 26.21-0.364-12.15-0.5553-24.33-1.363-36.46-1.859 12.4-1.091 25.01-1.707 37.5-0.455-10.45-0.6475-20.91-1.98-31.29-0.465 8.406-0.7668 16.81-1.09 25.22-0.626-11.43-1.192-22.84-1.99-34.26-0.364 6.011-0.6785 12.02-1.021 18.04-0.808-5.941-1.474-11.91-2.141-17.87-0.404 4.657-0.8076 9.296-1.182 13.96-0.859-5.334-1.335-10.73-1.92-16.07-0.283 8.375-0.4851 16.75-0.8691 25.12-1.323-11.39-1.515-22.86-2.041-34.3-0.283 11.47-0.4553 22.93-1.152 34.39-1.566-13.26-1.252-26.66-1.252-39.98l-0.8398 0.01c-0.101 10.28-0.3136 20.57-0.8086 30.85-1.101-7.203-1.262-14.51-1.727-21.75l-0.5254 0.01c-0.152 8.567-0.3222 17.15-0.6152 25.73-0.97-7.709-1.668-15.44-2.123-23.19-0.364 7.405-0.7171 14.81-1.162 22.21-1.404-12.07-1.334-24.26-1.889-36.38-0.333 9.749-0.5454 19.51-0.9394 29.26-0.727-9.709-1.304-19.44-1.85-29.16-0.525 7.375-1.253 14.75-2.031 22.12-0.394-2.99-0.899-6.091-1.293-9.021-0.515 8.012-0.878 16.04-1.666 24.04-0.465-7.032-0.9293-14.06-1.404-21.09-0.192 15.15 0.2115 30.37-1.688 45.44-0.849-16.49-0.4559-33.02-1.254-49.5-0.768 19.85 0.4762 39.78-1.676 59.58-1.404-22.2-0.081-44.44-1.334-66.65-0.566 20.86-0.3448 41.77-2.133 62.59-0.788-23.55 0.4343-47.13-0.9297-70.66-0.768 21.88 0.354 43.85-2.041 65.66-0.505-17.85-0.1207-35.71-0.8887-53.54-1.243 16.8-1.403 33.65-2.111 50.49-0.748-21.21 0.1201-42.43-0.9609-63.62-0.788 23.22-1.011 46.45-2.102 69.67-0.647-19.86 0.0718-39.74-0.9492-59.59-1.303 12.75-1.537 25.57-2.123 38.36-0.445-18.16-0.0796-36.35-0.8066-54.51-1.667 22-1.607 44.07-1.486 66.12l-1.09 0.0312c-0.152-21.72 0.9797-43.51-1.152-65.16-0.535 7.052-1.05 14.1-1.545 21.17-0.263-11.8-0.344-23.61-1.041-35.39-3.374 26.12 0.2519 52.64-1.83 78.86-0.687-21.21-1.05-42.41-2.07-63.61-0.616 19.17-0.0917 38.37-0.9297 57.55-0.667-16.8 0.051-33.7-2.041-50.42-0.495 15.45-0.3947 30.9-0.9707 46.36-2.92-27.51-0.5146-55.21-2.061-82.78-1.121 25.91 0.2428 51.86-0.9492 77.77-2.768-27.2-0.6273-54.56-2.072-81.81-1.374 34.33 0.5674 68.7-1.1 103-0.556-43.78-0.9598-87.55-2.01-131.3-1.819 38.02 1.829 76.23-1.879 114.1-1.101-21.53 0.0802-43.1-1.133-64.62-0.606 17.81-0.2328 35.64-0.7988 53.46-2.657-16.69-1.191-33.63-2.191-50.42-1.02 22.52 0.6155 45.15-1.98 67.6-1.465-42.39 0.6371-84.83-1.131-127.2-1.041 26.72 0.3632 53.48-0.7988 80.21-1 21.39-0.0911 42.83-1.121 64.22-1.394-42.74 0.5564-85.53-1.02-128.3-1.03 39.72-1.172 79.46-2.061 119.2-1.182-32.99 0.4143-66-0.8887-98.98-1.738 26.23-1.163 52.51-2.113 78.76-0.586-17.5-0.2316-35.03-1.061-52.52-2.031 17.74-1.344 35.62-1.404 53.44-0.596-1.536-1.191-3.069-1.777-4.605-0.808 8.274-1.323 16.58-1.758 24.88-3.758-8.173-3.709-17.29-4.072-26.1-0.616 5.304-1.142 10.63-1.92 15.91-0.434-3.294-0.9497-6.666-1.303-9.939-0.737 7.709-1.344 15.43-1.99 23.14-0.849-7.304-1.343-14.66-1.666-22-0.152 1.253-0.4545 3.749-0.6055 5.002-0.667-0.445-1.324-0.889-1.971-1.334-0.687 5.789-1.545 11.56-2.525 17.31-1.162-13.47-2.901-26.88-4.355-40.31-1.182 11.44-1.364 23.15-4.748 34.22-0.859-5.365-1.606-10.74-2.455-16.09-1.283 7.001-2.101 14.06-3.051 21.12-1.061-11.37-1.233-22.78-1.627-34.18-0.445 3.334-0.95 6.617-1.334 9.982-0.263-13.74 0.1315-27.56-1.939-41.18-0.323 11.35-0.3532 22.7-0.4942 34.07-0.808-2.97-1.577-5.943-2.385-8.893-0.283 5.688-0.5564 11.37-0.8184 17.05-0.313-1.778-0.9282-5.324-1.242-7.102-0.788 2.324-1.537 4.667-2.234 7.021-0.202-6.678-0.474-13.36-0.666-20.02-0.384 7.032-0.7686 14.06-1.143 21.1-0.323-9.072-0.5854-18.13-0.9394-27.2-0.424 4.678-0.7883 9.345-1.152 14.03-0.263-7.355-0.475-14.7-0.707-22.05-0.717 7.648-1.253 15.32-1.98 22.97-0.818-6.284-1.595-12.57-2.484-18.83-0.232 10.02-0.3938 20.04-0.7578 30.08-0.384-10.77-0.5754-21.54-0.8984-32.3-0.384 3.021-0.9099 5.919-1.213 8.98-0.586-6.365-1.142-12.74-1.859-19.09-0.748 10.46-1.141 20.97-3.363 31.25-2.445-8.84-2.313-18.05-2.656-27.12-0.343 2.738-1.021 8.213-1.365 10.95-0.667-24.21 0.4651-48.44-0.8789-72.64-0.919 23.55 0.2114 47.13-0.8086 70.68-0.505-4.688-0.928-9.388-1.373-14.05-0.303 16.3-0.2016 32.6-0.1406 48.91l-1.102 0.01c-0.071-22.04 0.3845-44.09-0.3125-66.11-0.808 12.43-1.495 24.86-2.303 37.3-0.879-15.13-1.384-30.28-2.051-45.41-0.525 17.67-0.364 35.35-0.293 53.03l-0.9805-0.0508c-0.04-11.94-0.1716-23.88-0.7266-35.81-0.616 27.59-0.1115 55.21-1.729 82.78-0.333-1.738-1.02-5.194-1.354-6.922-0.9297 6.525-1.8 13.05-2.68 19.59v20.01c0.0465 0.232 0.0734 0.4674 0.1211 0.6992 0.818-4.961 1.304-9.991 1.941-14.96 1.041 10.3 2.334 20.59 3.768 30.85 1.091 15.73 0.5254 31.51 0.5254 47.27l0.9785-0.0391c0.04-11.95 0.1627-23.88 0.6777-35.82 0.414 11.43 0.5466 22.87 1.102 34.3 0.283-14.13 0.04-28.3 1.627-42.37 1.061 14.75 1.687 29.51 2 44.29 0.727-7.315 1.375-14.63 2.395-21.9 0.445 14.09 0.222 28.25 2 42.27 0.505-20.88 1.009-41.74 1.959-62.61 0.485 15.45 0.4039 30.9 0.8789 46.36 0.303-8.729 0.7776-17.43 1.061-26.14 0.242 4.021 0.7372 12.06 0.9902 16.08 0.404-2.657 0.8089-5.304 1.213-7.941 0.495 6.85 1.019 13.69 1.686 20.55 1.253-6.456 1.658-13.04 2.395-19.55 0.374 3.324 0.6165 6.566 0.9805 9.93 0.283-6.021 0.5141-12.04 0.7871-18.04 0.414 7.011 0.8392 14.04 1.283 21.07 0.313-11.76 0.3646-23.53 0.8086-35.27 0.202 3.142 0.2926 6.222 0.4746 9.395 0.677-0.586 1.354-1.172 2.031-1.748 0.111 9.881 0.1918 19.79 1.344 29.62 0.566-11.12 0.8589-22.27 1.586-33.38 1.222 8.719 1.254 17.54 1.84 26.32 0.293-15.14 0.6965-30.29 1.939-45.39 0.839 4.961 1.454 9.931 2.191 14.92 0.051-1.95 0.1424-5.828 0.1934-7.768 0.364 0.808 1.091 2.424 1.455 3.232 1.344-4.142 2.676-8.296 4.01-12.44 2.334 13.32 1.597 26.93 2.203 40.39 0.919-5.991 1.504-12.04 2.191-18.05 0.283 6.355 0.5254 12.71 0.8594 19.07 1.566-16.49 1.201-33.14 3.818-49.53 1.495 7.345 2.303 14.82 3.344 22.25 2.01-7.314 3.315-14.81 4.85-22.23 0.556 10.77 0.9409 21.57 1.961 32.32 2.021-14.75 3.92-29.51 4.334-44.4 1.404 8.527 1.819 17.18 2.516 25.78 0.606-0.051 1.807-0.1424 2.414-0.1934 0.657-4.627 1.303-9.253 2.273-13.82 3.556 12.77 1.657 26.14 3.475 39.15 0.919 7.557 1.87 15.1 2.426 22.71 0.232-12.08 0.3927-24.17 0.9277-36.24 0.485 17.15 0.637 34.32 2.041 51.43 0.758-20.52-0.2407-41.06 1.072-61.56 2.01 13.01 1.211 26.25 1.939 39.36 0.96-7.345 1.474-14.73 2.201-22.09 0.384 20.5-0.2212 41.02 0.8398 61.52 0.94-23.21-0.2316-46.44 0.8184-69.64 1.596 26.22 1.242 52.5 2.191 78.73 1.172-34.65-0.4039-69.33 0.8281-104 2.799 36.29 0.5852 72.7 2.242 109 1.162-37.02-0.5459-74.08 0.8691-111.1 1 26.25 1.213 52.52 2.102 78.76 0.99-20.51-0.7486-41.15 1.818-61.56 1.697 34.3-0.4946 68.67 1.273 103 1.536-29.27-1.484-58.68 1.729-87.86 1.324 24.38 0.3835 48.81 0.6055 73.21l1.102 0.01c-0.515-33.52 0.4847-67.01 1.596-100.5 0.899 39.56 0.1208 79.14 0.3438 118.7l0.9902-0.0293c0.546-33.16 0.9193-66.32 1.697-99.47 1.081 28.26-0.3841 56.56 0.8789 84.81 3.839-41.61-0.2217-83.52 2.152-125.2 1.223 40.06-0.5865 80.15 0.9394 120.2 2.839-35.62 0.4045-71.39 2.021-107 1.344 34.32-0.5667 68.68 1.07 103 1.738-9.83 1.405-19.85 1.506-29.77-0.141-21.89-0.1616-43.79-0.1406-65.67l1.029 0.0293c-0.101 14.62-0.4128 29.31 1.365 43.86 1.051-19.16 0.3337-38.36 1.264-57.52 1.364 31.34-0.818 62.74 1.293 94.06 2.617-27.58 0.0698-55.3 1.676-82.93 0.586 16.83 0.4443 33.7 2.152 50.47 0.465-17.5 0.1617-35.01 0.8887-52.49 0.657 16.8 1.233 33.62 2.051 50.42 0.667-18.83 0.2134-37.68 0.9004-56.53 0.798 8.385 1.422 16.78 2.15 25.17 0.303-8.699 0.5674-17.41 0.9414-26.11 0.889 12.76 1.526 25.52 2.162 38.3 0.333-9.749 0.4739-19.5 0.8379-29.23 0.556 11.38 1.1 22.77 2.111 34.13 0.303-5.648 0.5876-11.28 0.8906-16.9 0.394 4.041 1.182 12.11 1.586 16.15 1.132-11.76 1.109-23.6 1.564-35.39 0.354 10.43 0.5871 20.88 1.789 31.26 0.435-6.345 0.7068-12.7 1.01-19.03 0.626 4.627 1.264 9.285 1.961 13.92 0.828-2.263 1.656-4.526 2.484-6.779 0.424 6.961 0.7781 13.95 1.414 20.92 0.182-2.546 0.5348-7.619 0.7168-10.15 0.636 0.394 1.283 0.7989 1.93 1.213 0.354-1.273 0.7276-2.546 1.102-3.809 0.242 5.951 0.465 11.9 0.748 17.86 0.808-8.052 1.434-16.12 2.111-24.19 0.556 3.9 1.02 7.789 1.465 11.72 0.697-1.121 1.394-2.233 2.111-3.344 0.556 4.9 0.8284 9.81 1.273 14.74 0.535-2.708 1.071-5.415 1.627-8.123 0.687 3.031 1.11 5.95 1.828 9.031 0.081-4.961 0.1024-9.942 0.1934-14.89 0.576 1.566 1.131 3.133 1.717 4.719 0.748-6.617 1.243-13.27 1.859-19.89 0.384 5.001 0.6876 9.971 1.102 14.98 0.95-6.294 1.414-12.65 2-18.97 0.253 7.032 0.5461 14.06 0.8691 21.09 0.687-11.43 1.334-22.85 1.889-34.28 0.647 5.011 1.211 10.02 1.908 15.02 0.566-4.375 1.132-8.739 1.707-13.1 0.869 7.032 1.133 14.13 1.678 21.2 0.253-7.365 0.4846-14.72 0.7676-22.07 0.97 8.001 1.687 16.03 2.314 24.09 0.283-8.032 0.373-16.06 0.666-24.09 0.828 7.325 1.586 14.66 2.324 22 0.242-10.39 0.4153-20.76 0.7793-31.14 0.899 8.365 1.646 16.74 2.232 25.14 0.263-9.062 0.4646-18.13 0.7676-27.18 0.606 6.688 1.12 13.4 1.898 20.09 0.455-7.385 0.8494-14.76 1.273-22.12 0.657 8.355 1.303 16.7 2.162 25.04 0.293-8.012 0.4856-16.02 0.8086-24.03 0.707 8.002 1.292 16.01 2.121 24 0.303-7.335 0.5772-14.66 0.9102-21.97 0.738 7.335 1.323 14.7 2.031 22.04 0.394-5.334 0.8165-10.66 1.271-15.98 0.758 5.961 1.193 11.94 1.729 17.93 0.546-2.718 1.413-5.232 2.07-7.889 0.131 2.748 0.4042 8.244 0.5352 11 0.636-1.576 1.273-3.143 1.93-4.709-0.061 2.799-0.1805 8.407-0.2305 11.21 0.778-0.566 1.565-1.122 2.363-1.668 0.121 2.778 0.2628 5.577 0.4238 8.365 0.546-4.465 1.052-8.952 1.668-13.39 0.465 4.364 0.7172 8.73 0.9902 13.13 0.636-1.142 1.273-2.284 1.93-3.426-0.253 21.78 0.2717 43.56 1.555 65.3 0.515-17.14 0.2435-34.31 1.062-51.43 0.798 20.16-0.0924 40.36 0.8066 60.54 1.253-22.85 1.314-45.76 2.234-68.62 0.859 38.21 0.1003 76.43 0.3223 114.6l0.9902-0.0293c-0.071-29.29 1.596-58.55 1.041-87.85l1.061-0.01c0.273 30.46-0.7061 60.95 0.5469 91.4 0.667-29.96 0.3533-59.94 2.07-89.88 0.889 32.48 0.1408 64.97 0.3438 97.46l1.102-0.01c-0.101-16.99-0.2119-34 0.4141-50.98 0.465 4.678 0.7869 9.335 1.211 14.04 0.465-8.375 0.8193-16.76 1.486-25.12 0.727 7.011 1.394 14.05 2.182 21.07 0.485-5.334 0.9505-10.66 1.395-15.98 0.384 13.59 0.363 27.2 0.332 40.81h0.9707c-0.141-22.73 0.6762-45.45 1.656-68.15 0.384 14.12 0.4135 28.27 0.9395 42.4 2.96-25.16 0.485-50.53 2.041-75.75 0.97 25.74 0.2318 51.5 0.4238 77.26l1.062-0.01c-0.313-30.48 0.626-60.94 1.627-91.4 0.96 24.57-0.3328 49.17 0.9902 73.73 0.576-31.64 0.4339-63.29 1.92-94.91 0.525 13.75 0.5659 27.51 0.8789 41.28 0.94-12.07 1.627-24.16 2.223-36.24 0.394 7.749 0.7577 15.5 1.303 23.26 1.323-9.002 1.031-18.13 1.414-27.19 0.303 1.445 0.9196 4.323 1.223 5.768 0.505-2.273 1.029-4.536 1.564-6.789 0.687 7.335 1.093 14.69 1.639 22.04 0.768-8.042 1.373-16.1 2.07-24.15 0.303 6.688 0.4648 13.38 0.7578 20.07 0.586-7.001 1.041-14.01 1.859-20.98 0.192 1.627 0.5756 4.891 0.7676 6.527 0.879-1.879 1.789-3.739 2.729-5.588 0.242 7.698 0.434 15.4 0.707 23.1 1.899-10.31 3.565-20.69 4.283-31.18 0.566 7.052 1.092 14.11 1.84 21.15 1.111-2.657 1.777-5.536 3.02-8.113 1.364 6.274 1.638 12.69 2.113 19.08 0.283-2.738 0.8286-8.204 1.102-10.94 0.232 4.334 0.3639 8.659 0.5859 13.01 0.394-1.576 0.7874-3.153 1.191-4.719 0.768 2.889 1.546 5.779 2.354 8.668 0.141-4.617 0.2128-9.243 0.3438-13.84 1.222 4.88 2.606 9.779 5.242 14.11 1.111-3.223 1.737-6.606 2.525-9.91 0.505 5.223 1.102 10.43 1.779 15.64 0.333-5.637 0.667-11.26 1-16.87 0.354 10.4 0.5958 20.81 1.01 31.22 0.758-9.042 1.353-18.1 1.949-27.16 0.364 4.021 1.091 12.07 1.455 16.1 0.859-6.708 1.304-13.48 1.941-20.2 1.202 13.07 1.242 26.21 1.848 39.31 0.333-13.12 0.3746-26.25 0.8086-39.36 0.273 2.96 0.2427 5.779 0.5957 8.789 0.677-1.152 1.354-2.314 2.051-3.465 0.202 31.22-0.8486 62.46 0.5664 93.65 1.384-35.82-1.436-71.79 2.535-107.5 0.748 7.698 0.8892 15.44 0.9902 23.17-0.273 38.72-0.0906 77.45-0.1816 116.2h1.092c0.232-45.61-0.6374-91.23 0.3926-136.8 0.384 8.719 0.8196 17.44 1.184 26.18 0.354-9.416 0.6048-18.83 1.09-28.23 0.828 23.21-0.3535 46.45 0.9805 69.66 0.495-13.42 0.3339-26.85 0.5469-40.27 0.546 2.233 1.109 4.485 1.695 6.758 0.131-10.37 0.2337-20.73 0.5976-31.08 0.263 8.759 0.6971 17.51 1.121 26.28 2.233-5.799 2.565-12.03 3.404-18.1 0.152 25.7 0.01 51.41 0.0195 77.14h1.082c0.051-20.21-0.0609-40.41-0.1309-60.61 0.061-11.6-0.0716-23.39 2.939-34.68 0.404 19.78-0.1323 39.57 0.5547 59.36 0.798-17.84 2.355-35.63 3.355-53.45 1.424 10.68 1.414 21.47 1.768 32.23 0.414-8.779 0.97-17.54 1.627-26.29 0.768 8.072 1.112 16.18 1.557 24.28 0.556-10.76 1.242-21.52 2.777-32.2 0.626 10.03 0.9185 20.11 2.354 30.09 0.556-12.73-0.3019-25.7 2.83-38.16 0.556 13.75 0.5648 27.52 0.9688 41.29 0.576-13.11 1.133-26.22 2.244-39.28 0.293 6.345 0.4543 12.7 0.7363 19.06 0.273-2.728 0.8188-8.192 1.092-10.92 0.323 1.697 0.97 5.102 1.293 6.809 0.354-4.991 0.6162-10 0.9902-14.97 1.152 13.42 1.393 26.88 1.838 40.34 0.384-13.17 0.5765-26.4 2.688-39.44 0.616 10.46 0.9603 20.92 1.404 31.39 0.636-10.16 0.888-20.54 3.959-30.34 0.354 5.728 0.7183 11.45 1.072 17.19 0.414-6.042 0.7962-12.08 1.281-18.12 0.94 9.032 1.293 18.12 1.859 27.18 0.253-10.75 0.4251-21.5 0.7891-32.24 0.445 3.344 0.6966 6.628 1.182 10 0.414-3.294 0.6473-6.669 1.111-9.932 0.242 13.74 0.273 27.5 0.707 41.25 0.748-18.49 1.748-36.96 3.172-55.39 0.556 11.75 1.232 23.5 2.08 35.24 0.96-8.012 1.537-16.07 1.84-24.14 0.293 1.728 0.8789 5.173 1.172 6.9 0.354-2.637 0.7063-5.275 1.07-7.891 0.354 3.334 0.5064 6.587 0.9004 9.961 0.475-2.96 0.6052-6.072 1.201-8.971 0.212 7.355 0.3839 14.71 0.5859 22.06 0.859-6.446 1.282-13.02 3.414-19.21 1.616 7.608 1.264 15.44 1.617 23.18 0.818-7.446 0.8478-15.11 3.424-22.23 0.576 1.495 1.728 4.497 2.293 5.992 0.04-4.566 0.0115-9.164 0.0625-13.72 1.041 4.284 2.09 8.618 3.262 12.89 0.495-3.041 1.476-9.113 1.971-12.15 0.768 8.406 0.9508 16.84 1.385 25.28 0.434-10.45 0.4739-20.99 2.838-31.24 0.434 7.719 0.7681 15.44 1.121 23.18 1.071-8.001 2.273-15.98 3.223-23.99 0.404 5.728 0.849 11.47 1.334 17.21 1.323-3.981 2.194-8.092 3.062-12.18-0.111 2.394-0.2024 4.799-0.2734 7.213 0.778-0.596 1.565-1.182 2.363-1.758 0.152 1.849 0.4662 5.536 0.6172 7.385 0.323-4.991 0.445-10 0.707-14.97 0.636 3.405 1.089 6.797 1.695 10.23 1.334-3.597 2.173-7.355 3.092-11.06-0.141 5.163-0.242 10.32-0.293 15.51 0.485-0.96 0.9701-1.908 1.455-2.848 0.596 0.909 1.193 1.817 1.809 2.736 0.081-4.839 0.1095-9.689 0.2305-14.51 0.162 1.525 0.476 4.588 0.627 6.113 0.697-0.505 1.403-1.011 2.131-1.516 0.131 2.748 0.2948 5.505 0.4668 8.273 0.1372-2.19 0.2627-4.377 0.3945-6.566z"/>
</svg>
