<?xml version="1.0" encoding="UTF-8" standalone="no"?>
<svg
   version="1.1"
   id="Layer_1"
   x="0px"
   y="0px"
   viewBox="0 0 429.67774 339.92244"
   enable-background="new -74.447 -42.393 2692.97 682.775"
   xml:space="preserve"
   sodipodi:docname="soundwave2.svg"
   inkscape:version="1.3 (0e150ed6c4, 2023-07-21)"
   width="429.67773"
   height="339.92245"
   xmlns:inkscape="http://www.inkscape.org/namespaces/inkscape"
   xmlns:sodipodi="http://sodipodi.sourceforge.net/DTD/sodipodi-0.dtd"
   xmlns="http://www.w3.org/2000/svg"
   xmlns:svg="http://www.w3.org/2000/svg"><defs
   id="defs1" /><sodipodi:namedview
   id="namedview1"
   pagecolor="#ffffff"
   bordercolor="#000000"
   borderopacity="0.25"
   inkscape:showpageshadow="2"
   inkscape:pageopacity="0.0"
   inkscape:pagecheckerboard="0"
   inkscape:deskcolor="#d1d1d1"
   inkscape:zoom="0.91126155"
   inkscape:cx="480.10365"
   inkscape:cy="255.1408"
   inkscape:window-width="1920"
   inkscape:window-height="974"
   inkscape:window-x="-11"
   inkscape:window-y="-11"
   inkscape:window-maximized="1"
   inkscape:current-layer="Layer_1" />&#10;<path
   id="path2"
   d="m 429.61714,181.18922 0.0606,-37.2461 c -0.49094,2.83354 -0.96316,5.67219 -1.47461,8.5 -0.505,-10.03198 -0.75802,-20.09566 -2.04102,-30.05664 -0.525,9.35498 -0.76791,18.75119 -1.87891,28.07617 -1.10098,-7.33498 -1.73751,-14.72048 -2.35351,-22.10546 -0.313,6.73898 -0.62499,13.46781 -0.95899,20.21679 -1.25298,-3.88998 -2.30459,-7.85008 -3.18359,-11.83008 -0.475,3.415 -1.3018,6.6976 -1.7168,10.14258 -1.67698,-8.41598 -1.63665,-17.07458 -2.22265,-25.60156 -0.293,10.14298 -0.59683,20.29766 -1.79883,30.39062 -2.132,-9.66898 -1.58597,-19.67048 -2.29297,-29.48046 -1.384,7.91098 -1.19255,15.97361 -1.43555,23.97461 -1.10098,-2.607 -2.13118,-5.2033 -3.24218,-7.7793 -0.343,2.01 -1.031,6.02025 -1.375,8.03125 -0.707,-8.04198 -1.28268,-16.09277 -1.88868,-24.13477 -0.49498,8.37498 -0.91823,16.76002 -1.61523,25.125 -0.94,-7.36498 -1.78841,-14.73047 -2.56641,-22.10547 -1.33398,9.305 -2.06193,18.68041 -2.96093,28.02539 -0.333,-9.99198 -0.65532,-19.98284 -1.69532,-29.92382 -0.77798,7.09198 -0.64851,14.45711 -3.10351,21.24609 -0.404,-5.76898 -0.75755,-11.53866 -1.06055,-17.30664 -0.667,6.03098 -1.29356,12.08252 -2.10156,18.10352 -1.031,-6.991 -1.56475,-14.04371 -1.96875,-21.09571 -0.798,5.041 -1.59686,10.08424 -2.50586,15.11524 -0.748,-5.021 -1.23234,-10.09424 -1.77734,-15.11524 -0.303,6.355 -0.59693,12.70924 -0.91993,19.07422 -1.54598,-9.33498 -2.65528,-18.73933 -2.98828,-28.19531 -0.495,7.30398 -0.84964,14.61813 -1.55664,21.91211 -0.869,-3.576 -1.63662,-7.11121 -2.51562,-10.65821 -0.657,3.253 -1.44525,6.46529 -2.03125,9.73829 -0.677,-5.607 -1.32277,-11.22504 -2.00977,-16.83204 -0.293,2.97 -0.56612,5.95165 -0.82812,8.93165 -1.212,-3.334 -2.46589,-6.70874 -3.58789,-10.05274 -2.819,6.96098 -1.88885,14.68016 -2.46485,21.99414 -0.697,-3.60698 -1.36456,-7.21161 -2.10156,-10.80859 -0.384,4.28398 -0.73708,8.57686 -1.08008,12.88086 -1.384,-11.36598 -1.52567,-22.81154 -1.88867,-34.22852 -0.616,8.00198 -1.08147,16.03146 -1.98047,24.02344 -0.232,-2.95 -0.67644,-8.84883 -0.89844,-11.79883 -0.525,2.213 -1.02132,4.44474 -1.48632,6.67774 -0.293,-7.325 -0.58452,-14.63838 -0.97852,-21.94336 -1.182,10.69898 -1.33403,21.47736 -1.70703,32.23632 -0.556,-6.68798 -1.0205,-13.36522 -1.6875,-20.0332 -0.919,3.263 -1.70742,6.57661 -2.60742,9.84961 -1.071,-6.11198 -1.35452,-12.33655 -1.72852,-18.51953 -0.364,0 -1.08936,0.0115 -1.44336,0.0215 -0.232,7.203 -0.47505,14.41593 -0.74805,21.62891 -0.44498,-10.38598 -0.58648,-20.80221 -1.98046,-31.11719 -0.859,13.07298 -1.45627,26.14649 -2.07227,39.23047 -1.818,-16.76096 -1.26198,-33.64193 -1.95898,-50.46289 -0.445,10.82998 -0.45502,21.72072 -2,32.4707 -2.465,-14.38696 -1.53636,-29.11677 -3.19336,-43.59375 -0.455,17.83198 -0.11138,35.67195 -0.85938,53.50391 -0.475,-14.46698 -0.89775,-28.93413 -1.96875,-43.37109 -0.697,8.40598 -1.2437,16.86055 -2.9707,25.14453 -0.485,-6.365 -0.84819,-12.72877 -1.24219,-19.09375 -0.323,9.40598 -0.55694,18.80205 -0.96094,28.20703 -0.434,-8.39598 -0.63625,-16.80152 -1.03125,-25.1875 -0.323,11.09298 -0.50397,22.18632 -0.91797,33.2793 -0.74798,-25.06496 -1.75932,-50.12208 -1.48632,-75.20704 l -1.05078,-0.0293 c -0.081,22.04496 0.54582,44.10982 -0.57618,66.13476 -1.202,-9.35498 -1.48398,-18.79128 -1.95898,-28.19726 -0.424,5.72798 -0.82914,11.45561 -1.24414,17.18359 -2.98,-10.51698 -2.31358,-21.53791 -2.76758,-32.33789 -0.253,8.72898 -0.71575,17.44852 -0.96875,26.1875 -0.424,-5.69798 -0.82889,-11.396 -1.21289,-17.08398 -0.283,14.11396 -0.34438,28.22686 -0.85938,42.33984 -0.44498,-10.75998 -0.5659,-21.54907 -1.8789,-32.24805 -0.586,9.72898 -0.77741,19.47877 -1.19141,29.21875 -0.364,-15.87196 -0.36484,-31.80347 -2.83984,-47.52343 -3.89,12.08296 -2.53472,24.93317 -3.26172,37.41015 -0.384,-10.35498 -0.596,-20.72166 -1.33398,-31.05664 -0.434,1.334 -0.85944,2.66772 -1.27344,4.01172 -0.657,-0.495 -1.29269,-0.98938 -1.92969,-1.48438 -0.101,7.163 -0.20175,14.32529 -0.34375,21.48829 -0.636,-6.385 -1.17192,-12.78907 -1.91992,-19.16407 -0.424,7.052 -0.8196,14.09255 -1.1836,21.14453 -0.54598,-6.08198 -1.05023,-12.17409 -1.61523,-18.24609 -0.879,8.41598 -1.06141,16.87261 -1.56641,25.30859 -0.323,-6.36498 -0.57614,-12.73 -0.86914,-19.08398 -1.35398,12.78998 -0.41353,26.54002 -6.72851,38.20898 -1.111,-4.07198 -1.98988,-8.18456 -3.17188,-12.22656 -0.445,7.133 -0.88873,14.25546 -1.30273,21.39844 -0.485,-9.04198 -0.76802,-18.10419 -2.04102,-27.07617 -0.242,4.97098 -0.45448,9.92111 -0.64648,14.91211 -0.95,-1.152 -1.89031,-2.30332 -2.82031,-3.44532 -0.182,5.88 -0.37394,11.75065 -0.58594,17.64063 -0.384,-10.07298 -0.53445,-20.16554 -0.93945,-30.22852 -0.364,6.365 -0.61693,12.74026 -0.91993,19.11524 -0.344,-2.96 -0.95987,-6.06147 -1.17187,-8.98047 -0.323,3.991 -0.62497,7.99119 -0.91797,11.99219 -2.374,-9.20398 -2.75834,-18.72199 -3.15234,-28.16797 -0.636,9.39598 -1.16135,18.81182 -1.77735,28.2168 -0.445,-2.677 -0.8599,-5.34374 -1.2539,-8.01172 -0.202,2.98998 -0.68611,5.84962 -0.78711,8.89062 -0.727,-7.47598 -1.06205,-14.98297 -2.08203,-22.41797 -0.808,2.374 -1.59552,4.75955 -2.35352,7.14453 -1.96,-15.27596 -2.00075,-30.7138 -3.67773,-46.00976 -0.424,5.64698 -0.83796,11.30467 -1.25196,16.97265 -1.394,-14.60896 -1.38522,-29.28752 -1.32422,-43.9375 l -0.89843,0.01 c 0.03,13.65898 0.11037,27.37882 -1.51563,40.9668 -0.636,-8.41598 -0.82648,-16.87113 -1.27148,-25.28711 -0.273,11.40598 -0.36553,22.8323 -0.76953,34.23828 -1.839,-19.80196 -1.19222,-39.7032 -2.32422,-59.53516 -1.647,12.70898 -1.29291,25.5684 -1.87891,38.35938 -0.414,-15.79098 -0.33141,-31.60162 -0.81641,-47.39258 -1.04098,14.74998 -1.67711,29.53057 -2.16211,44.31055 -1.01998,-23.87296 0.12132,-47.76595 -0.92968,-71.62891 -0.434,6.03098 -0.80913,12.07325 -1.20313,18.11523 C 233.71264,16.1138 233.48095,8.052 233.12695,0 c -1.72798,24.87296 -1.05123,49.81675 -1.99023,74.72071 -0.818,-15.79098 -1.42322,-31.58209 -1.94922,-47.37305 -0.374,10.39598 -0.7185,20.80129 -1.0625,31.19727 -0.394,-9.072 -0.62451,-18.14504 -0.97851,-27.20704 -0.505,8.749 -0.85008,17.51929 -1.83008,26.23829 -1.475,-5.93 -1.91942,-12.05471 -2.60742,-18.09571 -0.313,23.20596 0.2324,46.41342 -0.4336,69.60938 -0.495,-4.011 -0.96029,-8.02149 -1.40429,-12.02149 -0.525,11.05298 -1.04955,22.10523 -1.68555,33.15821 -0.677,-2.869 -1.32347,-5.73766 -1.98047,-8.59766 -1.344,4.152 -2.80913,8.25277 -4.20313,12.38477 -0.68698,3.35398 -1.46556,6.66898 -2.10156,10.04296 -0.677,-2.16198 -1.35425,-4.32456 -2.03125,-6.47656 -0.697,6.254 -1.32231,12.52827 -2.07031,18.78125 -0.303,-7.33498 -0.57567,-14.66916 -0.88867,-21.99414 -0.839,6.98098 -1.45558,13.98238 -2.14258,20.98438 -0.333,-5.627 -0.6152,-11.24435 -0.9082,-16.86133 -0.828,4.61698 -1.58621,9.25239 -2.28321,13.90039 -0.182,-7.01098 -0.36487,-14.02246 -0.54687,-21.02344 -0.727,5.001 -1.3531,10.01291 -2.1211,15.00391 -0.40398,-4.657 -0.74903,-9.33544 -1.08203,-13.98242 -0.626,4.67798 -1.23243,9.36498 -1.89843,14.04296 -0.344,-4.04098 -1.04177,-12.11231 -1.38477,-16.15429 -1.041,8.71898 -1.394,17.48711 -2,26.24609 -0.202,-13.15398 -0.25208,-26.31719 -1.08008,-39.45117 -0.909,8.06198 -1.33437,16.17341 -1.85937,24.27539 -0.445,-9.41598 -0.63619,-18.85058 -1.61719,-28.22656 -0.455,8.72898 -0.94997,17.46805 -1.29297,26.20703 -0.364,-12.15398 -0.55528,-24.32796 -1.36328,-36.46094 -1.859,12.39598 -1.09103,25.01499 -1.70703,37.50195 -0.455,-10.44598 -0.64747,-20.91308 -1.98047,-31.28906 -0.465,8.40598 -0.76684,16.81082 -1.08984,25.2168 -0.626,-11.42598 -1.19224,-22.84379 -1.99024,-34.25977 -0.364,6.011 -0.67848,12.02294 -1.02148,18.04492 -0.808,-5.94098 -1.47363,-11.91206 -2.14063,-17.87304 -0.404,4.65698 -0.80764,9.29589 -1.18164,13.96289 -0.859,-5.334 -1.33492,-10.72924 -1.91992,-16.07422 -0.283,8.37498 -0.48514,16.75002 -0.86914,25.125 -1.323,-11.38598 -1.51502,-22.86285 -2.04102,-34.29883 -0.283,11.46698 -0.45534,22.93465 -1.15234,34.39063 -1.566,-13.26498 -1.25195,-26.66159 -1.25195,-39.97657 l -0.83985,0.01 c -0.101,10.28498 -0.31359,20.56954 -0.80859,30.85352 -1.101,-7.203 -1.26156,-14.50796 -1.72656,-21.75196 l -0.52539,0.01 c -0.152,8.56698 -0.32224,17.14544 -0.61524,25.73242 -0.97,-7.70898 -1.66805,-15.43655 -2.12305,-23.18555 -0.36398,7.405 -0.7171,14.80985 -1.1621,22.21485 -1.404,-12.07298 -1.33368,-24.25688 -1.88868,-36.38086 -0.333,9.74898 -0.54545,19.50883 -0.93945,29.25781 -0.727,-9.70898 -1.30361,-19.43727 -1.84961,-29.15625 -0.525,7.37498 -1.25325,14.75025 -2.03125,22.11523 -0.394,-2.98998 -0.89897,-6.09148 -1.29297,-9.02148 -0.515,8.01198 -0.87801,16.04294 -1.66601,24.04492 -0.465,-7.03198 -0.9293,-14.06394 -1.4043,-21.08594 -0.192,15.15398 0.2115,30.3694 -1.6875,45.44336 -0.849,-16.48796 -0.45591,-33.01594 -1.25391,-49.5039 -0.768,19.85196 0.47622,39.78421 -1.67578,59.57617 -1.404,-22.19596 -0.081,-44.44248 -1.33398,-66.64844 -0.566,20.86196 -0.34483,41.76593 -2.13281,62.58789 -0.788,-23.54994 0.43431,-47.13021 -0.92969,-70.66015 -0.768,21.88294 0.35398,43.84624 -2.04102,65.6582 -0.505,-17.85196 -0.12067,-35.71396 -0.88867,-53.54492 -1.243,16.80096 -1.40333,33.65316 -2.11133,50.49414 -0.748,-21.20596 0.12006,-42.43123 -0.96094,-63.61719 -0.78798,23.21596 -1.01056,46.45298 -2.10156,69.66992 -0.647,-19.86196 0.0718,-39.73593 -0.94922,-59.58789 -1.30298,12.74998 -1.53704,25.57035 -2.12304,38.36133 -0.445,-18.16496 -0.0796,-36.3509 -0.80664,-54.50586 -1.667,22.00396 -1.60733,44.06909 -1.48633,66.12305 l -1.08985,0.0312 c -0.152,-21.72096 0.97966,-43.51311 -1.15234,-65.16407 -0.535,7.052 -1.04992,14.10404 -1.54492,21.16602 -0.263,-11.79998 -0.34402,-23.6126 -1.04102,-35.39258 -3.37398,26.11596 0.25192,52.63634 -1.83008,78.86328 -0.68698,-21.20596 -1.05031,-42.41146 -2.07031,-63.60742 -0.616,19.17496 -0.0917,38.37192 -0.92969,57.54688 -0.66698,-16.80098 0.051,-33.70287 -2.04101,-50.42383 -0.495,15.44696 -0.3947,30.90435 -0.9707,46.36133 -2.92,-27.50996 -0.51455,-55.21225 -2.06055,-82.78321 -1.121,25.91396 0.24278,51.85753 -0.94922,77.77149 -2.768,-27.19694 -0.62727,-54.55556 -2.07227,-81.8125 -1.37398,34.32992 0.56738,68.70059 -1.0996,103.01953 -0.556,-43.77592 -0.95977,-87.55244 -2.00977,-131.31836 -1.819,38.01692 1.82909,76.22517 -1.87891,114.12109 -1.101,-21.52894 0.0802,-43.09824 -1.13281,-64.61718 -0.606,17.81096 -0.23283,35.64288 -0.79883,53.46484 -2.65698,-16.68996 -1.1914,-33.63285 -2.1914,-50.42383 -1.02,22.51896 0.61553,45.15065 -1.98047,67.59961 -1.465,-42.39192 0.63714,-84.82511 -1.13086,-127.20703 -1.041,26.72194 0.36317,53.47509 -0.79883,80.20703 -1,21.38796 -0.0911,42.82665 -1.12109,64.22461 -1.394,-42.74492 0.55645,-85.53166 -1.01953,-128.26758 -1.03,39.72492 -1.17155,79.45868 -2.06055,119.1836 -1.182,-32.98594 0.41433,-66.00063 -0.88867,-98.97657 -1.738,26.22696 -1.1633,52.51478 -2.11328,78.76172 -0.586,-17.49796 -0.23155,-35.02766 -1.06055,-52.51562 -2.031,17.74096 -1.3443,35.62238 -1.4043,53.44336 -0.596,-1.536 -1.19134,-3.06947 -1.77734,-4.60547 -0.808,8.27398 -1.32281,16.57883 -1.75781,24.88281 -3.758,-8.17298 -3.70927,-17.28572 -4.07227,-26.0957 -0.616,5.30398 -1.14192,10.62617 -1.91992,15.91015 -0.434,-3.29398 -0.94974,-6.66645 -1.30274,-9.93945 -0.737,7.70898 -1.34423,15.42555 -1.99023,23.14453 -0.849,-7.30398 -1.34302,-14.65892 -1.66602,-22.0039 -0.152,1.25298 -0.45447,3.74895 -0.60547,5.00195 -0.66698,-0.445 -1.3237,-0.88899 -1.9707,-1.33399 -0.687,5.789 -1.54539,11.55866 -2.52539,17.30664 -1.162,-13.46696 -2.90147,-26.87552 -4.35547,-40.3125 -1.182,11.43598 -1.36406,23.14579 -4.74804,34.21875 -0.859,-5.36498 -1.60608,-10.73875 -2.45508,-16.09375 -1.283,7.001 -2.10078,14.06326 -3.05078,21.11524 -1.061,-11.36598 -1.23296,-22.78176 -1.62696,-34.17774 -0.445,3.334 -0.94998,6.61743 -1.33398,9.98243 -0.263,-13.73998 0.13153,-27.56171 -1.93945,-41.17969 -0.323,11.34598 -0.35315,22.70238 -0.49415,34.06836 -0.80798,-2.97 -1.57676,-5.94258 -2.38476,-8.89258 -0.283,5.68798 -0.55636,11.36669 -0.81836,17.05469 -0.313,-1.778 -0.92819,-5.32358 -1.24219,-7.10156 -0.788,2.32398 -1.53737,4.66748 -2.23437,7.02148 -0.202,-6.67798 -0.47402,-13.35544 -0.66602,-20.02344 -0.384,7.032 -0.76858,14.06154 -1.14258,21.10352 -0.323,-9.07198 -0.58545,-18.13333 -0.93945,-27.19531 -0.424,4.67798 -0.78834,9.3452 -1.15234,14.0332 -0.263,-7.35498 -0.47503,-14.70188 -0.70703,-22.04688 -0.717,7.648 -1.25347,15.31663 -1.98047,22.97461 -0.818,-6.28398 -1.59538,-12.56803 -2.48438,-18.83203 -0.232,10.02198 -0.39381,20.04419 -0.75781,30.07617 -0.384,-10.76998 -0.57544,-21.53886 -0.89844,-32.29882 -0.384,3.02098 -0.90989,5.91948 -1.21289,8.98046 -0.586,-6.36498 -1.14237,-12.73975 -1.85937,-19.09375 -0.748,10.45598 -1.14129,20.97407 -3.36329,31.24805 -2.44498,-8.83998 -2.31325,-18.05302 -2.65625,-27.125 -0.34298,2.738 -1.02123,8.21319 -1.36523,10.95117 -0.667,-24.20694 0.46509,-48.44368 -0.87891,-72.64062 -0.91898,23.54994 0.21141,47.13168 -0.80859,70.68164 -0.505,-4.688 -0.92805,-9.38769 -1.37305,-14.05469 -0.303,16.29596 -0.20162,32.60224 -0.14062,48.9082 l -1.10156,0.01 c -0.071,-22.04496 0.3845,-44.08737 -0.3125,-66.11133 C 11.30724,70.03895 10.6205,82.47382 9.8125,94.9108 8.9335,79.77684 8.42872,64.63367 7.76172,49.49869 7.23672,67.16865 7.39775,84.84803 7.46875,102.52799 l -0.98047,-0.0508 C 6.44828,90.53521 6.31672,78.59471 5.76172,66.66273 5.14572,94.25369 5.6502,121.87498 4.0332,149.44594 3.70022,147.70794 3.01369,144.25206 2.67969,142.52406 1.74999,149.04953 0.8794,155.57516 0,162.11 v 20.01172 c 0.0465,0.23201 0.0734,0.46744 0.1211,0.69922 0.81798,-4.961 1.3044,-9.99096 1.9414,-14.96094 1.041,10.30498 2.33358,20.58953 3.76758,30.85351 1.091,15.72998 0.52539,31.51051 0.52539,47.27149 l 0.97852,-0.0391 c 0.04,-11.95198 0.16273,-23.88443 0.67773,-35.81641 0.414,11.42598 0.54656,22.87285 1.10156,34.29883 0.283,-14.13398 0.04,-28.29712 1.62696,-42.3711 1.061,14.74998 1.687,29.51104 2,44.29102 0.727,-7.31498 1.37453,-14.62836 2.39453,-21.90234 0.445,14.09396 0.222,28.24655 2,42.26953 0.505,-20.88296 1.00898,-41.74448 1.95898,-62.60742 0.485,15.44696 0.40391,30.90436 0.87891,46.36132 0.303,-8.72898 0.77756,-17.42655 1.06054,-26.14453 0.242,4.021 0.73724,12.06299 0.99024,16.08399 0.404,-2.657 0.80889,-5.30441 1.21289,-7.94141 0.495,6.84998 1.01855,13.68885 1.68555,20.54883 1.253,-6.45598 1.65753,-13.04285 2.39453,-19.54883 0.374,3.324 0.61647,6.56569 0.98047,9.92969 0.283,-6.021 0.51411,-12.04199 0.78711,-18.04297 0.414,7.01098 0.8392,14.04224 1.2832,21.07422 0.313,-11.75998 0.36459,-23.5286 0.80859,-35.26758 0.202,3.142 0.29261,6.22153 0.47461,9.39453 0.677,-0.586 1.35425,-1.17205 2.03125,-1.74805 0.111,9.88098 0.19175,19.79307 1.34375,29.62305 0.566,-11.12298 0.85894,-22.26788 1.58594,-33.38086 1.222,8.71898 1.25384,17.53938 1.83984,26.31836 0.293,-15.14396 0.69646,-30.2896 1.93946,-45.39258 0.839,4.961 1.4544,9.93088 2.1914,14.92188 0.051,-1.95 0.14236,-5.82758 0.19336,-7.76758 0.364,0.808 1.09108,2.42442 1.45508,3.23242 1.344,-4.14198 2.67577,-8.2955 4.00977,-12.4375 2.33398,13.31598 1.59712,26.93365 2.20312,40.39063 0.919,-5.991 1.50441,-12.04174 2.19141,-18.05274 0.283,6.355 0.52537,12.71024 0.85937,19.07422 1.566,-16.48796 1.20136,-33.13943 3.81836,-49.52539 1.495,7.34498 2.30275,14.82205 3.34375,22.24805 2.01,-7.314 3.31461,-14.81157 4.84961,-22.22657 0.556,10.76998 0.94094,21.57134 1.96094,32.32032 2.021,-14.74998 3.91998,-29.51137 4.33398,-44.40235 1.404,8.527 1.81863,17.17523 2.51563,25.78321 0.606,-0.051 1.80706,-0.14236 2.41406,-0.19336 0.657,-4.627 1.30344,-9.25332 2.27344,-13.82032 3.55598,12.76998 1.65661,26.13548 3.47461,39.14844 0.919,7.55698 1.86978,15.10396 2.42578,22.71094 0.232,-12.08298 0.39273,-24.1653 0.92773,-36.23828 0.485,17.15496 0.63702,34.31963 2.04102,51.43359 0.758,-20.51896 -0.24072,-41.05768 1.07226,-61.55664 2.01,13.01298 1.21146,26.24735 1.93946,39.36133 0.96,-7.34498 1.47417,-14.73094 2.20117,-22.08594 0.384,20.49896 -0.22116,41.01862 0.83984,61.51758 0.94,-23.20596 -0.23164,-46.44271 0.81836,-69.63867 1.596,26.21694 1.24241,52.49548 2.19141,78.73242 1.172,-34.65292 -0.40388,-69.32753 0.82812,-103.98047 2.799,36.28994 0.58519,72.70255 2.24219,109.02149 1.162,-37.01694 -0.54586,-74.07683 0.86914,-111.09375 1,26.24694 1.21258,52.51671 2.10156,78.76367 0.99,-20.50896 -0.74862,-41.15064 1.81836,-61.5586 1.697,34.29894 -0.49456,68.67055 1.27344,102.98047 1.536,-29.26794 -1.48448,-58.67851 1.72852,-87.85547 1.324,24.37796 0.38347,48.80614 0.60547,73.20508 l 1.10156,0.01 c -0.515,-33.52094 0.4847,-67.01297 1.5957,-100.50391 0.899,39.56292 0.12075,79.1363 0.34375,118.69922 l 0.99024,-0.0293 c 0.546,-33.15792 0.91926,-66.31573 1.69726,-99.47265 1.081,28.25794 -0.38409,56.55651 0.87891,84.81445 3.83898,-41.61392 -0.22166,-83.52164 2.15234,-125.22656 1.223,40.05792 -0.58653,80.14544 0.93945,120.19336 2.839,-35.62294 0.40449,-71.38591 2.02149,-107.04883 1.344,34.31994 -0.56669,68.67911 1.07031,102.99805 1.738,-9.82998 1.40486,-19.85246 1.50586,-29.77344 -0.141,-21.89296 -0.16162,-43.78501 -0.14062,-65.66797 l 1.02929,0.0293 c -0.101,14.61896 -0.41276,29.30944 1.36524,43.85742 1.051,-19.16496 0.33367,-38.36067 1.26367,-57.51563 1.364,31.33894 -0.81803,62.73772 1.29297,94.05664 2.61698,-27.58094 0.0698,-55.30165 1.67578,-82.93359 0.586,16.83096 0.44434,33.70168 2.15234,50.47266 0.465,-17.49798 0.16169,-35.00618 0.88867,-52.49414 0.657,16.80096 1.23279,33.62186 2.05079,50.42382 0.66698,-18.83196 0.21339,-37.68343 0.90039,-56.52539 0.798,8.385 1.42239,16.78104 2.15039,25.16602 0.303,-8.69898 0.5674,-17.40844 0.9414,-26.10742 0.889,12.75996 1.52611,25.5208 2.16211,38.30078 0.333,-9.74898 0.47389,-19.49954 0.83789,-29.22852 0.556,11.37598 1.10033,22.77293 2.11133,34.12891 0.303,-5.64798 0.58763,-11.27536 0.89063,-16.90234 0.394,4.04098 1.18193,12.11231 1.58593,16.15429 1.132,-11.75998 1.10946,-23.59964 1.56446,-35.39062 0.354,10.42598 0.58706,20.88283 1.78906,31.25781 0.435,-6.34498 0.70678,-12.69822 1.00976,-19.0332 0.626,4.62698 1.26394,9.28489 1.96094,13.92187 0.828,-2.263 1.65638,-4.5263 2.48438,-6.7793 0.424,6.961 0.77806,13.95285 1.41406,20.92383 0.182,-2.54598 0.5348,-7.61931 0.7168,-10.15429 0.636,0.394 1.2827,0.79889 1.92968,1.21289 0.354,-1.273 0.72757,-2.5456 1.10157,-3.8086 0.242,5.951 0.46504,11.90035 0.74804,17.86133 0.808,-8.05198 1.43433,-16.12355 2.11133,-24.18555 0.556,3.9 1.01985,7.78877 1.46485,11.71875 0.69698,-1.12098 1.39432,-2.23275 2.11132,-3.34375 0.556,4.9 0.82844,9.81024 1.27344,14.74024 0.535,-2.708 1.07095,-5.41505 1.62695,-8.12305 0.687,3.031 1.11013,5.95025 1.82813,9.03125 0.081,-4.96098 0.10236,-9.94158 0.19336,-14.89258 0.576,1.566 1.1308,3.13277 1.7168,4.71875 0.74798,-6.61698 1.24337,-13.27459 1.85937,-19.89257 0.384,5.00098 0.68756,9.97142 1.10156,14.98242 0.95,-6.294 1.414,-12.64868 2,-18.97266 0.253,7.03198 0.54614,14.06177 0.86914,21.09375 0.687,-11.42598 1.33368,-22.85136 1.88868,-34.27734 0.64698,5.01098 1.2112,10.0205 1.9082,15.02148 0.566,-4.37498 1.13203,-8.73853 1.70703,-13.10351 0.869,7.03198 1.13273,14.12528 1.67773,21.19726 0.253,-7.36498 0.48458,-14.72142 0.76758,-22.0664 0.97,8.00098 1.68746,16.03395 2.31446,24.08593 0.283,-8.03198 0.37301,-16.06495 0.66601,-24.08593 0.828,7.32498 1.58622,14.65892 2.32422,22.0039 0.242,-10.38598 0.4153,-20.76174 0.7793,-31.13672 0.899,8.36498 1.64642,16.74174 2.23242,25.13672 0.263,-9.06198 0.46458,-18.12575 0.76758,-27.17773 0.606,6.68798 1.12045,13.39695 1.89843,20.08593 0.455,-7.38498 0.84944,-14.76 1.27344,-22.125 0.657,8.355 1.30311,16.69995 2.16211,25.04493 0.293,-8.012 0.48561,-16.02341 0.80859,-24.02539 0.707,8.00198 1.2921,16.01192 2.1211,24.0039 0.303,-7.33498 0.57717,-14.65767 0.91015,-21.97265 0.738,7.33498 1.32327,14.69994 2.03125,22.04492 0.394,-5.334 0.81649,-10.65844 1.27149,-15.98242 0.758,5.96098 1.19253,11.94064 1.72851,17.93164 0.546,-2.718 1.41332,-5.23168 2.07032,-7.88868 0.131,2.748 0.40415,8.24396 0.53515,11.00196 0.636,-1.576 1.27269,-3.14299 1.92969,-4.70899 -0.061,2.799 -0.18047,8.40708 -0.23047,11.20508 0.778,-0.566 1.56528,-1.12197 2.36328,-1.66797 0.121,2.778 0.26283,5.57724 0.42383,8.36524 0.546,-4.465 1.05197,-8.95174 1.66797,-13.38672 0.465,4.36398 0.71725,8.72978 0.99023,13.13476 0.636,-1.14198 1.27269,-2.28378 1.92969,-3.42578 -0.253,21.78196 0.27169,43.56373 1.55469,65.30469 0.515,-17.14496 0.2435,-34.30963 1.0625,-51.43359 0.798,20.16496 -0.0924,40.36115 0.80664,60.53711 1.253,-22.85296 1.31438,-45.7562 2.23438,-68.61914 0.85898,38.20892 0.10026,76.42951 0.32226,114.64843 l 0.99024,-0.0293 c -0.071,-29.28794 1.59601,-58.54677 1.04101,-87.84571 l 1.06055,-0.01 c 0.273,30.45994 -0.70613,60.95045 0.54687,91.40039 0.667,-29.96494 0.35332,-59.94006 2.07032,-89.875 0.88898,32.48094 0.14075,64.97195 0.34375,97.46289 l 1.10156,-0.01 c -0.101,-16.99296 -0.21194,-33.99749 0.41406,-50.98047 0.465,4.678 0.78694,9.33499 1.21094,14.04297 0.465,-8.37498 0.81933,-16.76025 1.48633,-25.11523 0.727,7.01098 1.39364,14.05222 2.18164,21.07422 0.485,-5.334 0.95053,-10.65844 1.39453,-15.98242 0.384,13.58796 0.36303,27.19766 0.33203,40.80664 h 0.9707 c -0.141,-22.73196 0.67625,-45.45334 1.65625,-68.1543 0.384,14.12398 0.41346,28.26838 0.93946,42.40234 2.95998,-25.15594 0.48501,-50.52501 2.04101,-75.75195 0.97,25.74194 0.23183,51.50392 0.42383,77.25586 l 1.0625,-0.01 c -0.313,-30.47994 0.62595,-60.94045 1.62695,-91.40039 0.96,24.56996 -0.33276,49.17053 0.99024,73.73047 0.576,-31.64194 0.43392,-63.29431 1.91992,-94.90625 0.525,13.74998 0.56592,27.50932 0.8789,41.2793 0.94,-12.07298 1.62666,-24.1553 2.22266,-36.23828 0.394,7.74898 0.75774,15.49686 1.30274,23.25586 1.32298,-9.00198 1.03106,-18.13357 1.41406,-27.18555 0.303,1.445 0.91965,4.32258 1.22265,5.76758 0.505,-2.273 1.02946,-4.53608 1.56446,-6.78906 0.687,7.33498 1.09267,14.69092 1.63867,22.04492 0.768,-8.04198 1.37331,-16.10449 2.07031,-24.14649 0.303,6.688 0.46481,13.37624 0.75781,20.07422 0.586,-7.00098 1.04138,-14.01339 1.85938,-20.98437 0.192,1.627 0.57558,4.89134 0.76758,6.52734 0.879,-1.879 1.78851,-3.73889 2.72851,-5.58789 0.242,7.69798 0.43403,15.39772 0.70703,23.0957 1.899,-10.31498 3.56521,-20.69075 4.28321,-31.17773 0.566,7.05198 1.09184,14.1133 1.83984,21.1543 1.111,-2.657 1.77653,-5.53629 3.01953,-8.11329 1.364,6.274 1.63828,12.68901 2.11328,19.08399 0.283,-2.738 0.82857,-8.20441 1.10157,-10.94141 0.232,4.334 0.36393,8.65869 0.58593,13.01367 0.394,-1.57598 0.78741,-3.15275 1.19141,-4.71875 0.768,2.889 1.54552,5.77899 2.35352,8.66797 0.141,-4.61698 0.21275,-9.24286 0.34375,-13.83984 1.22198,4.87998 2.6062,9.77928 5.24218,14.11328 1.111,-3.223 1.73739,-6.60616 2.52539,-9.91016 0.505,5.223 1.1023,10.42568 1.7793,15.63868 0.333,-5.637 0.667,-11.25607 1,-16.87305 0.354,10.39598 0.59577,20.81277 1.00977,31.21875 0.758,-9.04198 1.35323,-18.10327 1.94921,-27.15625 0.364,4.021 1.09108,12.07253 1.45508,16.10351 0.859,-6.70798 1.30441,-13.47828 1.94141,-20.19726 1.202,13.07298 1.24166,26.20757 1.84766,39.31055 0.333,-13.12398 0.37459,-26.24735 0.80859,-39.36133 0.273,2.96 0.2427,5.77906 0.5957,8.78906 0.677,-1.152 1.35378,-2.31384 2.05078,-3.46484 0.202,31.21794 -0.84859,62.45635 0.56641,93.65429 1.384,-35.82492 -1.43584,-71.78998 2.53516,-107.5039 0.748,7.69798 0.88923,15.43703 0.99023,23.16601 -0.273,38.72392 -0.0906,77.44796 -0.18164,116.17188 h 1.0918 c 0.232,-45.61492 -0.63741,-91.22932 0.39257,-136.82422 0.384,8.71898 0.8196,17.43875 1.1836,26.17773 0.354,-9.41598 0.60484,-18.83253 1.08984,-28.22851 0.828,23.20594 -0.35353,46.45321 0.98047,69.66015 0.495,-13.41696 0.33388,-26.85355 0.54688,-40.26953 0.546,2.233 1.10931,4.48482 1.69531,6.75782 0.131,-10.36598 0.23367,-20.7302 0.59765,-31.07618 0.263,8.75898 0.6971,17.50737 1.1211,26.27735 2.233,-5.799 2.5653,-12.03252 3.4043,-18.10352 0.152,25.70196 0.01,51.41478 0.0195,77.13672 h 1.08203 c 0.051,-20.20596 -0.0609,-40.41246 -0.13086,-60.60742 0.061,-11.59798 -0.0716,-23.38862 2.93945,-34.6836 0.404,19.78198 -0.13231,39.57351 0.55469,59.35547 0.798,-17.84196 2.35547,-35.63216 3.35547,-53.45312 1.424,10.67898 1.41358,21.46758 1.76758,32.22656 0.414,-8.77898 0.96995,-17.53813 1.62695,-26.28711 0.768,8.07198 1.11164,16.17535 1.55664,24.27735 0.556,-10.75998 1.24236,-21.52024 2.77734,-32.19922 0.626,10.03198 0.91852,20.11495 2.35352,30.08593 0.556,-12.72996 -0.30192,-25.70122 2.83008,-38.1582 0.556,13.74998 0.56475,27.52004 0.96875,41.29102 0.576,-13.11398 1.13314,-26.21829 2.24414,-39.28125 0.293,6.34498 0.45433,12.69947 0.73633,19.06445 0.273,-2.728 0.81879,-8.19192 1.09179,-10.91992 0.323,1.697 0.96997,5.10159 1.29297,6.80859 0.354,-4.99098 0.61624,-10.00167 0.99024,-14.97265 1.152,13.41696 1.39289,26.88286 1.83789,40.33984 0.384,-13.17398 0.5765,-26.39843 2.6875,-39.44141 0.616,10.45698 0.96029,20.92365 1.40429,31.39063 0.636,-10.16398 0.88799,-20.53987 3.95899,-30.33985 0.354,5.728 0.71826,11.44757 1.07226,17.18555 0.414,-6.04198 0.79625,-12.08325 1.28125,-18.11523 0.94,9.03198 1.29338,18.11575 1.85938,27.17773 0.253,-10.74998 0.42506,-21.4993 0.78906,-32.23828 0.445,3.344 0.69664,6.62797 1.18164,10.00195 0.414,-3.29398 0.64733,-6.66864 1.11133,-9.93164 0.242,13.73998 0.27303,27.50004 0.70703,41.25 0.748,-18.48796 1.74788,-36.95657 3.17188,-55.39453 0.556,11.74998 1.23209,23.50026 2.08007,35.24024 0.96,-8.012 1.53685,-16.07474 1.83985,-24.13672 0.293,1.728 0.87887,5.17339 1.17187,6.90039 0.354,-2.637 0.70632,-5.27463 1.07032,-7.89063 0.354,3.334 0.50639,6.58694 0.90039,9.96094 0.475,-2.96 0.60517,-6.07172 1.20117,-8.9707 0.212,7.35498 0.38394,14.70947 0.58594,22.06445 0.85898,-6.44598 1.28206,-13.02186 3.41406,-19.21484 1.616,7.60798 1.26419,15.4368 1.61719,23.17578 0.81798,-7.446 0.84784,-15.11457 3.42382,-22.22657 0.576,1.495 1.72797,4.49719 2.29297,5.99219 0.04,-4.56598 0.0115,-9.16372 0.0625,-13.7207 1.041,4.284 2.08972,8.61764 3.26172,12.89062 0.495,-3.04098 1.4757,-9.11331 1.9707,-12.15429 0.768,8.40598 0.95077,16.84331 1.38477,25.27929 0.434,-10.44598 0.47389,-20.9943 2.83789,-31.23828 0.434,7.719 0.76809,15.4368 1.12109,23.17578 1.071,-8.00098 2.27266,-15.98314 3.22266,-23.99414 0.404,5.728 0.849,11.4671 1.33398,17.20508 1.323,-3.98098 2.19352,-8.09161 3.0625,-12.18359 -0.11098,2.394 -0.20243,4.79889 -0.27343,7.21289 0.778,-0.596 1.56528,-1.18181 2.36328,-1.75781 0.152,1.84898 0.46619,5.53576 0.61719,7.38476 0.323,-4.99098 0.44503,-10.00167 0.70703,-14.97265 0.636,3.40498 1.08931,6.79742 1.69531,10.23242 1.334,-3.597 2.1728,-7.35452 3.0918,-11.0625 -0.141,5.16298 -0.24197,10.32483 -0.29297,15.50781 0.485,-0.96 0.97008,-1.90766 1.45508,-2.84766 0.596,0.909 1.19259,1.81733 1.80859,2.73633 0.081,-4.83898 0.10947,-9.68883 0.23047,-14.50781 0.162,1.525 0.47595,4.58828 0.62695,6.11328 0.697,-0.505 1.40286,-1.01062 2.13086,-1.51562 0.131,2.74798 0.2948,5.50545 0.4668,8.27343 0.13725,-2.1902 0.26268,-4.37697 0.39453,-6.5664 z" />&#10;</svg>
