<svg width="436.8" height="387.4" enable-background="new -74.447 -42.393 2692.97 682.775" version="1.1" viewBox="0 0 436.8 387.4" xml:space="preserve" xmlns="http://www.w3.org/2000/svg">
<path d="m436.8 253.1v-47.18c-0.9533-6.951-1.493-13.95-1.857-20.95-0.576 5.718-1.102 11.45-1.789 17.15-0.99-5.688-1.786-11.44-2.564-17.14-1.111 7.981-1.366 16.05-1.891 24.09-1.333-10.37-1.413-20.84-1.908-31.26-1.233 11.21-1.637 22.49-2.586 33.73-0.909-11.71-1.01-23.47-1.92-35.18-1.041 10.52-1.182 21.11-2.617 31.59-0.344-9.891-0.3845-19.79-0.3945-29.67-0.435 0.01-1.303 0.0395-1.738 0.0605-0.232 8.971-0.6052 17.95-1.242 26.91-1.364-10.42-1.12-20.96-1.666-31.43-1.061 9.396-1.547 18.84-2.244 28.27-1.829-11.36-2.414-22.84-2.717-34.32-0.394 13.75-0.5059 27.51-0.8399 41.27-0.869-9.082-1.637-18.18-2.576-27.25-0.909 7.375-1.557 14.78-2.506 22.16-1.223-11.03-1.788-22.12-2.223-33.2-0.273 11.15-0.5053 22.3-1.152 33.44-1.404-8.325-2.009-16.76-2.807-25.17-0.525 7.385-1.142 14.77-2.021 22.12-2.273-11.31-1.394-22.97-1.99-34.44-0.778 10.76-1.606 21.52-3 32.22-0.414-10.39-0.6767-20.77-0.9297-31.15-0.737 9.123-1.575 18.26-2.949 27.32-0.677-12.47-0.8391-24.95-1.121-37.44-1.091 11.07-1.8 22.18-2.891 33.25-0.808-6.678-1.555-13.34-2.252-20.01-0.596 8.982-1.233 17.97-2.182 26.93-0.273-11.43-0.4658-22.84-1.092-34.25-0.859 9.214-1.485 18.44-2.334 27.65-2.071-9.022-2.042-18.34-2.557-27.52-0.546 8.345-1.202 16.67-2 25-0.424-6.365-0.8473-12.73-1.281-19.08-2.435 8.577-2.466 17.52-3.092 26.34-1.313-16.47-1.06-33-1.615-49.49-1.485 14.43-1.557 28.94-2.092 43.41-1.162-9.052-1.849-18.17-2.859-27.23-0.788 7.335-1.323 14.69-2.223 22.02-0.253-5.637-0.4946-11.27-0.7266-16.89-0.303 2.718-0.9099 8.163-1.213 10.89-0.99-6.304-1.899-12.62-2.99-18.89-0.414 7.668-0.7364 15.35-1.109 23.04-0.414-6.698-0.6785-13.42-1.022-20.12-0.444 8.052-0.636 16.11-1.041 24.18-0.323-11.43-0.4141-22.84-0.8281-34.26-0.344 8.719-0.727 17.44-1 26.16-1.293-13.45-3.384-26.8-4.354-40.28-0.253 16.8-0.6164 33.61-1.859 50.37-0.758-17.76 0.556-35.68-2.041-53.33-0.444 10.05-0.6046 20.12-1.1 30.19-2.597-17.82 0.9694-36.31-3.729-53.82-0.9597 15.21-0.4547 30.48-1.092 45.71-0.909-13.1-1.526-26.24-2.152-39.35-0.374 15.48-0.039 31.03-1.656 46.45-0.768-21.9-1.263-43.83-3.516-65.65-0.556 21.19 0.2623 42.39-0.9297 63.57-0.818-7.426-1.1-14.9-1.392-22.36-0.697 0.475-1.386 0.9508-2.062 1.426-1.707-28.68-3.262-57.36-3.586-86.11-1 28.58 0.1309 57.19-0.5761 85.79-0.384-1.717-1.173-5.144-1.557-6.852-0.354 6.678-0.6763 13.35-1.07 20.03-2.182-15.03-0.8888-30.31-1.717-45.42-0.697 13.78-1.374 27.57-2.162 41.35-0.374-8.385-0.6167-16.78-0.9707-25.17-1.121 14.53-1.555 29.09-1.242 43.65-0.717-0.515-1.425-1.04-2.123-1.545-0.424 6.496-0.8786 13-1.475 19.5-0.687-8.062-1.092-16.14-2.022-24.18-0.687 12.76-1.869 25.5-4.203 38.08-0.919-8.618-1.95-17.2-3.051-25.79-0.677 8.345-1.555 16.67-2.676 24.97-1.121-4.536-2.01-9.144-2.92-13.72-0.535 1.03-1.042 2.061-1.547 3.102-0.939-4.92-1.728-9.829-2.93-14.67-0.424 6.395-0.7679 12.8-1.131 19.21-0.323-8.032-0.5659-16.07-0.8789-24.11-0.828 5.304-1.556 10.62-2.162 15.95-0.748-3.556-1.527-7.143-2.193-10.71-0.222 4.607-0.4936 9.193-0.6856 13.82-0.525-4.708-1-9.425-1.455-14.11-0.707 4.627-1.264 9.274-1.82 13.93-0.313-7.365-0.6257-14.72-1.01-22.07-0.839 5.062-1.474 10.15-2.121 15.24-4.708-9.032-2.96-19.54-3.688-29.29-0.242 3.011-0.9393 5.908-0.9903 8.98-0.313-1.728-0.9313-5.172-1.234-6.889-0.354 6.011-0.667 12.02-1 18.04-0.293-12.19-0.2307-24.39-0.1-36.58-0.788 0.515-1.566 1.039-2.334 1.564-0.172-1.576-0.5155-4.717-0.6875-6.293-0.748 4.971-1.354 9.95-1.94 14.95-0.131-14.79-0.3332-29.65-3.031-44.23-0.455 18.82 0.072 37.65-0.9395 56.46-0.647-27.64-0.1312-55.33-2.324-82.94-2.021 26.57-0.8288 53.3-2.719 79.9-0.768-5.516-1.464-11.05-1.373-16.63-0.475-32.17 0.858-64.34-0.668-96.48-0.839 35.69-0.2322 71.47-3.031 107.1-1.233-49.83 0.737-99.69-1-149.5-1.121 48.12 0.7876 96.28-1.818 144.4-0.404-8.719-0.8475-17.44-1.272-26.15-0.333 13.45-0.3041 26.91-0.9101 40.36-1.182-31.3 0.476-62.64-0.959-93.93-0.505 15.88-0.2737 31.77-1.264 47.64-4.193-16.19-1.415-33.18-2.84-49.68-1.051 24.9 0.404 49.84-1.041 74.73-0.485-15.14-0.2825-30.29-0.8985-45.42-0.606 15.79-1.232 31.59-2.07 47.38-0.889-22.17 0.051-44.35-0.8281-66.53-2.516 30.23-0.8987 60.57-2.182 90.82-0.606-15.79-1.032-31.6-2.062-47.37-1.788 13.2-3.698 26.46-3.465 39.83 0.121 17.03-1.97 33.94-3.324 50.88-1.051-4.334-2.171-8.678-3.232-12.99-0.273 3.344-0.7262 6.628-0.9082 9.992-1.071-3.152-2.123-6.303-3.123-9.465-0.788 2.475-1.575 4.95-2.414 7.416-0.95-7.678-1.556-15.39-2.455-23.08-0.445 8.88-1.001 17.76-1.678 26.63-2.435-8.668-2.272-17.71-2.666-26.61-0.515 10.09-1.111 20.19-2.031 30.25-2.324-16.76-0.3849-33.78-2.799-50.54-0.98 16.83-0.3926 33.73-1.1 50.58-1.192-9.729-1.718-19.52-2.91-29.24-1.051 6.991-1.798 14-2.314 21.05-0.758-13.44-1.404-26.9-2.697-40.29-0.647 13.76-0.7484 27.53-1.152 41.3-1.293-12.87-0.6568-26.05-3.799-38.67-0.919 11.52-0.8493 23.09-1.152 34.64-4.435-16.76-1.97-34.34-3.213-51.43-0.596 17.57-0.0907 35.18-1.303 52.74-4.637-23.08-0.0107-46.78-3.598-69.97-1.435 23.55 0.1217 47.17-1.07 70.74-2.687-23.14-2.314-46.43-3.213-69.67-0.899 23.55 0.182 47.13-0.748 70.68-4.021-22.98-2.931-46.44-4.174-69.65-1.081 20.65 0.4151 41.36-1.504 61.98-3.849-21.14-0.929-42.71-2.627-64.02-0.576 22.88-1.051 45.77-1.93 68.63-2.384-23.15-2.435-46.41-3.152-69.64-0.919 25.2 0.1118 50.42-0.6152 75.63-4.829-29.36-1.698-59.19-3.244-88.76-1.97 28.23-1.222 56.52-1.93 84.77-0.242-3.991-0.7277-11.97-0.9707-15.97-0.576 2.253-1.11 4.507-1.615 6.77-0.404-25.53 0.6157-51.07-0.6973-76.59-1.101 31.63 0.3839 63.3-0.8281 94.94-1.94-29.97-2.627-59.98-3.314-90-3.415 22.01 0.6878 44.58-2.949 66.61-2.101-20.75-0.8178-41.66-2.01-62.46-0.899 23.22 0.2311 46.46-0.9199 69.67-0.515-15.84-0.6959-31.8-4.131-47.34-0.374 11.38-0.4457 22.76-0.6777 34.15-1.566-15.42-2.971-30.85-3.426-46.34-0.273 9.749-0.403 19.51-0.666 29.27-0.727-2.617-1.83-5.356-2.395-7.932-0.232 3.314-0.6656 6.568-0.8066 9.912-0.333-2.96-1.052-6.042-1.223-8.961-0.242 10.74-0.4234 21.48-0.8984 32.22-0.596-17.8-0.3034-35.6-0.5254-53.4-0.606 2.223-1.172 4.445-1.707 6.678-0.212-2.95-0.6474-8.86-0.8594-11.82-0.535 12.11-1.081 24.22-2.031 36.3-0.121-7.486-0.1311-14.98-0.1621-22.46-0.758 0.535-1.495 1.083-2.213 1.639-0.152-1.839-0.4545-5.497-0.6055-7.336-0.434 5.041-0.8794 10.06-1.273 15.11-1.445-8.345-2.122-16.8-2.92-25.22-0.768 8.012-1.294 16.04-1.809 24.09-0.667-7.759-1.182-15.52-2.303-23.23-0.798 9.396-1.334 18.82-1.758 28.26-0.354-12.09-0.4856-24.19-0.8496-36.27-0.404 5.698-0.7764 11.41-1.15 17.11-0.152-2.95-0.678-6.01-0.668-8.92-0.515 1.586-1.021 3.173-1.516 4.77-2.677-23.43-1.99-47.03-2.92-70.56-0.667 23.89 0.0312 47.83-1.969 71.68-0.354-10.76-0.6073-21.52-1.072-32.27-0.333 13.12-0.3524 26.27-1.109 39.38-1.546-14.08-1.314-28.29-1.9-42.41-1.061 26.25 0.8289 52.61-2.121 78.77-0.192-8.325-0.2026-16.66-0.2226-24.97-0.687 1.132-1.354 2.284-2.01 3.436-0.242-1.657-0.7277-4.951-0.9707-6.598-0.071 10.32-0.0796 20.64-0.0996 30.97-0.505-1.384-1.515-4.164-2.01-5.559 0.01 4.546 0.0286 9.072 0.0996 13.63-0.687-1.172-1.374-2.344-2.041-3.506-0.131 1.475-0.2418 2.951-0.3438 4.436-0.303-1.02-0.5961-2.031-0.8691-3.051-1.92 2.303-3.738 4.678-5.85 6.809-1.01-5.496-1.354-11.1-1.889-16.64-1.717 7.658-2.536 15.47-3.758 23.22-0.354-9.042-0.6171-18.08-0.7891-27.13-0.849 6.789-1.232 13.69-2.848 20.37-1.465-6.335-2.628-12.75-3.699-19.15-0.455 7.961-0.8175 15.93-1.646 23.86-0.333-6.567-0.6479-13.12-0.9609-19.69-1-0.99-1.989-2.001-2.959-3.002-0.535 4.829-1.01 9.658-1.465 14.5-0.263-5.637-0.5048-11.25-0.7578-16.88-0.354 4.021-1.071 12.07-1.424 16.1-1.283-10.05-1.354-20.23-2.617-30.28-0.505 11.44-0.566 22.88-1 34.32-6.163-15.39-2.607-32.44-4.213-48.49-0.465 11.77-0.4962 23.54-0.9102 35.32-0.434-7.729-0.7481-15.46-1.162-23.18-0.273 9.729-0.4951 19.47-0.8281 29.21-0.323-8.739-0.758-17.46-1.041-26.18-0.828 4.95-1.555 9.902-2.262 14.88-0.384-12.04-0.9608-24.07-1.84-36.09-0.313 10.83-0.6151 21.67-1.494 32.48-1.889-18.52-0.3937-37.19-1.596-55.75-0.505 15.13-0.2737 30.28-0.9707 45.41-0.424-8.385-0.5364-16.79-0.8184-25.18-0.556 5.839-1.181 11.68-1.777 17.52-1.909-22.64-0.071-45.37-1.334-68.04-1.435 11.36-1.606 22.79-1.879 34.22-0.697-3.344-1.375-6.689-2.072-10.02-0.434 7.072-0.8575 14.14-1.271 21.21-0.899-10.06-1.386-20.16-1.891-30.25-0.434 5.688-0.838 11.38-1.252 17.07-0.445-18.33-0.2019-36.66-0.1719-54.99l-1.111 0.01c-0.293 35.51 0.7674 71.04-0.5566 106.5-0.748-19-1.545-38.03-1.393-57.05-0.03-14.59 0.3628-29.27-1.658-43.77-0.546 9.982-0.9799 19.97-1.92 29.94-0.424-4.304-0.8269-8.607-1.211-12.9-2.596 32.28 0.3838 64.73-2.617 96.97-0.556-9.426-0.8494-18.85-1.152-28.28-0.384 3.001-1.101 5.9-1.344 8.951-0.293-6.688-0.5358-13.38-0.7988-20.05-0.263 18.9-3.06 37.61-4.131 56.47-0.111-2.91-0.3138-5.851-0.3438-8.74-0.899-0.051-1.787-0.1011-2.666-0.1621-0.1448 0.7992-0.2773 1.602-0.416 2.402l-0.0606 37.25c0.188-3.123 0.3805-6.247 0.5644-9.365 0.475 5.425 0.9694 10.86 1.484 16.31 1.303-3.263 2.182-6.667 3.172-10.02-0.141 16.1 0.4144 32.22 2.152 48.24 0.697-12.11 0.9101-24.25 1.244-36.37 2.455 18.05 2.728 36.27 3.193 54.46 0.384-12.27 0.4431-24.55 0.4531-36.81l1-0.0508c0.061 21.99-0.1301 44-0.0391 65.99 0.505-1.404 1.515-4.203 2.021-5.607-0.04 14.05-0.0606 28.11 0.5664 42.15 2.415-27.53 0.7979-55.18 1.879-82.76 1.071 14.77 1.716 29.55 2.07 44.36 0.434-5.708 0.8483-11.41 1.322-17.08 0.273 16.47 0.0711 32.96 0.8281 49.42 0.616-20.19 1.102-40.38 1.83-60.56 0.414 3.97 0.8267 7.96 1.262 11.95 0.253-10.4 0.5569-20.78 0.9199-31.17 2.142 25.36 1.323 50.82 1.404 76.24l1.121 0.01c0.536-24.73-1.89-49.71 2.312-74.22 0.475 7.709 0.889 15.44 1.293 23.17 0.535-10.76 0.9908-21.53 2.133-32.26 0.394 16.83 0.0609 33.66 0.8789 50.48 0.566-17.83 0.1622-35.68 0.9902-53.51 0.414 8.396 0.5769 16.79 0.9199 25.21 0.727-7.304 1.484-14.6 2.494-21.87 0.667 1.111 1.344 2.234 2.041 3.355 0.212-9.951 0.5148-19.91 1.758-29.79 0.798 23.5-0.4453 47.04 0.9297 70.54 1.01-26.91-0.3119-53.87 0.7891-80.78 0.616 7.739 1.081 15.49 1.869 23.22 0.535-4.031 1.09-8.063 1.656-12.07 0.859 7.001 1.162 14.05 1.748 21.11 0.273-5.678 0.5356-11.34 0.8496-17 0.839 8.668 1.465 17.36 2.182 26.04 0.192-13.09 0.0901-26.24 1.787-39.25 0.515 9.689 0.6172 19.4 0.9102 29.11 3.455-9.941 3.576-20.52 4.152-30.89 0.182 1.142 0.3522 2.303 0.5742 3.465 1.404 0.212 2.83 0.3639 4.244 0.5859 0.01 1.647 0.0293 4.941 0.0293 6.588 1.313-5.072 2.648-10.14 4.285-15.12 0.879 3.647 1.605 7.304 2.383 11 0.081-1.657 0.254-4.97 0.334-6.627 0.556 1.556 1.122 3.112 1.697 4.668 0.192-1.707 0.5951-5.113 0.7871-6.82 0.232 2.617 0.4748 5.244 0.7168 7.881 0.253-1.404 0.748-4.213 1-5.617 0.394 1.374 1.192 4.113 1.596 5.477 0.172-4.263 0.3737-8.528 0.5957-12.79 0.374 4.001 0.7581 8.003 1.162 12.02 0.293-3.314 0.3953-6.689 0.7793-9.973 2.273 10.96 3.93 22 4.344 33.22 0-8.729 0.5852-17.44 0.6562-26.15 0.687 13.78 1.859 27.55 3.324 41.28 0.293-9.103 0.6272-18.19 1.203-27.28 2.041 17.09 0.8777 34.38 1.555 51.55 0.667-9.062 1.304-18.12 2.143-27.17 0.677 6.981 1.343 13.98 1.949 20.98 0.636-7.375 1.204-14.73 2.225-22.05 0.566 15.62-0.0104 31.34 2.516 46.83 1.96-12.12 2.009-24.42 2.201-36.65 0.344 2.738 1.019 8.204 1.363 10.94 0.404-4.668 0.7071-9.344 1.121-13.99 0.333 15.96 0.2541 31.94 0.2031 47.92l1.102 0.01c-0.03-20.36-0.2937-40.72 0.3223-61.06 0.94 12.43 2.405 24.8 3.264 37.23 0.101-17.85 1.99-35.59 3.172-53.37 0.313 12.33 0.4549 24.66 1.172 36.99 0.616-1.081 1.233-2.142 1.869-3.213 0.354 1.424 0.7271 2.86 1.121 4.295 0.131-7.991 0.3835-15.97 0.6055-23.95 0.313 8.719 0.7983 17.43 1.152 26.16 1.435-14.41 1.474-28.9 1.949-43.35 0.525 10.77 0.7774 21.59 2.191 32.31 1.93-15.07 1.133-30.31 1.9-45.45 0.273 8.062 0.656 16.11 0.959 24.18 0.182-8.729 0.788-17.44 1.041-26.17 0.849 20.52 0.0205 41.06 0.9805 61.58 2.182-19.61 1.384-39.37 1.445-59.06l0.9902-0.0605c0.03 18.4-0.082 36.88 2.666 55.11 0.616-15.81 0.4352-31.65 1.951-47.41 2.596 16.85 0.6052 33.97 2.656 50.87 2.223-23.31-0.1213-46.76 1.303-70.1 0.374 8.719 0.7981 17.43 1.162 26.16 0.404-6.365 0.7374-12.75 1.152-19.12 0.303 16.14 0.1204 32.3 0.9394 48.43 1.899-15.35 0.99-30.89 2.92-46.24 2.394 22.08 0.839 44.31 2.041 66.46 0.929-22.54-0.0391-45.11 0.9199-67.65 0.435 4.668 0.6959 9.324 1.09 14.01 0.344-7.011 0.6783-14.02 1.072-21.01 1.111 21.1-1 42.4 2.051 63.4 0.717-17.6-0.2118-35.32 2.617-52.77 1.233 16.26 0.625 32.59 1.373 48.88 0.505-14.43 0.4239-28.86 0.5859-43.29 0.546 2.212 1.111 4.425 1.707 6.668 0.222-5.637 0.4861-11.26 0.7891-16.87 0.455 22.53 0.5852 45.07 1.949 67.58 0.475-23.56 0.0807-47.19 3.223-70.6 0.596 22.54-0.3124 45.09 0.8496 67.61 0.647-24.58 1.889-49.13 3.041-73.69 1.172 21.19 1.192 42.41 2.041 63.61 0.798-19.65-0.3436-39.35 1.273-58.97 4.041 16.29 1.383 33.33 2.666 49.92 2.091-17.81 0.8291-35.79 2.83-53.61 1.414 17.8 1.627 35.65 2.162 53.5 0.94-17.51 1.161-35.06 2.838-52.52 0.94 17.25 0.364 34.54 1.707 51.77 2.324-18.46 1.668-37.15 2.547-55.7 0.667 17.8 1.233 35.61 2.041 53.41 0.566-18.14 0.929-36.29 2.041-54.4 0.283 12.24 0.4934 24.5 1.564 36.71 1.313-11.23 1.516-22.58 3.436-33.74 0.455 10.75 0.6357 21.51 1.01 32.28 0.818-9.365 1.83-18.71 3.143-28.02 0.505 7.314 1.01 14.64 1.688 21.94 0.737-9.093 1.424-18.19 3.172-27.16 0.697 8.668 1.121 17.38 2.344 26 0.273-8.325 0.3637-16.65 0.5957-24.96 1.101 5.294 2.304 10.56 3.385 15.85 0.576-6.597 1.22-13.17 1.857-19.76 0.667 9.012 1.324 18.06 3.162 26.94 0.293-8.719 0.4851-17.43 0.7481-26.14 0.667 4.657 1.244 9.316 1.961 13.99 1.525-3.435 2.686-7.022 3.879-10.58-0.212 11.64-0.1601 23.29 0.1739 34.94 0.647-2.96 0.8079-6.082 1.586-8.992 0.111 16.46-0.031 32.92 0.6152 49.37 0.788-14.14 2.092-28.25 3.295-42.36 0.727 21.14-0.9415 42.41 1.726 63.46 0.445-4.637 0.808-9.295 1.293-13.92 0.232 8.365 0.4245 16.72 0.6972 25.09 0.384-7.032 0.7889-14.06 1.213-21.1 0.869 16.17 1.051 32.4 2.879 48.51 1.394-27.94-0.4341-55.94 1.172-83.87 1.061 26.91-0.4662 53.87 0.9278 80.78 0.697-19.18 0.072-38.39 1.082-57.56 0.879 19.88-1.019 39.99 2.719 59.67 0.525-4.375 0.9286-8.778 1.475-13.12 0.172 12.74 0.2323 25.49 0.6973 38.24 3.415-33.88 0.1904-67.99 2.109-101.9 0.566 17.49 0.2128 35.01 1.092 52.49 0.536-16.82 0.121-33.66 1-50.47 0.909 36.85 0.091 73.73 0.3222 110.6l1.102-0.01c-0.101-18.63-0.2838-37.26 0.6152-55.87 0.455-16.56-0.151-33.18 1.668-49.68 1.293 19.2-0.3949 38.52 2.08 57.65 1.647-29.95-0.2207-59.97 1.072-89.94 3.374 19.98 1.565 40.36 4.303 60.38 0.374-16.1 0.1532-32.23 0.9512-48.32 1.798 14.75 1.313 29.66 2 44.49 2.485-18.44 0.5564-37.15 2.98-55.59 0.465 6.436 0.8073 12.86 1.322 19.31 1.859-5.9 2.274-12.1 2.961-18.22 0.212 3.97 0.4441 7.942 0.7071 11.92 0.828-9.113 1.879-18.2 3.475-27.22 0.818 6.688 1.12 13.42 1.646 20.13 0.657-8.032 1.494-16.04 2.828-23.99 0.283 1.95 0.8391 5.849 1.121 7.809 0.677-3.607 1.414-7.193 2.162-10.77 0.111 2.637 0.2332 5.285 0.3652 7.932 0.909-0.364 1.829-0.728 2.768-1.082 0.414 1.273 0.8392 2.547 1.283 3.83 1.041-3.142 1.798-6.375 2.738-9.557 0.556 3.89 1.13 7.788 1.777 11.68 0.323-5.658 0.657-11.31 1-16.96 0.364 5.334 0.7689 10.68 1.213 16.02 0.293-4.688 0.4932-9.386 0.8262-14.05 0.616 3.051 0.7086 5.942 1.477 9.053 0.657-2.93 0.9277-5.983 1.676-8.893 1.061 3.243 2 6.456 3.051 9.719 0.626-2.93 0.6479-6.041 1.506-8.91 1.849 7.607 2.777 15.38 3.697 23.15 0.303-3.991 0.636-7.972 1-11.95 0.041 7.072 0.052 14.15 0.082 21.25 0.768-0.434 1.556-0.8475 2.354-1.271 0.687 7.102 1.06 14.2 1.615 21.33 0.222-14.8 0.1722-29.61 0.8692-44.39 0.96 20.83-0.7782 41.8 1.758 62.55 0.424-6.021 0.7696-12.04 1.184-18.05 0.465 3.344 0.6564 6.605 1.191 9.98 0.303-7.719 0.5652-15.43 0.9492-23.13 0.333 11.43 0.4659 22.86 0.9609 34.29 0.374-9.749 0.5656-19.5 1.02-29.24 0.414 14.12 0.4145 28.27 0.6875 42.4 0.525-2.667 1.06-5.324 1.615-7.971 0.172 14.6 0.092 29.21 0.072 43.81l1.08 0.0117c0.222-28.78-0.6166-57.58 0.4844-86.34 0.414 5.001 0.6363 9.992 1.031 15.02 0.394-7.032 0.7693-14.05 1.234-21.07 0.444 18.5-0.062 37.01 0.8477 55.49 0.687-17.83 1.193-35.66 1.951-53.49 0.828 6.991 1.455 13.98 2.182 20.99 0.303-4.304 0.6248-8.598 0.9688-12.89 0.354 7.719 0.6578 15.44 1.092 23.15 0.495-18.5-0.051-37.03 0.9082-55.51 1.192 29.95-0.576 59.94 1.041 89.88 1.01-25.24-0.4333-50.5 0.9707-75.72 0.172 4.799 0.1712 9.589 0.3222 14.41 0.707-0.566 1.424-1.122 2.162-1.688 0.121 7.527 0.2645 15.04 0.4765 22.58 0.323-10.21 0.5341-20.45 2.08-30.56 1.829 8.699 1.454 17.68 2.06 26.52 0.758-16.49 1.88-32.96 3.072-49.41 0.354 12.39 0.2223 24.85 2.031 37.15 0.364-15.11 0.5132-30.25 1.988-45.3 0.616 19.52 0.071 39.06 0.7481 58.58 1.687-18.47 2.708-36.98 3.334-55.5 0.364 16.48 0.1636 32.98 0.8906 49.45 0.384-11.5 0.5343-23 1.322-34.47 2.061 10.67 2.284 21.56 2.789 32.4 1.768-18.11 1.616-36.34 3.061-54.46 0.677 21.21-0.1711 42.43 0.9199 63.64 3.223-22.7-0.091-45.81 3.152-68.53 0.525 19.15-0.1322 38.34 0.9688 57.5 3.152-16.33 2.07-33.06 2.939-49.57 0.788 18.44-0.4429 37.03 2.082 55.36 0.465-16.13-0.2219-32.36 1.869-48.39 1.212 16.5 1.424 33.05 2.191 49.56 0.404-16.81-0.232-33.69 1.627-50.44 1.394 13.72 1.879 27.5 2.293 41.28 0.414-13.8 0.4854-27.61 1.111-41.4 3.203 13.24 2.384 26.96 2.98 40.45 0.354-14.15 0.3635-28.39 2.94-42.36 0.546 10.07 0.6465 20.15 1.06 30.25 1.041-14.11 2.052-28.22 3.072-42.32 0.333 10.4 0.5658 20.79 1.06 31.19 0.182-4.961 0.2009-9.931 0.3829-14.87 0.626 1.172 1.265 2.355 1.922 3.537 0.343-3.243 0.3527-6.598 0.8477-9.811 0.253 11.75 0.2725 23.5 0.6465 35.25 0.596-15.14 1.557-30.27 3.365-45.32 0.273 10.09 0.4237 20.2 0.8984 30.29 2.051-11.35 2.06-22.93 3.111-34.38 0.293 14.47 0.3145 28.93 0.7695 43.4 1.293-14.45 2.585-28.89 3.293-43.38 0.232 14.47 0.1824 28.94 0.8594 43.39 2.445-11.94 2.465-24.19 2.98-36.3 0.404 7.395 0.8078 14.79 1.344 22.2 1.192-6.688 2.122-13.41 2.98-20.13 0.232 7.739 0.5143 15.49 0.9493 23.24 1.111-6.112 1.991-12.28 3.416-18.33 0.313 3.011 0.9387 9.032 1.262 12.04 0.95-5.678 1.98-11.34 3.041-17 0.768 4.344 1.506 8.719 2.436 13.05 0.839-4.971 1.323-10 2.031-14.99 0.232 6.658 0.3733 13.31 0.6563 19.97 1.071-5.637 2-11.31 3.102-16.94 0.374 4.647 0.6488 9.273 1.053 13.94 1.142-6.961 2.271-13.92 3.271-20.9 0.1152 12.91 0.4066 25.84 1.488 38.71z"/>
</svg>
