<?xml version="1.0" encoding="UTF-8" standalone="no"?>
<svg
   version="1.1"
   id="Layer_1"
   x="0px"
   y="0px"
   viewBox="0 0 436.8187 387.3933"
   enable-background="new -74.447 -42.393 2692.97 682.775"
   xml:space="preserve"
   sodipodi:docname="soundwave3.svg"
   inkscape:version="1.3 (0e150ed6c4, 2023-07-21)"
   width="436.8187"
   height="387.39331"
   xmlns:inkscape="http://www.inkscape.org/namespaces/inkscape"
   xmlns:sodipodi="http://sodipodi.sourceforge.net/DTD/sodipodi-0.dtd"
   xmlns="http://www.w3.org/2000/svg"
   xmlns:svg="http://www.w3.org/2000/svg"><defs
   id="defs1" /><sodipodi:namedview
   id="namedview1"
   pagecolor="#ffffff"
   bordercolor="#000000"
   borderopacity="0.25"
   inkscape:showpageshadow="2"
   inkscape:pageopacity="0.0"
   inkscape:pagecheckerboard="0"
   inkscape:deskcolor="#d1d1d1"
   inkscape:zoom="0.91126155"
   inkscape:cx="-146.5002"
   inkscape:cy="303.42551"
   inkscape:window-width="1920"
   inkscape:window-height="974"
   inkscape:window-x="-11"
   inkscape:window-y="-11"
   inkscape:window-maximized="1"
   inkscape:current-layer="Layer_1" />&#10;<path
   id="path3"
   d="m 436.81869,253.08012 v -47.18164 c -0.9533,-6.95114 -1.4933,-13.94681 -1.8574,-20.94922 -0.576,5.718 -1.1021,11.4463 -1.7891,17.1543 -0.99,-5.688 -1.7864,-11.43556 -2.5644,-17.14453 -1.111,7.98097 -1.3656,16.05278 -1.8906,24.09375 -1.333,-10.36597 -1.4132,-20.84185 -1.9082,-31.25782 -1.233,11.21397 -1.637,22.48941 -2.586,33.73438 -0.909,-11.70897 -1.0099,-23.46879 -1.9199,-35.17773 -1.041,10.51697 -1.1822,21.11482 -2.6172,31.59179 -0.344,-9.89097 -0.3845,-19.7919 -0.3945,-29.67187 -0.435,0.01 -1.3033,0.0395 -1.7383,0.0605 -0.232,8.971 -0.6052,17.9531 -1.2422,26.91407 -1.364,-10.41597 -1.12,-20.96372 -1.666,-31.42969 -1.061,9.39597 -1.5472,18.84161 -2.2442,28.26758 -1.8287,-11.35597 -2.4137,-22.84335 -2.7167,-34.32032 -0.394,13.74997 -0.5059,27.51152 -0.8399,41.27149 -0.869,-9.08197 -1.6372,-18.17508 -2.5762,-27.24805 -0.909,7.375 -1.5568,14.78128 -2.5058,22.15625 -1.223,-11.03197 -1.7877,-22.11625 -2.2227,-33.19922 -0.273,11.15397 -0.5053,22.29744 -1.1523,33.44141 -1.404,-8.32497 -2.0087,-16.76102 -2.8067,-25.16602 -0.525,7.385 -1.1424,14.77027 -2.0214,22.11524 -2.273,-11.31497 -1.3943,-22.97444 -1.9903,-34.44141 -0.778,10.75997 -1.606,21.51978 -3,32.21875 -0.414,-10.38597 -0.6767,-20.77347 -0.9297,-31.14844 -0.737,9.123 -1.5752,18.25639 -2.9492,27.31836 -0.677,-12.46694 -0.8391,-24.95443 -1.1211,-37.4414 -1.091,11.07297 -1.7996,22.17703 -2.8906,33.25 -0.808,-6.678 -1.555,-13.3357 -2.252,-20.01367 -0.596,8.98197 -1.2326,17.97262 -2.1816,26.93359 -0.273,-11.42597 -0.4658,-22.84208 -1.0918,-34.24805 -0.859,9.21397 -1.485,18.43642 -2.334,27.65039 -2.071,-9.02197 -2.0416,-18.33656 -2.5566,-27.51953 -0.546,8.34497 -1.202,16.6711 -2,24.9961 -0.424,-6.365 -0.8473,-12.72999 -1.2813,-19.08399 -2.435,8.57697 -2.4658,17.51792 -3.0918,26.33789 -1.313,-16.46794 -1.0602,-32.99617 -1.6152,-49.49414 -1.485,14.42697 -1.5568,28.93517 -2.0918,43.41211 -1.162,-9.05197 -1.8494,-18.16654 -2.8594,-27.22851 -0.788,7.33497 -1.3226,14.69165 -2.2226,22.01562 -0.253,-5.63697 -0.4946,-11.26558 -0.7266,-16.89258 -0.303,2.718 -0.9099,8.16263 -1.2129,10.89063 -0.99,-6.304 -1.8992,-12.61961 -2.9902,-18.89258 -0.414,7.66797 -0.7364,15.34616 -1.1094,23.03516 -0.414,-6.698 -0.6785,-13.41727 -1.0215,-20.11524 -0.444,8.05197 -0.636,16.11381 -1.041,24.17578 -0.323,-11.42597 -0.4141,-22.84184 -0.8281,-34.25781 -0.344,8.71897 -0.727,17.43828 -1,26.15625 -1.293,-13.44697 -3.3835,-26.80428 -4.3535,-40.28125 -0.253,16.80094 -0.6164,33.61208 -1.8594,50.37305 -0.758,-17.76097 0.556,-35.68209 -2.041,-53.33203 -0.444,10.05197 -0.6046,20.12453 -1.0996,30.1875 -2.597,-17.82197 0.9694,-36.31042 -3.7286,-53.81836 -0.9597,15.21494 -0.4547,30.48106 -1.0917,45.70703 -0.909,-13.10397 -1.5264,-26.2376 -2.1524,-39.35157 -0.374,15.47797 -0.039,31.02619 -1.6562,46.45313 -0.768,-21.90294 -1.2627,-43.8255 -3.5157,-65.64844 -0.556,21.18594 0.2623,42.39242 -0.9297,63.56836 -0.818,-7.42597 -1.0995,-14.9034 -1.3925,-22.35937 -0.697,0.475 -1.3855,0.95078 -2.0625,1.42578 -1.707,-28.68191 -3.262,-57.36451 -3.586,-86.10742 -1,28.58091 0.1309,57.19401 -0.5761,85.79492 -0.384,-1.717 -1.1727,-5.14359 -1.5567,-6.85156 -0.354,6.67797 -0.6763,13.34739 -1.0703,20.02539 -2.182,-15.03297 -0.8888,-30.30989 -1.7168,-45.42383 -0.697,13.77994 -1.3741,27.57159 -2.1621,41.35156 -0.374,-8.38497 -0.6167,-16.78102 -0.9707,-25.16602 -1.121,14.52797 -1.5552,29.08536 -1.2422,43.6543 -0.717,-0.515 -1.425,-1.03992 -2.123,-1.54492 -0.424,6.49597 -0.8786,13.00105 -1.4746,19.49805 -0.687,-8.062 -1.0915,-16.14381 -2.0215,-24.17578 -0.687,12.75994 -1.8692,25.50015 -4.2032,38.07812 -0.919,-8.61797 -1.9497,-17.205 -3.0507,-25.79297 -0.677,8.34497 -1.5548,16.67064 -2.6758,24.97461 -1.121,-4.53597 -2.0099,-9.14373 -2.9199,-13.7207 -0.535,1.03 -1.0419,2.06056 -1.5469,3.10156 -0.939,-4.91997 -1.7277,-9.82897 -2.9297,-14.66797 -0.424,6.395 -0.7679,12.79911 -1.1309,19.20508 -0.323,-8.03197 -0.5659,-16.0735 -0.8789,-24.10547 -0.828,5.304 -1.5561,10.61813 -2.1621,15.95313 -0.748,-3.556 -1.5273,-7.14299 -2.1933,-10.70899 -0.222,4.607 -0.4936,9.19334 -0.6856,13.82031 -0.525,-4.70797 -1.0001,-9.42528 -1.4551,-14.11328 -0.707,4.627 -1.2643,9.27367 -1.8203,13.93164 -0.313,-7.36497 -0.6257,-14.71922 -1.0097,-22.07422 -0.839,5.062 -1.4741,10.15215 -2.1211,15.24415 -4.708,-9.032 -2.9595,-19.53814 -3.6875,-29.28711 -0.242,3.01097 -0.9393,5.90849 -0.9903,8.98046 -0.313,-1.72797 -0.9313,-5.17167 -1.2343,-6.88867 -0.354,6.011 -0.667,12.021 -1,18.04297 -0.293,-12.19397 -0.2307,-24.38706 -0.1,-36.58203 -0.788,0.515 -1.5659,1.03945 -2.3339,1.56445 -0.172,-1.57597 -0.5155,-4.71697 -0.6875,-6.29297 -0.748,4.971 -1.3535,9.95018 -1.9395,14.95118 -0.131,-14.79097 -0.3332,-29.65153 -3.0312,-44.23047 -0.455,18.82194 0.072,37.6539 -0.9395,56.46484 -0.647,-27.64191 -0.1312,-55.33461 -2.3242,-82.93555 -2.021,26.57094 -0.8288,53.30339 -2.7188,79.9043 -0.768,-5.51597 -1.464,-11.05293 -1.373,-16.6289 -0.475,-32.16791 0.858,-64.34452 -0.668,-96.48243 -0.839,35.69391 -0.2322,71.4672 -3.0312,107.08008 -1.233,-49.82785 0.737,-99.69487 -1,-149.51172 -1.121,48.11988 0.7876,96.28122 -1.8184,144.3711 -0.404,-8.71897 -0.8475,-17.43852 -1.2715,-26.14649 -0.333,13.44697 -0.3041,26.91436 -0.9101,40.36133 -1.182,-31.29891 0.476,-62.63885 -0.959,-93.92773 -0.505,15.88194 -0.2737,31.77356 -1.2637,47.64453 -4.193,-16.19497 -1.4148,-33.17784 -2.8398,-49.67578 -1.051,24.90391 0.404,49.83948 -1.041,74.73242 -0.485,-15.14397 -0.2825,-30.28989 -0.8985,-45.42383 -0.606,15.79094 -1.2323,31.59187 -2.0703,47.38281 -0.889,-22.16594 0.051,-44.3514 -0.8281,-66.52734 -2.516,30.22791 -0.8987,60.56631 -2.1817,90.82422 -0.606,-15.79097 -1.0325,-31.60113 -2.0625,-47.3711 -1.788,13.20397 -3.6978,26.45921 -3.4648,39.82618 0.121,17.03394 -1.9702,33.93501 -3.3242,50.87695 -1.051,-4.334 -2.1714,-8.67819 -3.2324,-12.99219 -0.273,3.344 -0.7262,6.62819 -0.9082,9.99219 -1.071,-3.152 -2.1231,-6.30285 -3.1231,-9.46485 -0.788,2.475 -1.5751,4.95002 -2.4141,7.41602 -0.95,-7.67797 -1.556,-15.3882 -2.455,-23.07617 -0.445,8.87997 -1.0008,17.76089 -1.6778,26.63086 -2.435,-8.66797 -2.272,-17.71036 -2.666,-26.61133 -0.515,10.09297 -1.1112,20.18608 -2.0312,30.24805 -2.324,-16.76097 -0.3849,-33.78422 -2.7989,-50.53516 -0.98,16.83094 -0.3926,33.72523 -1.0996,50.57617 -1.192,-9.72897 -1.7181,-19.51931 -2.9101,-29.23828 -1.051,6.99097 -1.7985,14.00372 -2.3145,21.05469 -0.758,-13.43697 -1.4042,-26.89505 -2.6972,-40.29102 -0.647,13.75997 -0.7484,27.52984 -1.1524,41.30078 -1.293,-12.87094 -0.6568,-26.05488 -3.79882,-38.67382 -0.919,11.51694 -0.84934,23.09463 -1.15234,34.64257 -4.435,-16.76094 -1.96989,-34.33965 -3.21289,-51.43359 -0.596,17.56894 -0.0907,35.17934 -1.30274,52.73828 -4.63697,-23.08494 -0.0107,-46.77767 -3.59765,-69.97461 -1.435,23.54994 0.12168,47.17125 -1.07032,70.74219 -2.68697,-23.13594 -2.31389,-46.43301 -3.21289,-69.66992 -0.899,23.54991 0.18196,47.12975 -0.74804,70.67969 -4.021,-22.98394 -2.93083,-46.44253 -4.17383,-69.64844 -1.081,20.64994 0.41509,41.36053 -1.50391,61.98047 -3.84897,-21.14494 -0.92895,-42.71455 -2.62695,-64.02149 -0.576,22.88294 -1.05069,45.76597 -1.92969,68.62891 -2.384,-23.14594 -2.43534,-46.41469 -3.15234,-69.64063 -0.919,25.19694 0.11176,50.42495 -0.61524,75.63086 -4.82897,-29.35891 -1.69814,-59.19276 -3.24414,-88.76367 -1.97,28.22691 -1.22169,56.51653 -1.92969,84.77344 -0.24197,-3.991 -0.7277,-11.97361 -0.9707,-15.97461 -0.576,2.253 -1.11023,4.50653 -1.61523,6.76953 -0.404,-25.52991 0.61573,-51.06993 -0.69727,-76.58984 -1.101,31.63191 0.38388,63.29559 -0.82812,94.9375 -1.94,-29.97491 -2.62746,-59.98214 -3.31446,-89.99805 -3.41497,22.01394 0.68778,44.57546 -2.94922,66.60937 -2.10097,-20.75091 -0.81776,-41.65509 -2.00976,-62.45703 -0.899,23.21594 0.23108,46.46299 -0.91992,69.66993 -0.515,-15.84097 -0.69589,-31.80386 -4.13086,-47.3418 -0.374,11.37597 -0.44574,22.76247 -0.67774,34.14844 -1.56597,-15.41697 -2.97078,-30.85386 -3.42578,-46.3418 -0.273,9.74897 -0.40301,19.50861 -0.66601,29.26758 -0.727,-2.617 -1.82953,-5.35567 -2.39453,-7.93164 -0.232,3.31397 -0.66565,6.56811 -0.80665,9.91211 -0.33297,-2.96 -1.05165,-6.04194 -1.22265,-8.96094 -0.242,10.73897 -0.42344,21.47783 -0.89844,32.2168 -0.596,-17.80097 -0.30339,-35.60141 -0.52539,-53.40235 -0.606,2.223 -1.17203,4.44474 -1.70703,6.67774 -0.212,-2.95 -0.64738,-8.86032 -0.85938,-11.82032 -0.535,12.11297 -1.08125,24.21586 -2.03125,36.29883 -0.121,-7.48597 -0.13111,-14.98301 -0.16211,-22.45898 -0.75797,0.535 -1.49489,1.08267 -2.21289,1.63867 -0.152,-1.839 -0.45446,-5.49694 -0.60546,-7.33594 -0.434,5.041 -0.87944,10.06231 -1.27344,15.11328 -1.445,-8.34497 -2.12192,-16.80082 -2.91992,-25.21679 -0.768,8.01197 -1.2936,16.04396 -1.8086,24.08593 -0.667,-7.75897 -1.18173,-15.51759 -2.30273,-23.22656 -0.798,9.39597 -1.33381,18.82184 -1.75781,28.25781 -0.354,-12.09294 -0.48561,-24.18656 -0.84961,-36.26953 -0.404,5.698 -0.77639,11.40531 -1.15039,17.11328 -0.152,-2.94997 -0.67797,-6.00992 -0.66797,-8.91992 -0.515,1.586 -1.02063,3.17253 -1.51563,4.76953 -2.677,-23.42891 -1.98992,-47.03063 -2.91992,-70.56054 -0.667,23.89291 0.0312,47.82677 -1.96875,71.67968 -0.354,-10.75997 -0.60727,-21.51763 -1.07227,-32.26757 -0.333,13.12394 -0.35237,26.26791 -1.10937,39.38085 -1.546,-14.08294 -1.31439,-28.28816 -1.90039,-42.4121 -1.061,26.24691 0.8289,52.60557 -2.1211,78.77148 -0.19197,-8.32497 -0.20265,-16.66064 -0.22265,-24.97461 -0.687,1.132 -1.35377,2.28355 -2.00977,3.43555 -0.242,-1.657 -0.7277,-4.95066 -0.9707,-6.59766 -0.071,10.32497 -0.0796,20.64183 -0.0996,30.9668 -0.505,-1.384 -1.51477,-4.1636 -2.00977,-5.5586 0.01,4.546 0.0286,9.07194 0.0996,13.62891 -0.68697,-1.172 -1.37401,-2.34386 -2.04101,-3.50586 -0.131,1.475 -0.24175,2.95055 -0.34375,4.43555 -0.303,-1.02 -0.59614,-2.03078 -0.86914,-3.05078 -1.92,2.30297 -3.73761,4.67759 -5.84961,6.80859 -1.01,-5.49597 -1.35367,-11.1027 -1.88867,-16.63867 -1.717,7.65797 -2.53582,15.4688 -3.75782,23.2168 -0.354,-9.042 -0.61706,-18.08499 -0.78906,-27.12696 -0.849,6.789 -1.23168,13.68922 -2.84765,20.36719 -1.465,-6.33497 -2.62822,-12.7493 -3.69922,-19.1543 -0.455,7.961 -0.81749,15.93036 -1.64649,23.86133 -0.333,-6.56697 -0.64794,-13.12248 -0.96094,-19.68945 -0.99997,-0.99 -1.98898,-2.00096 -2.95898,-3.00196 -0.535,4.829 -1.00984,9.65808 -1.46484,14.49805 -0.263,-5.63697 -0.50482,-11.25386 -0.75782,-16.88086 -0.354,4.021 -1.07082,12.07252 -1.42382,16.10352 -1.283,-10.05197 -1.35419,-20.22733 -2.61719,-30.2793 -0.505,11.43597 -0.566,22.88337 -1,34.32031 -6.163,-15.38694 -2.60689,-32.44017 -4.21289,-48.49414 -0.465,11.76997 -0.49616,23.54035 -0.91016,35.32032 -0.434,-7.729 -0.74811,-15.45679 -1.16211,-23.17579 -0.273,9.72897 -0.49512,19.46902 -0.82812,29.20899 -0.323,-8.73897 -0.75802,-17.45874 -1.04102,-26.17774 -0.828,4.95 -1.55472,9.90182 -2.26172,14.88282 -0.384,-12.04297 -0.96084,-24.07495 -1.83984,-36.08789 -0.313,10.82997 -0.61514,21.67052 -1.49414,32.48046 -1.889,-18.51894 -0.39373,-37.1891 -1.5957,-55.74804 -0.505,15.13394 -0.27371,30.27714 -0.97071,45.41211 -0.424,-8.38497 -0.53636,-16.79081 -0.81836,-25.17578 -0.556,5.83897 -1.18134,11.6786 -1.77734,17.51757 -1.909,-22.64091 -0.071,-45.37205 -1.33399,-68.04296 -1.43497,11.35594 -1.6059,22.79373 -1.8789,34.2207 -0.697,-3.344 -1.37527,-6.68944 -2.07227,-10.02344 -0.434,7.07197 -0.85748,14.13506 -1.27148,21.20703 -0.899,-10.06197 -1.38563,-20.15507 -1.89063,-30.24804 -0.434,5.68797 -0.83795,11.37624 -1.25195,17.07421 -0.445,-18.32694 -0.20187,-36.66329 -0.17187,-54.99023 l -1.11133,0.01 c -0.293,35.51188 0.76736,71.04427 -0.55664,106.53515 -0.748,-19.00394 -1.54458,-38.02684 -1.39258,-57.05078 -0.03,-14.58894 0.36277,-29.26961 -1.6582,-43.76758 -0.546,9.98197 -0.97993,19.97358 -1.91993,29.93555 -0.424,-4.304 -0.82693,-8.60742 -1.21093,-12.90039 -2.596,32.27891 0.38381,64.72984 -2.61719,96.96875 -0.556,-9.42597 -0.84935,-18.85333 -1.15235,-28.2793 -0.38397,3.001 -1.10075,5.9002 -1.34375,8.95117 -0.29297,-6.68797 -0.53582,-13.37671 -0.79882,-20.05468 -0.263,18.90294 -3.05986,37.61485 -4.13086,56.46679 -0.111,-2.90997 -0.31375,-5.85123 -0.34375,-8.74023 -0.899,-0.051 -1.78702,-0.10111 -2.66602,-0.16211 -0.14476,0.79918 -0.27727,1.60155 -0.41601,2.40234 L 0,229.68383 c 0.18805,-3.12269 0.38046,-6.24733 0.56445,-9.36524 0.475,5.425 0.96938,10.86167 1.48438,16.30664 1.303,-3.26297 2.18187,-6.66748 3.17187,-10.02148 -0.141,16.10394 0.41435,32.21729 2.15235,48.24023 0.697,-12.11294 0.91014,-24.24812 1.24414,-36.37109 2.45497,18.05394 2.72836,36.26914 3.19336,54.45508 0.384,-12.27497 0.44312,-24.54949 0.45312,-36.81446 l 1,-0.0508 c 0.061,21.99394 -0.13006,43.99825 -0.0391,65.99219 0.505,-1.404 1.51548,-4.20342 2.02148,-5.60742 -0.04,14.05294 -0.0606,28.10547 0.56641,42.14844 2.415,-27.52994 0.79791,-55.18081 1.87891,-82.76172 1.07097,14.76994 1.71631,29.55036 2.07031,44.36133 0.434,-5.708 0.84826,-11.40599 1.32226,-17.08399 0.273,16.46794 0.0711,32.95689 0.82813,49.42383 0.616,-20.18594 1.10208,-40.3807 1.83008,-60.55664 0.414,3.96997 0.82672,7.96017 1.26172,11.95117 0.253,-10.39597 0.55692,-20.782 0.91992,-31.16797 2.142,25.35794 1.32329,50.81742 1.40429,76.23633 l 1.1211,0.01 c 0.536,-24.73194 -1.8905,-49.7147 2.3125,-74.22461 0.475,7.70897 0.88897,15.43704 1.29297,23.16601 0.535,-10.75997 0.99081,-21.52979 2.13281,-32.25976 0.394,16.83094 0.0609,33.66343 0.87891,50.48437 0.566,-17.83194 0.16223,-35.68492 0.99023,-53.50586 0.414,8.39597 0.57692,16.79106 0.91992,25.20703 0.727,-7.30397 1.48414,-14.59907 2.49414,-21.87304 0.667,1.111 1.34402,2.23449 2.04102,3.35546 0.212,-9.95097 0.51481,-19.91299 1.75781,-29.79296 0.798,23.49891 -0.44531,47.03912 0.92969,70.53906 1.01,-26.91391 -0.31194,-53.86929 0.78906,-80.7832 0.616,7.73897 1.08114,15.48782 1.86914,23.21679 0.535,-4.03097 1.09025,-8.06322 1.65625,-12.07422 0.859,7.001 1.16205,14.0535 1.74805,21.10547 0.273,-5.67797 0.53561,-11.34498 0.84961,-17.00195 0.839,8.66797 1.46464,17.35695 2.18164,26.04492 0.192,-13.09297 0.0901,-26.23703 1.78711,-39.25 0.515,9.68897 0.61715,19.3965 0.91015,29.10547 3.455,-9.94097 3.57635,-20.51856 4.15235,-30.89453 0.182,1.142 0.35222,2.30284 0.57422,3.46484 1.40397,0.212 2.83014,0.36394 4.24414,0.58594 0.01,1.647 0.0293,4.94089 0.0293,6.58789 1.313,-5.07197 2.64816,-10.144 4.28516,-15.125 0.879,3.647 1.60481,7.30398 2.38281,11.00195 0.081,-1.65697 0.25399,-4.96995 0.33399,-6.62695 0.556,1.556 1.12226,3.11197 1.69726,4.66797 0.192,-1.707 0.59511,-5.11331 0.78711,-6.82031 0.232,2.61697 0.4748,5.24386 0.7168,7.88086 0.253,-1.404 0.748,-4.21319 1,-5.61719 0.394,1.374 1.1917,4.11256 1.5957,5.47656 0.172,-4.26297 0.37373,-8.52804 0.5957,-12.79101 0.374,4.00097 0.75811,8.00346 1.16211,12.02343 0.293,-3.31397 0.3953,-6.68868 0.7793,-9.97265 2.273,10.96197 3.92975,22.00478 4.34375,33.21875 0,-8.72897 0.58525,-17.43852 0.65625,-26.14649 0.687,13.77997 1.85922,27.55033 3.32422,41.2793 0.293,-9.10297 0.62715,-18.19437 1.20312,-27.27734 2.041,17.09394 0.87769,34.37974 1.55469,51.55468 0.667,-9.06197 1.30358,-18.12404 2.14258,-27.16601 0.677,6.98097 1.34322,13.98045 1.94922,20.98242 0.636,-7.37497 1.20361,-14.72972 2.22461,-22.05469 0.566,15.61897 -0.0104,31.34016 2.51562,46.82813 1.96,-12.12397 2.00918,-24.42033 2.20118,-36.6543 0.344,2.738 1.01928,8.20441 1.36328,10.94141 0.404,-4.668 0.70709,-9.34422 1.12109,-13.99219 0.333,15.96294 0.25413,31.945 0.20313,47.91797 l 1.10156,0.01 c -0.03,-20.35694 -0.29374,-40.71556 0.32226,-61.0625 0.94,12.42697 2.40468,24.80255 3.26368,37.22852 0.101,-17.85194 1.98987,-35.59211 3.17187,-53.37305 0.313,12.32597 0.45488,24.66036 1.17188,36.98633 0.616,-1.081 1.23314,-2.14189 1.86914,-3.21289 0.354,1.424 0.72709,2.85992 1.12109,4.29492 0.131,-7.99097 0.38347,-15.97434 0.60547,-23.94531 0.313,8.71897 0.79834,17.42828 1.15234,26.15625 1.435,-14.40697 1.47422,-28.90362 1.94922,-43.35156 0.525,10.76997 0.77741,21.58962 2.19141,32.30859 1.93,-15.07394 1.13339,-30.30916 1.90039,-45.45313 0.273,8.062 0.65598,16.11379 0.95898,24.17579 0.182,-8.729 0.78802,-17.43705 1.04102,-26.16602 0.849,20.51894 0.0205,41.05723 0.98047,61.57617 2.18197,-19.60994 1.38431,-39.37156 1.44531,-59.0625 l 0.99023,-0.0605 c 0.03,18.39694 -0.082,36.87638 2.66602,55.11132 0.616,-15.81094 0.43517,-31.65114 1.95117,-47.41211 2.596,16.85197 0.60525,33.96525 2.65625,50.86719 2.223,-23.30691 -0.12126,-46.7556 1.30274,-70.10351 0.374,8.71897 0.79813,17.42825 1.1621,26.15625 0.404,-6.365 0.73735,-12.75024 1.15235,-19.11524 0.303,16.14497 0.12045,32.2977 0.93945,48.43164 1.899,-15.34594 0.98995,-30.89429 2.91992,-46.24023 2.394,22.08494 0.83902,44.31109 2.04102,66.45703 0.929,-22.53994 -0.0391,-45.1095 0.91992,-67.64844 0.435,4.668 0.69587,9.32375 1.08984,14.01172 0.344,-7.01097 0.67827,-14.0227 1.07227,-21.01367 1.111,21.10494 -1.00022,42.40254 2.05078,63.39648 0.717,-17.59894 -0.21181,-35.32061 2.61719,-52.76758 1.233,16.25597 0.62505,32.59297 1.37305,48.87891 0.505,-14.42694 0.42393,-28.86407 0.58593,-43.29101 0.546,2.21197 1.11106,4.42499 1.70703,6.66796 0.222,-5.63697 0.48607,-11.25607 0.78907,-16.87304 0.455,22.52891 0.58522,45.06921 1.94922,67.57812 0.475,-23.55991 0.0807,-47.18974 3.22265,-70.59765 0.596,22.53991 -0.31239,45.08748 0.84961,67.60742 0.647,-24.57994 1.88902,-49.12852 3.04102,-73.68946 1.172,21.18594 1.19201,42.41149 2.04101,63.60743 0.798,-19.64994 -0.34356,-39.35077 1.27344,-58.97071 4.041,16.28597 1.38302,33.32903 2.66602,49.91797 2.09097,-17.81094 0.8291,-35.7945 2.83007,-53.60547 1.414,17.80097 1.62711,35.65197 2.16211,53.50391 0.94,-17.50794 1.16092,-35.05766 2.83789,-52.51563 0.94,17.24597 0.36404,34.54264 1.70704,51.76758 2.32401,-18.45794 1.66781,-37.14832 2.54681,-55.69726 0.667,17.80094 1.2331,35.61312 2.0411,53.41406 0.566,-18.14494 0.929,-36.29033 2.041,-54.4043 0.283,12.24497 0.4934,24.50088 1.5644,36.71485 1.313,-11.23397 1.5156,-22.58017 3.4356,-33.74414 0.455,10.74997 0.6357,21.50932 1.0097,32.27929 0.818,-9.36497 1.8296,-18.71165 3.1426,-28.01562 0.505,7.31397 1.0105,14.63936 1.6875,21.94336 0.737,-9.09297 1.4239,-18.19428 3.1719,-27.15625 0.697,8.66797 1.1207,17.37593 2.3437,26.0039 0.273,-8.32497 0.3637,-16.64892 0.5957,-24.96289 1.101,5.294 2.3038,10.55664 3.3848,15.84961 0.576,-6.59697 1.2204,-13.17279 1.8574,-19.75976 0.667,9.01197 1.3241,18.06339 3.1621,26.94336 0.293,-8.719 0.4851,-17.42875 0.7481,-26.13672 0.667,4.65697 1.2439,9.31614 1.9609,13.99414 1.525,-3.435 2.6859,-7.02213 3.8789,-10.57813 -0.212,11.63897 -0.1601,23.28658 0.1739,34.93555 0.647,-2.96 0.8079,-6.08219 1.5859,-8.99219 0.111,16.45797 -0.031,32.91511 0.6152,49.37305 0.788,-14.14397 2.092,-28.24736 3.295,-42.36133 0.727,21.14494 -0.9415,42.41114 1.7265,63.45508 0.445,-4.637 0.808,-9.29488 1.293,-13.92188 0.232,8.365 0.4245,16.72097 0.6972,25.08594 0.384,-7.03197 0.7889,-14.06373 1.2129,-21.0957 0.869,16.17494 1.0509,32.39973 2.8789,48.51367 1.394,-27.94491 -0.4341,-55.93911 1.1719,-83.87305 1.061,26.91394 -0.4662,53.86927 0.9278,80.78321 0.697,-19.18494 0.072,-38.3917 1.082,-57.55664 0.879,19.88294 -1.0193,39.98702 2.7187,59.66796 0.525,-4.37497 0.9286,-8.77807 1.4746,-13.12304 0.172,12.73997 0.2323,25.48831 0.6973,38.23828 3.415,-33.88491 0.1904,-67.99136 2.1094,-101.94727 0.566,17.48797 0.2128,35.0062 1.0918,52.49414 0.536,-16.82094 0.121,-33.66364 1,-50.47461 0.909,36.85491 0.091,73.73178 0.3222,110.59766 l 1.1016,-0.01 c -0.101,-18.62997 -0.2838,-37.26018 0.6152,-55.86915 0.455,-16.55894 -0.151,-33.17781 1.668,-49.67578 1.293,19.19594 -0.3949,38.52155 2.0801,57.64649 1.647,-29.95491 -0.2207,-59.97064 1.0723,-89.93555 3.374,19.98394 1.5647,40.36083 4.3027,60.38477 0.374,-16.10397 0.1532,-32.2283 0.9512,-48.32227 1.798,14.74997 1.313,29.6632 2,44.49414 2.485,-18.43794 0.5564,-37.14995 2.9804,-55.58789 0.465,6.43597 0.8073,12.86262 1.3223,19.30859 1.859,-5.89997 2.2739,-12.10382 2.9609,-18.21679 0.212,3.96997 0.4441,7.9419 0.7071,11.92187 0.828,-9.11297 1.8786,-18.20482 3.4746,-27.21679 0.818,6.68797 1.1205,13.41679 1.6465,20.13476 0.657,-8.03197 1.4941,-16.04317 2.8281,-23.99414 0.283,1.95 0.8391,5.84862 1.1211,7.80859 0.677,-3.60697 1.4141,-7.19253 2.1621,-10.76953 0.111,2.637 0.2332,5.28467 0.3652,7.93164 0.909,-0.364 1.8286,-0.72803 2.7676,-1.08203 0.414,1.273 0.8392,2.54708 1.2832,3.83008 1.041,-3.142 1.7983,-6.37464 2.7383,-9.55664 0.556,3.89 1.1303,7.78776 1.7773,11.67773 0.323,-5.65797 0.657,-11.31489 1,-16.96289 0.364,5.334 0.7689,10.67947 1.2129,16.02344 0.293,-4.68797 0.4932,-9.38576 0.8262,-14.05273 0.616,3.05097 0.7086,5.94173 1.4766,9.05273 0.657,-2.93 0.9277,-5.98258 1.6757,-8.89258 1.061,3.243 1.9998,6.45578 3.0508,9.71875 0.626,-2.92997 0.6479,-6.04118 1.5059,-8.91015 1.849,7.60697 2.7772,15.37751 3.6972,23.14648 0.303,-3.99097 0.636,-7.97215 1,-11.95312 0.041,7.07197 0.052,14.15412 0.082,21.24609 0.768,-0.434 1.5555,-0.84748 2.3535,-1.27148 0.687,7.10197 1.0602,14.2042 1.6152,21.32617 0.222,-14.80097 0.1722,-29.61261 0.8692,-44.39258 0.96,20.83194 -0.7782,41.79596 1.7578,62.54687 0.424,-6.02097 0.7696,-12.04176 1.1836,-18.05273 0.465,3.344 0.6564,6.60547 1.1914,9.98047 0.303,-7.71897 0.5652,-15.42577 0.9492,-23.13477 0.333,11.42597 0.4659,22.8631 0.9609,34.28907 0.374,-9.74897 0.5656,-19.49929 1.0196,-29.23829 0.414,14.12397 0.4145,28.26838 0.6875,42.40235 0.525,-2.667 1.0602,-5.32373 1.6152,-7.9707 0.172,14.59894 0.092,29.20548 0.072,43.81445 l 1.08,0.0117 c 0.222,-28.78291 -0.6166,-57.57789 0.4844,-86.3418 0.414,5.001 0.6363,9.99244 1.0313,15.02344 0.394,-7.03197 0.7693,-14.05225 1.2343,-21.07422 0.444,18.49794 -0.062,37.0062 0.8477,55.49414 0.687,-17.83194 1.1932,-35.6622 1.9512,-53.49414 0.828,6.99097 1.4546,13.98217 2.1816,20.99414 0.303,-4.304 0.6248,-8.59763 0.9688,-12.89063 0.354,7.719 0.6578,15.43533 1.0918,23.1543 0.495,-18.49794 -0.051,-37.02573 0.9082,-55.51367 1.192,29.95491 -0.576,59.93986 1.041,89.88477 1.01,-25.23694 -0.4333,-50.50377 0.9707,-75.72071 0.172,4.799 0.1712,9.58921 0.3222,14.40821 0.707,-0.566 1.4242,-1.1215 2.1622,-1.6875 0.121,7.52697 0.2645,15.0431 0.4765,22.58007 0.323,-10.21397 0.5341,-20.44757 2.0801,-30.56054 1.829,8.69897 1.4545,17.67956 2.0605,26.51953 0.758,-16.48797 1.8803,-32.95712 3.0723,-49.41406 0.354,12.38594 0.2223,24.85349 2.0313,37.14843 0.364,-15.11394 0.5132,-30.24781 1.9882,-45.30078 0.616,19.51894 0.071,39.05723 0.7481,58.57617 1.687,-18.46794 2.708,-36.97596 3.334,-55.5039 0.364,16.47794 0.1636,32.97518 0.8906,49.45312 0.384,-11.49697 0.5343,-23.00373 1.3223,-34.4707 2.061,10.66897 2.284,21.56042 2.789,32.40039 1.768,-18.11494 1.6156,-36.3399 3.0606,-54.46484 0.677,21.20594 -0.1711,42.43273 0.9199,63.63867 3.223,-22.70094 -0.091,-45.80836 3.1523,-68.5293 0.525,19.15494 -0.1322,38.34115 0.9688,57.49609 3.152,-16.32594 2.0704,-33.05627 2.9394,-49.57421 0.788,18.43794 -0.4429,37.02634 2.0821,55.36328 0.465,-16.13397 -0.2219,-32.35964 1.8691,-48.39258 1.212,16.49794 1.4244,33.04651 2.1914,49.56445 0.404,-16.81094 -0.232,-33.69239 1.627,-50.44336 1.394,13.71997 1.8789,27.49933 2.2929,41.2793 0.414,-13.80097 0.4854,-27.6114 1.1114,-41.40234 3.203,13.24494 2.3844,26.95615 2.9804,40.45312 0.354,-14.15394 0.3635,-28.38836 2.9395,-42.36133 0.546,10.07297 0.6465,20.15313 1.0605,30.2461 1.041,-14.11397 2.0523,-28.21635 3.0723,-42.32032 0.333,10.39597 0.5658,20.79153 1.0605,31.1875 0.182,-4.96097 0.2009,-9.93109 0.3829,-14.87109 0.626,1.172 1.2648,2.35511 1.9218,3.53711 0.343,-3.243 0.3527,-6.59755 0.8477,-9.81055 0.253,11.74997 0.2725,23.50003 0.6465,35.25 0.596,-15.14394 1.5572,-30.26832 3.3652,-45.32226 0.273,10.09297 0.4237,20.19514 0.8984,30.28711 2.051,-11.34597 2.0604,-22.93294 3.1114,-34.37891 0.293,14.46697 0.3145,28.93345 0.7695,43.40039 1.293,-14.44694 2.585,-28.89289 3.293,-43.38086 0.232,14.46697 0.1824,28.93561 0.8594,43.39258 2.445,-11.94197 2.4654,-24.18681 2.9804,-36.30078 0.404,7.39497 0.8078,14.79034 1.3438,22.19531 1.192,-6.68797 2.1224,-13.40679 2.9804,-20.13476 0.232,7.73897 0.5143,15.48928 0.9493,23.23828 1.111,-6.112 1.991,-12.27613 3.416,-18.32813 0.313,3.011 0.9387,9.03197 1.2617,12.04297 0.95,-5.67797 1.98,-11.34498 3.041,-17.00195 0.768,4.34397 1.5056,8.71876 2.4356,13.05273 0.839,-4.97097 1.3232,-10.00314 2.0312,-14.99414 0.232,6.65797 0.3733,13.30764 0.6563,19.97461 1.071,-5.63697 1.9995,-11.30536 3.1015,-16.94336 0.374,4.647 0.6488,9.27341 1.0528,13.94141 1.142,-6.961 2.2714,-13.92135 3.2714,-20.90235 0.1152,12.91079 0.4066,25.83593 1.4883,38.71094 z" />&#10;</svg>
