<?xml version="1.0" encoding="UTF-8" standalone="no"?>
<svg
   version="1.1"
   id="Layer_1"
   x="0px"
   y="0px"
   viewBox="0 0 431.4354 417.20457"
   enable-background="new -74.447 -42.393 2692.97 682.775"
   xml:space="preserve"
   sodipodi:docname="soundwave4.svg"
   inkscape:version="1.3 (0e150ed6c4, 2023-07-21)"
   width="431.43539"
   height="417.20459"
   xmlns:inkscape="http://www.inkscape.org/namespaces/inkscape"
   xmlns:sodipodi="http://sodipodi.sourceforge.net/DTD/sodipodi-0.dtd"
   xmlns="http://www.w3.org/2000/svg"
   xmlns:svg="http://www.w3.org/2000/svg"><defs
   id="defs1" /><sodipodi:namedview
   id="namedview1"
   pagecolor="#ffffff"
   bordercolor="#000000"
   borderopacity="0.25"
   inkscape:showpageshadow="2"
   inkscape:pageopacity="0.0"
   inkscape:pagecheckerboard="0"
   inkscape:deskcolor="#d1d1d1"
   inkscape:zoom="0.91126155"
   inkscape:cx="485.59055"
   inkscape:cy="322.08097"
   inkscape:window-width="1920"
   inkscape:window-height="974"
   inkscape:window-x="-11"
   inkscape:window-y="-11"
   inkscape:window-maximized="1"
   inkscape:current-layer="Layer_1" />&#10;<path
   id="path4"
   d="m 431.4349,245.59375 v -25.74609 c -0.3897,-2.68769 -0.6816,-5.39453 -1.3555,-8.01172 -4.859,-2.748 -6.7194,4.80906 -8.9824,7.78906 -0.111,-0.768 -0.3441,-2.30231 -0.4551,-3.07031 -1.697,1.94996 -3.4352,3.91876 -4.9512,6.00976 -0.131,-4.17196 -0.2219,-8.33433 -0.2929,-12.48633 -1.071,3.334 -2.0904,6.67749 -3.1114,10.02149 -0.293,-4.324 -0.5553,-8.63741 -0.7773,-12.94141 -0.263,2.728 -0.7878,8.19388 -1.0508,10.92188 -0.414,-2.485 -0.9511,-5.0018 -1.2441,-7.4668 -1.132,1.384 -2.2526,2.77863 -3.3536,4.18359 0,-0.70696 -0.01,-2.12307 -0.019,-2.83007 -0.727,0.455 -1.4253,0.91976 -2.1133,1.38476 -0.879,-5.43496 -1.7271,-10.88144 -2.5351,-16.3164 -0.394,6.69796 -0.7268,13.39627 -1.0508,20.11523 -0.313,-6.71796 -0.5446,-13.43677 -0.7676,-20.13477 -0.434,2.657 -0.8179,5.32324 -1.1719,7.99024 -0.283,-2.95 -1.2932,-6.05194 -1.2832,-8.96094 -0.02,6.122 0.01,12.23546 0.08,18.35742 -0.798,-0.505 -1.576,-1.01062 -2.334,-1.51562 -0.121,1.536 -0.3633,4.59808 -0.4843,6.12304 -0.778,-3.22296 -1.253,-6.39614 -1.92,-9.61914 -0.707,3.546 -1.3454,7.11273 -1.9414,10.67969 -0.687,-4.09196 -1.3723,-8.18366 -2.0293,-12.26562 -2.526,3.07096 -4.5976,6.47734 -6.5976,9.90234 -0.344,-7.87996 -0.5764,-15.77088 -1.5664,-23.58984 -0.647,8.36496 -1.1115,16.74097 -1.9805,25.08593 -2.031,-12.68892 -3.2422,-25.50082 -4.2422,-38.30078 -0.273,9.06196 -0.626,18.11601 -1.041,27.16797 -1.354,-8.68796 -1.6764,-17.48955 -2.4844,-26.22851 -0.444,2.78796 -1.345,8.36653 -1.789,11.14453 -0.647,-3.314 -1.4545,-6.69971 -1.8985,-10.01367 -0.455,8.31496 -0.8183,16.65111 -1.4453,24.95507 -0.808,-6.35496 -1.3943,-12.71947 -2.4453,-19.02343 -0.909,7.69796 -1.4845,15.43705 -2.0605,23.16601 -0.616,-8.02196 -1.2227,-16.04444 -1.8497,-24.0664 -0.869,6.04196 -1.7677,12.07327 -2.6367,18.11523 -0.778,-6.71796 -1.2721,-13.4876 -1.8281,-20.22656 -0.98,7.33496 -1.2337,14.73027 -1.6777,22.11523 -0.869,-9.87096 -2.0911,-19.69127 -3.4961,-29.49023 -0.616,3.41496 -1.3328,6.80966 -1.7168,10.26562 -0.495,-8.00096 -0.7879,-16.01216 -1.8789,-23.95312 -0.465,14.43692 -0.4052,28.87382 -0.9512,43.30078 -2.374,-20.46792 -0.9286,-41.10975 -2.0606,-61.63867 -0.7476,15.86192 0.3125,31.90504 -2.3945,47.625 -1.93,-14.08296 -0.8585,-28.38878 -1.6055,-42.55274 -0.5756,12.19396 0.051,24.75292 -4.1621,36.42188 -0.455,-10.12296 -0.5445,-20.25618 -0.7675,-30.36914 -0.859,6.01096 -1.5568,12.04177 -2.4258,18.05273 -2.152,-18.72092 -1.2821,-37.65267 -2.7871,-56.43359 -0.384,7.71896 -0.6677,15.44705 -0.9707,23.16601 -0.344,-11.10296 -0.605,-22.21633 -1.666,-33.27929 -0.93,12.76992 -1.6388,25.55988 -2.4668,38.33984 -2.031,-19.79192 -0.9398,-39.72472 -2.0508,-59.556639 -0.899,22.539919 0.6267,45.189519 -2.0703,67.648439 -0.465,-24.91392 -0.2023,-49.84806 -1.9903,-74.710939 -0.606,24.549879 0.1018,49.151239 -1.9082,73.660159 -0.394,-12.09296 -0.5757,-24.18658 -1.0097,-36.26954 -0.445,6.698 -0.7083,13.39651 -1.0723,20.10547 -0.95,-7.00096 -1.5964,-14.04397 -2.1524,-21.08593 -0.2016,12.42692 -0.2418,24.8728 -1.3828,37.25976 -3.455,-22.72092 -4.0221,-45.6835 -4.5371,-68.607419 -1.293,23.923919 -0.6565,47.977379 -3.6465,71.779299 -2.192,-52.5248 0.536,-105.140749 -1.414,-157.68555 -1.263,58.576761 0.6265,117.194 -0.9395,175.75976 -0.505,-15.82092 -0.374,-31.65073 -1.041,-47.47265 -0.728,9.99196 -1.1315,19.9939 -1.4355,30.00586 -0.697,-1.142 -1.3745,-2.28402 -2.0215,-3.41602 -0.162,6.617 -0.3124,13.24485 -0.4434,19.88281 -0.445,-4.35396 -0.9194,-8.709 -1.2734,-13.04296 -0.333,8.07196 -0.6058,16.13407 -1.0098,24.20703 -2.081,-13.27496 -1.3534,-26.78225 -2.1914,-40.15821 -0.748,1.142 -1.4649,2.28355 -2.1719,3.43555 -0.253,-4.26296 -0.4757,-8.51852 -0.6777,-12.77148 -0.404,14.45692 -0.6561,28.92659 -1.8281,43.35351 -0.293,-3.31396 -0.8497,-6.68819 -0.9707,-9.99219 -1.243,1.515 -2.4658,3.02969 -3.6778,4.55469 0.081,-22.24692 0.1836,-44.49331 0.1426,-66.74023 l -1.1015,-0.01 c 0.02,20.36692 0.3432,40.73488 -0.3848,61.0918 -0.455,-7.39496 -0.8074,-14.78102 -1.1914,-22.16602 -0.364,7.709 -0.637,15.42753 -0.961,23.14649 -0.414,-5.021 -0.7675,-10.05226 -1.0605,-15.07422 -0.909,7.69796 -1.5346,15.41752 -2.1406,23.14648 -0.263,-11.42592 -0.4046,-22.86357 -0.8496,-34.26953 -0.151,4.415 -0.3026,8.8309 -0.3536,13.25586 -0.6356,-0.424 -1.2536,-0.84944 -1.8496,-1.27344 -0.374,1.283 -0.7265,2.57638 -1.0605,3.85938 -0.333,-11.07296 -0.6681,-22.2067 -2.7891,-33.09766 -2.627,14.01296 -0.9294,28.4603 -2.9004,42.57422 -0.596,-8.42596 -0.7866,-16.88263 -1.1406,-25.30859 -0.677,10.73896 -1.3742,21.48932 -1.9902,32.23828 -0.546,-10.43596 -0.8493,-20.89162 -2.1113,-31.26758 -0.354,9.39596 -0.5469,18.79935 -0.8399,28.19531 -2.172,-20.78192 -1.2013,-41.70495 -2.0703,-62.54687 -1.536,16.82092 -1.9197,33.76387 -4.9297,50.42383 -0.222,-2.97 -0.6862,-8.92043 -0.9082,-11.90039 -0.97,6.02096 -1.8305,12.05247 -3.0625,18.02343 -0.485,-2.61696 -1.1211,-5.27294 -1.4551,-7.8789 -0.253,4.01096 -0.7675,12.03297 -1.0195,16.04297 -2.314,-15.88196 -0.9894,-32.03658 -1.1914,-48.01954 h -1.1113 c 0.081,10.20396 0.03,20.39761 0.051,30.60157 -0.475,-1.394 -1.4244,-4.18221 -1.8984,-5.57617 -0.303,4.26296 -0.5868,8.52606 -0.8398,12.78906 -0.344,-11.31496 -0.4135,-22.63014 -1.3125,-33.91406 -0.687,1.12096 -1.3538,2.25204 -2.0098,3.37304 -0.323,-13.03292 -0.8997,-26.05348 -1.6777,-39.066399 -0.677,20.862919 0.092,41.734969 -0.9493,62.587889 -1.071,-26.25692 0.2819,-52.54509 -0.9101,-78.792969 -2.586,24.165879 -0.7364,48.493549 -2.1504,72.730469 -0.899,-23.21592 0.1406,-46.45324 -0.8184,-69.660159 -3.193,28.843879 -0.4039,57.911059 -2.2129,86.835939 -1.121,-34.99688 0.354,-70.024609 -0.748,-105.021489 -2.849,26.46992 -0.1318,53.172449 -3.1328,79.611329 -0.364,-3.28296 -1.0715,-6.63719 -1.2735,-9.91015 -0.6356,14.40692 -1.4128,28.80276 -2.4238,43.17968 -0.606,-1.525 -1.1916,-3.0414 -1.7676,-4.5664 -0.121,3.27296 -0.6872,6.47553 -0.6972,9.76953 -0.263,-3.93 -0.5155,-7.8593 -0.6875,-11.7793 -0.859,2.243 -1.7064,4.48675 -2.5254,6.71875 -0.071,-4.41496 -0.1413,-8.85086 -0.1113,-13.25586 -0.667,0.424 -1.303,0.84924 -1.92,1.2832 -0.889,-7.87996 -2.4662,-15.66061 -4.6582,-23.26757 -0.758,5.68796 -1.4024,11.39602 -2.1504,17.08398 -0.344,-3.294 -0.9906,-6.64692 -1.2226,-9.91992 -0.424,10.61796 -0.8484,21.23627 -1.2324,31.86523 -0.333,-0.677 -1.0117,-2.04175 -1.3457,-2.71875 -0.828,1.667 -1.6566,3.33324 -2.4746,4.99024 -0.212,-2.728 -0.6472,-8.19169 -0.8692,-10.92969 -0.869,9.03196 -1.5346,18.08352 -2.1406,27.14648 -0.172,-7.30396 -0.2742,-14.59861 -0.3652,-21.89257 -0.99,1.485 -1.96,2.96031 -2.92,4.44531 -0.071,-1.92 -0.2119,-5.77022 -0.2929,-7.69922 -0.929,1.556 -1.8496,3.12322 -2.7286,4.69922 -0.626,-2.839 -1.465,-5.69885 -2.041,-8.50781 -0.121,4.94996 -0.3228,9.89183 -0.4238,14.84179 -0.596,-2.67696 -1.151,-5.3562 -1.666,-8.0332 -0.839,5.65796 -1.3141,11.34696 -1.8301,17.04492 -0.162,-15.41692 -0.019,-30.87421 -1.8281,-46.20117 -0.394,11.02196 -0.4643,22.09398 -1.6563,33.08594 -0.515,-3.001 -1.0003,-6.00119 -1.4453,-8.99219 -0.293,4.344 -0.6266,8.66824 -0.8496,13.0332 -0.444,-10.06296 -0.6573,-20.14452 -1.8183,-30.14648 -0.465,7.69796 -0.8182,15.40727 -1.1622,23.11523 -0.242,-2.96996 -1.0898,-6.0517 -1.0898,-8.9707 -0.414,3.344 -1.1311,6.62819 -1.4141,9.99219 -1.273,-11.69896 -1.1219,-23.50903 -2.2539,-35.20899 -1.192,13.06296 -2.6863,26.11583 -3.4843,39.21875 -1.293,-12.39592 -1.5255,-24.85382 -1.8985,-37.30078 -0.384,6.031 -0.7268,12.06252 -1.0508,18.10352 -0.354,-7.36496 -0.6574,-14.72879 -0.9804,-22.09375 -0.646,13.81092 0.5045,27.93276 -2.6075,41.51172 -0.737,-10.47696 -1.0803,-20.97303 -1.4843,-31.45899 -0.98,14.44696 -1.556,28.91589 -2.041,43.38281 -0.394,-9.74896 -0.5975,-19.49932 -1.0215,-29.23828 -0.374,9.73896 -0.5445,19.48932 -0.8575,29.23828 -0.5356,-8.44596 -0.9716,-16.90263 -1.8906,-25.30859 -1.606,5.93 -1.9296,12.08187 -2.5156,18.17383 -0.091,-10.72896 -0.2629,-21.43753 -0.5859,-32.14649 -0.414,7.022 -0.8077,14.0425 -1.1817,21.06446 -0.394,-4.981 -0.7578,-9.98121 -1.0508,-14.95117 -1.02,6.42496 -1.8588,12.88017 -2.7578,19.32617 -0.899,-13.19396 -0.7883,-26.43739 -1.1113,-39.65235 -0.424,9.072 -0.7474,18.14484 -1.2324,27.2168 -1.081,-6.64796 -1.6267,-13.37622 -2.1817,-20.07422 -0.111,13.44696 -0.073,26.89339 -0.8906,40.32031 -2.031,-12.99192 -1.222,-26.2159 -1.666,-39.29882 -0.778,4.29396 -1.5364,8.59739 -2.2734,12.90039 -0.303,-3.283 -0.9404,-6.6169 -1.1524,-9.88086 -0.232,10.71896 -0.3625,21.44877 -0.6855,32.17773 -1.566,-13.72992 -2.7486,-27.49962 -3.1426,-41.31054 -0.354,5.68796 -0.6872,11.37625 -0.9902,17.07421 -0.444,-5.68796 -0.86,-11.37645 -1.254,-17.06445 -0.3026,15.14396 -0.1405,30.28967 -0.7675,45.43359 -1.98,-13.38592 -1.485,-26.94418 -2.293,-40.4121 -0.515,1.47496 -1.5455,4.43515 -2.0605,5.91015 -0.101,-8.70896 -0.435,-17.39869 -0.627,-26.09765 -0.788,18.47792 -1.3931,36.96715 -2.1211,55.45507 -0.818,-20.50892 -0.092,-41.03819 -0.9609,-61.53711 -0.455,10.11296 -0.7167,20.25712 -1.8887,30.33008 -0.717,-13.14392 -0.6964,-26.31873 -1.1914,-39.47265 -2.324,20.46892 -0.9295,41.09998 -2.0215,61.6289 -1.233,-22.70088 0.7376,-45.49341 -1.5664,-68.15429 -1.718,17.96292 -0.4439,36.02657 -1.5449,54.01953 -0.919,-23.56992 0.525,-47.22179 -2.041,-70.720709 -1.061,27.944919 0.5247,55.921589 -0.9903,83.855469 -0.697,-36.02684 0.04,-72.07542 -2.0508,-108.072259 -0.8176,36.521839 -0.1007,73.064089 -0.3027,109.585929 l -1.0605,-0.01 c 0.263,-31.48088 -0.9102,-62.951 -1.6582,-94.421879 -1.142,33.652879 0.5465,67.347359 -0.8985,100.990239 -2.414,-50.6358 -1.1918,-101.343729 -1.4238,-152.019529 H 99.709 c -0.404,52.35276 0.971,104.747509 -0.666,157.070309 -3.283,-42.33084 0.1611,-84.86402 -1.8789,-127.255859 -1.333,36.00684 0.495,72.053469 -1,108.070309 -0.859,-23.38788 -1.6683,-46.77491 -1.4863,-70.173829 l -1.0313,-0.0293 c -0.303,28.105879 1.183,56.313239 -1.666,84.328119 -0.323,-14.46692 -0.3136,-28.93562 -0.8496,-43.39258 -0.414,12.44696 -0.5659,24.89412 -1.1719,37.33008 -1.98,-14.70992 -1.1411,-29.6009 -1.8281,-44.38086 -0.616,18.84192 -0.7184,37.69322 -2.1934,56.49414 -0.404,-11.75992 -0.4429,-23.54082 -0.8379,-35.30078 -0.626,9.69896 -1.1423,19.40993 -2.1113,29.08789 -0.455,-8.72896 -0.8592,-17.45829 -1.5762,-26.15625 -0.869,13.78996 -0.949,27.62072 -1.373,41.43164 -0.859,-5.60696 -1.627,-11.24608 -2.334,-16.87304 -0.131,12.66892 -0.3843,25.35787 -1.6973,37.96679 -0.424,-4.29396 -0.8176,-8.58686 -1.1816,-12.88086 -0.323,5.001 -0.6486,9.99268 -0.8906,15.01368 -0.768,-5.284 -1.4944,-10.56857 -2.1914,-15.85157 -0.313,4.274 -0.5949,8.55757 -0.8379,12.85157 -0.253,-5.324 -0.466,-10.64913 -0.668,-15.95313 -0.737,2.192 -1.4744,4.39589 -2.2324,6.58789 -0.495,-1.526 -0.9706,-3.03187 -1.4356,-4.54687 -0.212,2.94996 -0.4041,5.91109 -0.5761,8.87109 -0.333,-1.738 -0.9893,-5.22294 -1.3223,-6.96094 -0.323,4.334 -0.6567,8.64796 -0.8887,13.00196 -1.081,-4.961 -1.9809,-9.9634 -2.9609,-14.94336 -0.384,3.34396 -1.1103,6.60722 -1.3633,9.99218 -0.677,-3.95996 -1.283,-7.97017 -1.748,-11.95117 -1.111,2.495 -2.1934,4.99963 -3.2344,7.51563 -0.818,-7.64796 -1.7169,-15.26437 -2.8789,-22.86133 -0.374,6.07196 -0.7161,12.13288 -1.0801,18.21484 -1.485,-4.90996 -2.4751,-9.97197 -3.2031,-15.04297 -0.202,6.335 -0.445,12.65895 -0.668,19.00391 -0.677,-8.04196 -1.2929,-16.08277 -1.8789,-24.13477 -0.889,1.909 -1.7582,3.82805 -2.6172,5.74805 -1.121,-5.26396 -2.0699,-10.55613 -2.8379,-15.87109 -0.212,9.39596 -0.404,18.80035 -0.748,28.19531 -0.465,-11.39596 -0.8184,-22.80076 -2.1114,-34.13672 -0.313,7.99096 -0.4655,15.9817 -0.6875,23.97266 -1.708,-9.00196 -3.4946,-17.99271 -4.5546,-27.09571 -0.606,4.274 -1.2947,8.53827 -1.8907,12.82227 -0.263,-2.96 -0.7675,-8.89156 -1.0195,-11.85156 -0.333,10.08296 -0.4842,20.15532 -0.9492,30.23828 -0.808,-23.20592 0.1014,-46.42299 -0.7266,-69.62891 -2.293,19.43792 -4.2241,38.91571 -4.2851,58.51563 -1,-25.91392 0.3135,-51.84804 -0.9395,-77.75196 -0.616,24.91392 -0.789,49.82679 -2.082,74.72071 -1.152,-29.27788 0.505,-58.59736 -1.041,-87.865239 -0.717,27.934919 0.1626,55.920539 -2.0704,83.814459 -1.0306,-31.29888 0.6053,-62.62737 -0.9707,-93.906249 -1.212,37.016839 0.6373,74.084719 -0.9687,111.101559 -1.344,-51.5048 0.7067,-103.060889 -1.0313,-154.554689 -1.101,44.77584 0.7783,89.603089 -2.0507,134.337889 -0.323,-14.47792 -0.323,-28.94542 -1,-43.40234 -0.96,23.55992 0.3435,47.16082 -0.9805,70.7207 -1.899,-17.43792 -0.8789,-35.05765 -2.9199,-52.47461 -0.344,8.69896 -0.5651,17.40823 -0.7871,26.11719 -0.384,-1.728 -1.1319,-5.16363 -1.5059,-6.89063 -0.253,6.011 -0.464,12.02293 -0.666,18.04493 -0.475,-4.011 -0.919,-8.02344 -1.334,-12.02344 -0.283,17.14492 -0.2136,34.33014 -1.8906,51.41406 C 0.0466,225.87787 0.0516,225.49257 0,225.1128 v 47.18164 c 0.1491,1.77425 0.1643,3.55633 0.3516,5.32813 0.394,-14.40696 0.8887,-28.81377 2.0097,-43.17969 0.505,21.16592 0.3235,42.36141 1.9805,63.48633 1.273,-13.72996 1.526,-27.52133 2,-41.28125 1.233,11.36596 1.5957,22.79374 2.1817,34.2207 0.98,-10.71896 1.4252,-21.47956 2.0312,-32.22852 1.213,31.44988 -1.1525,62.97145 1.3535,94.36133 3.041,-25.27688 2.5564,-50.77686 3.5664,-76.17578 0.647,14.45696 1.1908,28.91464 1.9688,43.35156 0.546,-8.04196 0.9106,-16.09474 1.8906,-24.0957 1.222,14.74996 1.6364,29.55084 2.2324,44.3418 0.798,-27.94488 1.0708,-55.88762 2.0508,-83.8125 0.748,19.51892 -0.4743,39.15778 1.9707,58.5957 0.445,-12.08296 0.3731,-24.22679 2.0801,-36.21875 0.727,16.41692 1.3236,32.83356 1.8496,49.27148 1.354,-29.26788 1.1823,-58.55533 2.1523,-87.82421 0.667,19.50892 0.029,39.03723 0.9493,58.53515 1.748,-10.10296 1.0715,-20.5578 3.6875,-30.50976 1.192,9.45596 1.7981,18.97155 2.5761,28.47851 0.273,-15.13392 0.1611,-30.2669 0.7871,-45.38086 0.344,10.69896 0.5053,21.40823 0.7383,32.11719 0.505,-2.9 1.4956,-5.65858 2.1426,-8.51758 0.495,1.475 1.0187,2.96035 1.5547,4.44531 0.101,-7.63796 0.1737,-15.27538 0.3047,-22.90234 0.707,5.344 1.4732,10.70901 2.3222,16.04297 3.273,-8.73896 6.1319,-17.66123 6.2129,-27.11719 0.616,5.698 1.2834,11.38646 2.1524,17.06446 0.839,-5.011 1.3232,-10.06326 2.0312,-15.07422 0.475,3.90996 0.9503,7.83 1.4043,11.75 0.889,-4.223 1.8589,-8.43568 2.8789,-12.63868 0.596,1.526 1.2224,3.05018 1.8594,4.57618 -0.03,-1.616 -0.072,-4.84808 -0.1016,-6.45508 1.899,2.324 3.87,4.59655 6.002,6.72851 0.323,-3.33396 0.303,-6.7485 0.707,-10.0625 0.586,3.203 1.1707,6.42668 1.8067,9.63868 1.061,-3.294 2.1832,-6.57732 3.4062,-9.82032 0.727,4.354 1.4031,8.72852 2.0801,13.10352 0.243,-2.738 0.7385,-8.21321 0.9805,-10.95117 0.232,5.68796 0.4438,11.3743 0.7168,17.07226 0.374,-1.707 1.1318,-5.13184 1.5058,-6.83984 0.647,7.30396 1.1403,14.62988 1.6953,21.96484 0.323,-2.73796 0.9817,-8.20464 1.3047,-10.93164 0.919,10.71896 1.3225,21.46979 1.8985,32.21875 0.232,-11.08296 0.3731,-22.16727 0.7871,-33.24023 1.505,18.12492 1.4566,36.30012 2.2246,54.45508 0.434,-15.13396 0.222,-30.28792 1,-45.42188 0.465,16.83092 -0.2336,33.72395 1.5644,50.50391 0.697,-7.052 1.3448,-14.09404 2.1328,-21.125 0.444,7.33496 0.8685,14.68972 1.3125,22.05468 0.384,-15.46792 0.344,-30.93585 1,-46.38281 1.202,29.61188 -0.5447,59.27412 1.0723,88.875 0.434,-29.96488 0.525,-59.9284 2.041,-89.86328 1.111,31.96588 -0.6685,63.9709 0.9785,95.92578 0.444,-27.94488 0.92,-55.87957 1.961,-83.81445 1.283,37.69384 -0.556,75.42917 1,113.12305 1.889,-43.07884 0.7968,-86.20831 2.0898,-129.28711 1.091,38.68384 -0.3722,77.38842 0.7188,116.07226 0.879,-9.54696 1.817,-19.09344 1.666,-28.6914 0.071,-30.30888 -0.081,-60.61886 -0.051,-90.92774 h 1.0898 c 0.313,48.9888 -0.8073,97.98823 0.5567,146.95703 2.505,-41.37084 0.456,-82.834 2.082,-124.21484 1.303,40.40184 -0.8506,80.86502 1.1094,121.25586 3.263,-43.36184 -0.3216,-86.93562 1.9004,-130.35742 1.738,38.39084 -1.7283,76.9543 1.8887,115.24414 1.485,-31.66288 -0.5457,-63.37719 1.1523,-95.03907 0.657,32.99588 -0.02,66.01291 2.0098,98.96875 1.152,-37.68384 -0.4649,-75.38862 0.8281,-113.0625 0.576,13.45696 0.5144,26.99494 2.2324,40.38086 0.354,-14.48792 0.3032,-28.98493 0.9902,-43.46289 0.232,30.46988 1.4043,60.92075 1.4043,91.39063 l 1.0098,0.0312 c 0.232,-32.15788 -0.6159,-64.3365 0.4551,-96.48438 0.717,10.75996 1.4247,21.51934 2.3027,32.2793 0.283,-15.11392 0.1418,-30.23784 0.6778,-45.3418 1.536,23.85292 1.3028,47.75671 2.1718,71.64063 0.556,-17.49792 0.2718,-35.00794 0.9278,-52.50586 0.323,6.02096 0.5463,12.03322 0.8593,18.07422 0.566,-7.38496 1.162,-14.76024 2,-22.11524 0.97,9.05196 1.7776,18.12484 2.3536,27.2168 0.323,-9.40596 0.5167,-18.81207 1.0117,-28.20703 0.354,11.76996 0.444,23.54059 1,35.31055 0.515,-17.47796 -0.082,-35.01691 1.7871,-52.42383 0.515,11.02196 0.7066,22.09468 2.1816,33.05664 0.344,-7.66796 0.626,-15.34595 1,-23.00391 0.344,9.06196 0.5956,18.12554 1.0196,27.1875 0.465,-9.06196 0.7879,-18.12624 1.5859,-27.1582 0.889,4.98096 1.6781,9.98318 2.4961,14.99414 0.495,-2.95 0.3223,-6.07241 1.0703,-8.94141 0.323,4.334 0.5667,8.64796 0.9707,13.00196 0.515,-11.09296 1.111,-22.17536 2,-33.23828 0.414,8.43596 0.7077,16.87064 1.2227,25.30664 0.778,-3.647 1.2211,-7.37402 1.8671,-11.04102 0.646,3.011 0.5676,5.83869 1.4766,8.92969 0.586,-6.365 1.0299,-12.73852 1.5039,-19.10352 0.273,11.05296 0.5059,22.11376 1.5059,33.13672 0.475,-3.98096 0.9791,-7.94039 1.4941,-11.90039 0.465,9.67896 0.7074,19.41743 2.1524,29.02539 0.323,-13.40596 0.294,-26.82179 0.789,-40.21875 0.374,9.55696 0.7474,19.10538 1.5254,28.65234 0.748,-4.78896 1.1111,-9.63873 1.7481,-14.42773 0.333,4.657 0.5354,9.30546 0.8984,13.98242 0.849,-6.66796 1.4856,-13.36669 2.1426,-20.05469 1.202,9.002 1.4247,18.065 1.9297,27.12696 0.354,-8.38496 0.656,-16.77176 1.332,-25.13672 7.001,7.56696 3.3157,18.73088 4.0527,27.96484 1.121,-6.48596 2.9294,-12.82047 5.8594,-18.73047 0.232,4.294 0.5056,8.59743 0.8086,12.90039 0.596,-8.37496 1.1718,-16.76 1.9394,-25.125 0.333,8.699 0.6256,17.41581 1.0196,26.13477 0.879,-9.05196 1.5959,-18.11554 2.1719,-27.1875 0.303,9.72896 0.5062,19.46831 1.0312,29.19727 0.99,-10.38596 1.424,-20.82233 1.959,-31.23829 0.768,8.385 1.2935,16.79131 1.9805,25.19727 0.364,-6.04196 0.6975,-12.08252 1.1425,-18.10352 0.839,5.981 1.3123,11.98123 1.9493,17.99219 0.273,-4.01096 0.8185,-12.0513 1.1015,-16.07226 1.859,11.34596 1.2629,22.90265 1.8789,34.34961 0.354,-10.77996 0.5143,-21.56011 1.6563,-32.28907 0.839,7.001 1.446,14.02268 2.375,21.01368 0.364,-4.95 0.6561,-9.92137 1.0801,-14.86133 0.798,5.61696 1.4548,11.24585 2.2128,16.88281 0.111,-14.40696 0.1107,-28.81525 0.5957,-43.20117 1.637,15.26592 1.6972,30.61306 1.6172,45.95898 0.454,-0.02 1.3846,-0.062 1.8496,-0.082 0.151,-8.90096 0.3639,-17.81021 0.7579,-26.70117 0.404,14.43692 0.3835,28.88339 0.7265,43.32031 1.455,-10.69896 2.0522,-21.48784 3.2442,-32.2168 0.869,8.062 1.4752,16.13384 2.2128,24.2168 0.202,-14.47692 0.2013,-28.95515 0.9083,-43.41211 0.657,19.85192 -0.021,39.72449 0.8984,59.56641 0.475,-12.79996 0.6577,-25.68239 3.0117,-38.32031 1.495,38.35084 -0.6157,76.76244 1.1113,115.11328 0.636,-22.70092 0.9794,-45.40187 1.7774,-68.09375 0.242,-8.30496 1.9701,-16.44812 3.4961,-24.58008 0.182,12.68896 0.1728,25.43987 1.7988,38.04883 0.576,-18.82192 0.1007,-37.65393 0.9297,-56.46485 0.444,8.062 0.6876,16.12332 1.1426,24.19532 0.071,-5.799 0.081,-11.60749 0.1718,-17.39649 0.738,0.525 1.484,1.05117 2.252,1.57617 0.424,-9.52696 0.9086,-19.0553 1.4746,-28.57226 0.414,11.38596 0.5256,22.83348 2.1016,34.14844 0.364,-8.022 0.6162,-16.04293 0.9902,-24.04493 0.111,5.617 0.2128,11.24582 0.3848,16.88282 0.667,-1.172 1.3535,-2.3341 2.0605,-3.4961 0.192,4.263 0.4343,8.5356 0.6973,12.8086 0.233,-9.72896 0.424,-19.45679 0.707,-29.17579 0.606,11.44696 1.1003,22.95434 3.0703,34.2793 0.738,-15.13392 -0.2926,-30.50187 2.9004,-45.42383 1.384,12.72996 1.1011,25.76181 4.2031,38.25977 0.546,-9.69896 0.8988,-19.39696 2.0508,-29.04492 0.313,9.03196 0.6152,18.07327 0.9082,27.11523 0.909,-2.617 1.1622,-5.40494 2.2832,-7.96094 0.687,5.607 1.3646,11.22312 2.1016,16.83008 0.283,-10.66896 0.4026,-21.3564 1.8476,-31.94336 0.344,7.749 0.6372,15.4969 1.1622,23.25586 3.041,-8.39596 2.1229,-17.5694 2.7089,-26.31836 0.546,5.688 1.1524,11.39579 1.8594,17.09375 0.586,-10.44596 0.9076,-20.90193 1.4336,-31.33789 0.344,10.08296 0.4859,20.15532 0.9199,30.23828 0.293,-9.03196 0.4333,-18.05397 0.6153,-27.08593 1.051,4.33396 2.122,8.67744 3.455,12.9414 0.323,-5.70796 0.6785,-11.40555 1.0625,-17.10351 1.364,21.17592 1.2115,42.39197 1.8985,63.58789 0.515,-15.05296 0.636,-30.10767 1.414,-45.14063 0.667,1.121 1.3536,2.25377 2.0606,3.38477 0.162,-2.546 0.3749,-5.08246 0.6269,-7.60742 0.404,7.17296 0.8891,14.3368 1.4551,21.50976 0.95,-9.18396 1.1315,-18.42862 1.6465,-27.64258 0.293,8.446 0.7267,16.8824 1.3027,25.31836 0.717,-7.75896 1.2326,-15.52791 1.7676,-23.29687 0.303,12.45696 0.3835,24.96365 1.9395,37.34961 0.354,-13.14396 0.3645,-26.30767 1.7285,-39.39063 0.849,7.68796 1.6064,15.38579 2.2734,23.09375 0.283,-4.00096 0.8491,-12.01072 1.1211,-16.01172 1.142,28.93488 1.0007,57.88911 1.9707,86.83399 0.768,-19.92292 -0.3852,-39.89661 1.3828,-59.76953 2.384,24.90388 -0.091,49.96994 1.6368,74.92382 0.96,-24.90388 -0.2729,-49.82778 0.8691,-74.7207 0.414,10.74996 0.6779,21.50957 1.2129,32.26953 0.404,-15.14392 0.2316,-30.28887 0.8476,-45.42383 1.101,11.39596 1.517,22.83334 1.961,34.2793 0.364,-7.05196 0.7479,-14.09404 1.1719,-21.125 0.546,11.81996 1.1415,23.64 2.3535,35.41992 1.152,-13.16392 1.1118,-26.38854 1.7988,-39.5625 2.303,17.41696 0.7669,35.07702 1.8379,52.58594 0.717,-17.15492 -0.4126,-34.44022 1.9414,-51.49414 0.384,6.64796 0.3937,13.30566 0.5957,19.97266 1.071,-4.698 2.1614,-9.38691 3.5254,-14.00391 0.465,6.73896 0.6871,13.48713 1.1211,20.24609 0.303,-9.74896 0.5145,-19.4976 1.0195,-29.22656 0.374,13.44696 0.3234,26.90265 0.8594,40.34961 0.364,-10.74996 0.5769,-21.50785 0.9199,-32.25781 0.525,3.344 0.6672,6.60719 1.2832,9.99219 0.111,-3.97 0.2421,-7.93282 0.4141,-11.88282 0.556,1.536 1.1305,3.08096 1.7265,4.62696 0.303,-9.70896 0.5768,-19.46742 2.7188,-28.98438 0.333,9.22396 0.4647,18.45745 0.5957,27.69141 l 0.8887,0.041 c -0.071,-15.31592 -0.192,-30.64224 1,-45.9082 0.576,2.233 1.1923,4.47528 1.8593,6.73828 0.172,-1.94 0.5348,-5.80828 0.7168,-7.73828 0.243,2.718 0.7277,8.17239 0.9707,10.90039 0.697,-3.96996 1.4044,-7.94039 2.1524,-11.90039 0.737,5.63696 1.445,11.29493 2,16.96289 0.647,-7.65796 1.3634,-15.29491 2.1914,-22.92187 0.232,11.36592 0.3119,22.74027 0.5449,34.11523 0.727,-15.52792 3.9301,-30.79364 4.4551,-46.35156 0.313,6.69796 0.4956,13.38694 0.8496,20.08594 0.394,-4.668 0.6058,-9.36548 1.0098,-14.02344 0.566,8.71896 1.0918,17.46705 2.0918,26.16601 0.808,-11.40592 1.3432,-22.82155 1.9492,-34.22851 1.303,11.03196 1.5472,22.13655 2.0722,33.22851 1.435,-11.72892 2.3638,-23.50982 3.0918,-35.30078 0.232,11.13296 0.4742,22.27743 1.2422,33.40039 1.333,-12.47692 1.1307,-25.06452 2.6367,-37.52148 0.93,9.69896 1.5966,19.43854 1.8086,29.1875 0.97,-7.99096 2.0717,-15.96287 3.3047,-23.92383 0.232,2.98 0.7062,8.92039 0.9492,11.90039 1.081,-5.31396 2.0218,-10.65846 3.0918,-15.98242 0.455,5.00096 0.7668,9.99099 1.2618,15.00195 0.889,-5.65796 1.2741,-11.39602 1.9101,-17.08398 1.404,6.01096 2.5158,12.0728 3.7578,18.13476 0.273,-8.74896 0.7158,-17.4876 0.9278,-26.22656 0.596,9.00196 1.1318,18.03467 2.1328,27.01563 0.344,-5.648 0.7061,-11.27535 1.0801,-16.90235 3.122,7.294 3.9406,15.1852 4.3046,23.03516 0.535,-8.02196 1.1108,-16.03273 1.6368,-24.05469 0.232,1.687 0.698,5.06005 0.9296,6.74805 0.384,-1.384 1.1512,-4.15139 1.5352,-5.52539 0.192,2.89996 0.4054,5.81828 0.6484,8.73828 0.192,-1.687 0.5661,-5.06105 0.7481,-6.74805 0.485,1.475 0.9896,2.9486 1.5156,4.4336 0.758,-4.506 1.6056,-8.99157 2.4746,-13.47657 0.899,3.283 2.0203,6.6169 3.0703,9.88086 0.283,-2.79796 0.8391,-8.39536 1.1211,-11.19336 1.233,3.597 2.4565,7.16207 3.6485,10.78907 0.141,-4.607 0.2116,-9.23332 0.4336,-13.82032 4.183,8.44596 3.9905,18.01257 4.3535,27.22657 0.546,-9.70896 1.1925,-19.39822 2.0215,-29.07618 0.161,3.122 -0.01,6.16269 0.3027,9.30469 0.647,-0.606 1.313,-1.20087 2,-1.79687 0.424,3.35396 0.092,6.54697 0.8086,9.96093 1.232,-4.05096 2.0394,-8.21392 3.1504,-12.29492 0.141,1.677 0.4242,5.03003 0.5762,6.70703 0.566,-2.70796 1.1728,-5.40356 1.7988,-8.10156 0.899,5.021 1.7183,10.05152 2.4453,15.10352 0.727,-6.698 1.5951,-13.38548 2.7871,-20.02344 0.556,3.385 0.9085,6.75883 1.3125,10.17383 1.091,-1.283 2.1723,-2.60732 3.4453,-3.73828 0.4122,1.23046 0.8137,2.49375 1.2188,3.74609 z" />&#10;</svg>
