<svg width="431.4" height="417.2" enable-background="new -74.447 -42.393 2692.97 682.775" version="1.1" viewBox="0 0 431.4 417.2" xml:space="preserve" xmlns="http://www.w3.org/2000/svg">
<path d="m431.4 245.6v-25.75c-0.3897-2.688-0.6816-5.395-1.356-8.012-4.859-2.748-6.719 4.809-8.982 7.789-0.111-0.768-0.3441-2.302-0.4551-3.07-1.697 1.95-3.435 3.919-4.951 6.01-0.131-4.172-0.2219-8.334-0.2929-12.49-1.071 3.334-2.09 6.677-3.111 10.02-0.293-4.324-0.5553-8.637-0.7773-12.94-0.263 2.728-0.7878 8.194-1.051 10.92-0.414-2.485-0.9511-5.002-1.244-7.467-1.132 1.384-2.253 2.779-3.354 4.184 0-0.707-0.01-2.123-0.019-2.83-0.727 0.455-1.425 0.9198-2.113 1.385-0.879-5.435-1.727-10.88-2.535-16.32-0.394 6.698-0.7268 13.4-1.051 20.12-0.313-6.718-0.5446-13.44-0.7676-20.13-0.434 2.657-0.8179 5.323-1.172 7.99-0.283-2.95-1.293-6.052-1.283-8.961-0.02 6.122 0.01 12.24 0.08 18.36-0.798-0.505-1.576-1.011-2.334-1.516-0.121 1.536-0.3633 4.598-0.4843 6.123-0.778-3.223-1.253-6.396-1.92-9.619-0.707 3.546-1.345 7.113-1.941 10.68-0.687-4.092-1.372-8.184-2.029-12.27-2.526 3.071-4.598 6.477-6.598 9.902-0.344-7.88-0.5764-15.77-1.566-23.59-0.647 8.365-1.112 16.74-1.98 25.09-2.031-12.69-3.242-25.5-4.242-38.3-0.273 9.062-0.626 18.12-1.041 27.17-1.354-8.688-1.676-17.49-2.484-26.23-0.444 2.788-1.345 8.367-1.789 11.14-0.647-3.314-1.454-6.7-1.898-10.01-0.455 8.315-0.8183 16.65-1.445 24.96-0.808-6.355-1.394-12.72-2.445-19.02-0.909 7.698-1.484 15.44-2.06 23.17-0.616-8.022-1.223-16.04-1.85-24.07-0.869 6.042-1.768 12.07-2.637 18.12-0.778-6.718-1.272-13.49-1.828-20.23-0.98 7.335-1.234 14.73-1.678 22.12-0.869-9.871-2.091-19.69-3.496-29.49-0.616 3.415-1.333 6.81-1.717 10.27-0.495-8.001-0.7879-16.01-1.879-23.95-0.465 14.44-0.4052 28.87-0.9512 43.3-2.374-20.47-0.9286-41.11-2.061-61.64-0.7476 15.86 0.3125 31.91-2.394 47.62-1.93-14.08-0.8585-28.39-1.606-42.55-0.5756 12.19 0.051 24.75-4.162 36.42-0.455-10.12-0.5445-20.26-0.7675-30.37-0.859 6.011-1.557 12.04-2.426 18.05-2.152-18.72-1.282-37.65-2.787-56.43-0.384 7.719-0.6677 15.45-0.9707 23.17-0.344-11.1-0.605-22.22-1.666-33.28-0.93 12.77-1.639 25.56-2.467 38.34-2.031-19.79-0.9398-39.72-2.051-59.56-0.899 22.54 0.6267 45.19-2.07 67.65-0.465-24.91-0.2023-49.85-1.99-74.71-0.606 24.55 0.1018 49.15-1.908 73.66-0.394-12.09-0.5757-24.19-1.01-36.27-0.445 6.698-0.7083 13.4-1.072 20.11-0.95-7.001-1.596-14.04-2.152-21.09-0.2016 12.43-0.2418 24.87-1.383 37.26-3.455-22.72-4.022-45.68-4.537-68.61-1.293 23.92-0.6565 47.98-3.646 71.78-2.192-52.52 0.536-105.1-1.414-157.7-1.263 58.58 0.6265 117.2-0.9395 175.8-0.505-15.82-0.374-31.65-1.041-47.47-0.728 9.992-1.132 19.99-1.436 30.01-0.697-1.142-1.374-2.284-2.022-3.416-0.162 6.617-0.3124 13.24-0.4434 19.88-0.445-4.354-0.9194-8.709-1.273-13.04-0.333 8.072-0.6058 16.13-1.01 24.21-2.081-13.27-1.353-26.78-2.191-40.16-0.748 1.142-1.465 2.284-2.172 3.436-0.253-4.263-0.4757-8.519-0.6777-12.77-0.404 14.46-0.6561 28.93-1.828 43.35-0.293-3.314-0.8497-6.688-0.9707-9.992-1.243 1.515-2.466 3.03-3.678 4.555 0.081-22.25 0.1836-44.49 0.1426-66.74l-1.102-0.01c0.02 20.37 0.3432 40.73-0.3848 61.09-0.455-7.395-0.8074-14.78-1.191-22.17-0.364 7.709-0.637 15.43-0.961 23.15-0.414-5.021-0.7675-10.05-1.06-15.07-0.909 7.698-1.535 15.42-2.141 23.15-0.263-11.43-0.4046-22.86-0.8496-34.27-0.151 4.415-0.3026 8.831-0.3536 13.26-0.6356-0.424-1.254-0.8494-1.85-1.273-0.374 1.283-0.7265 2.576-1.06 3.859-0.333-11.07-0.6681-22.21-2.789-33.1-2.627 14.01-0.9294 28.46-2.9 42.57-0.596-8.426-0.7866-16.88-1.141-25.31-0.677 10.74-1.374 21.49-1.99 32.24-0.546-10.44-0.8493-20.89-2.111-31.27-0.354 9.396-0.5469 18.8-0.8399 28.2-2.172-20.78-1.201-41.7-2.07-62.55-1.536 16.82-1.92 33.76-4.93 50.42-0.222-2.97-0.6862-8.92-0.9082-11.9-0.97 6.021-1.83 12.05-3.062 18.02-0.485-2.617-1.121-5.273-1.455-7.879-0.253 4.011-0.7675 12.03-1.02 16.04-2.314-15.88-0.9894-32.04-1.191-48.02h-1.111c0.081 10.2 0.03 20.4 0.051 30.6-0.475-1.394-1.424-4.182-1.898-5.576-0.303 4.263-0.5868 8.526-0.8398 12.79-0.344-11.31-0.4135-22.63-1.312-33.91-0.687 1.121-1.354 2.252-2.01 3.373-0.323-13.03-0.8997-26.05-1.678-39.07-0.677 20.86 0.092 41.73-0.9493 62.59-1.071-26.26 0.2819-52.55-0.9101-78.79-2.586 24.17-0.7364 48.49-2.15 72.73-0.899-23.22 0.1406-46.45-0.8184-69.66-3.193 28.84-0.4039 57.91-2.213 86.84-1.121-35 0.354-70.02-0.748-105-2.849 26.47-0.1318 53.17-3.133 79.61-0.364-3.283-1.072-6.637-1.274-9.91-0.6356 14.41-1.413 28.8-2.424 43.18-0.606-1.525-1.192-3.041-1.768-4.566-0.121 3.273-0.6872 6.476-0.6972 9.77-0.263-3.93-0.5155-7.859-0.6875-11.78-0.859 2.243-1.706 4.487-2.525 6.719-0.071-4.415-0.1413-8.851-0.1113-13.26-0.667 0.424-1.303 0.8492-1.92 1.283-0.889-7.88-2.466-15.66-4.658-23.27-0.758 5.688-1.402 11.4-2.15 17.08-0.344-3.294-0.9906-6.647-1.223-9.92-0.424 10.62-0.8484 21.24-1.232 31.87-0.333-0.677-1.012-2.042-1.346-2.719-0.828 1.667-1.657 3.333-2.475 4.99-0.212-2.728-0.6472-8.192-0.8692-10.93-0.869 9.032-1.535 18.08-2.141 27.15-0.172-7.304-0.2742-14.6-0.3652-21.89-0.99 1.485-1.96 2.96-2.92 4.445-0.071-1.92-0.2119-5.77-0.2929-7.699-0.929 1.556-1.85 3.123-2.729 4.699-0.626-2.839-1.465-5.699-2.041-8.508-0.121 4.95-0.3228 9.892-0.4238 14.84-0.596-2.677-1.151-5.356-1.666-8.033-0.839 5.658-1.314 11.35-1.83 17.04-0.162-15.42-0.019-30.87-1.828-46.2-0.394 11.02-0.4643 22.09-1.656 33.09-0.515-3.001-1-6.001-1.445-8.992-0.293 4.344-0.6266 8.668-0.8496 13.03-0.444-10.06-0.6573-20.14-1.818-30.15-0.465 7.698-0.8182 15.41-1.162 23.12-0.242-2.97-1.09-6.052-1.09-8.971-0.414 3.344-1.131 6.628-1.414 9.992-1.273-11.7-1.122-23.51-2.254-35.21-1.192 13.06-2.686 26.12-3.484 39.22-1.293-12.4-1.526-24.85-1.898-37.3-0.384 6.031-0.7268 12.06-1.051 18.1-0.354-7.365-0.6574-14.73-0.9804-22.09-0.646 13.81 0.5045 27.93-2.608 41.51-0.737-10.48-1.08-20.97-1.484-31.46-0.98 14.45-1.556 28.92-2.041 43.38-0.394-9.749-0.5975-19.5-1.022-29.24-0.374 9.739-0.5445 19.49-0.8575 29.24-0.5356-8.446-0.9716-16.9-1.891-25.31-1.606 5.93-1.93 12.08-2.516 18.17-0.091-10.73-0.2629-21.44-0.5859-32.15-0.414 7.022-0.8077 14.04-1.182 21.06-0.394-4.981-0.7578-9.981-1.051-14.95-1.02 6.425-1.859 12.88-2.758 19.33-0.899-13.19-0.7883-26.44-1.111-39.65-0.424 9.072-0.7474 18.14-1.232 27.22-1.081-6.648-1.627-13.38-2.182-20.07-0.111 13.45-0.073 26.89-0.8906 40.32-2.031-12.99-1.222-26.22-1.666-39.3-0.778 4.294-1.536 8.597-2.273 12.9-0.303-3.283-0.9404-6.617-1.152-9.881-0.232 10.72-0.3625 21.45-0.6855 32.18-1.566-13.73-2.749-27.5-3.143-41.31-0.354 5.688-0.6872 11.38-0.9902 17.07-0.444-5.688-0.86-11.38-1.254-17.06-0.3026 15.14-0.1405 30.29-0.7675 45.43-1.98-13.39-1.485-26.94-2.293-40.41-0.515 1.475-1.546 4.435-2.06 5.91-0.101-8.709-0.435-17.4-0.627-26.1-0.788 18.48-1.393 36.97-2.121 55.46-0.818-20.51-0.092-41.04-0.9609-61.54-0.455 10.11-0.7167 20.26-1.889 30.33-0.717-13.14-0.6964-26.32-1.191-39.47-2.324 20.47-0.9295 41.1-2.022 61.63-1.233-22.7 0.7376-45.49-1.566-68.15-1.718 17.96-0.4439 36.03-1.545 54.02-0.919-23.57 0.525-47.22-2.041-70.72-1.061 27.94 0.5247 55.92-0.9903 83.86-0.697-36.03 0.04-72.08-2.051-108.1-0.8176 36.52-0.1007 73.06-0.3027 109.6l-1.06-0.01c0.263-31.48-0.9102-62.95-1.658-94.42-1.142 33.65 0.5465 67.35-0.8985 101-2.414-50.64-1.192-101.3-1.424-152h-1.092c-0.404 52.35 0.971 104.7-0.666 157.1-3.283-42.33 0.1611-84.86-1.879-127.3-1.333 36.01 0.495 72.05-1 108.1-0.859-23.39-1.668-46.77-1.486-70.17l-1.031-0.0293c-0.303 28.11 1.183 56.31-1.666 84.33-0.323-14.47-0.3136-28.94-0.8496-43.39-0.414 12.45-0.5659 24.89-1.172 37.33-1.98-14.71-1.141-29.6-1.828-44.38-0.616 18.84-0.7184 37.69-2.193 56.49-0.404-11.76-0.4429-23.54-0.8379-35.3-0.626 9.699-1.142 19.41-2.111 29.09-0.455-8.729-0.8592-17.46-1.576-26.16-0.869 13.79-0.949 27.62-1.373 41.43-0.859-5.607-1.627-11.25-2.334-16.87-0.131 12.67-0.3843 25.36-1.697 37.97-0.424-4.294-0.8176-8.587-1.182-12.88-0.323 5.001-0.6486 9.993-0.8906 15.01-0.768-5.284-1.494-10.57-2.191-15.85-0.313 4.274-0.5949 8.558-0.8379 12.85-0.253-5.324-0.466-10.65-0.668-15.95-0.737 2.192-1.474 4.396-2.232 6.588-0.495-1.526-0.9706-3.032-1.436-4.547-0.212 2.95-0.4041 5.911-0.5761 8.871-0.333-1.738-0.9893-5.223-1.322-6.961-0.323 4.334-0.6567 8.648-0.8887 13-1.081-4.961-1.981-9.963-2.961-14.94-0.384 3.344-1.11 6.607-1.363 9.992-0.677-3.96-1.283-7.97-1.748-11.95-1.111 2.495-2.193 5-3.234 7.516-0.818-7.648-1.717-15.26-2.879-22.86-0.374 6.072-0.7161 12.13-1.08 18.21-1.485-4.91-2.475-9.972-3.203-15.04-0.202 6.335-0.445 12.66-0.668 19-0.677-8.042-1.293-16.08-1.879-24.13-0.889 1.909-1.758 3.828-2.617 5.748-1.121-5.264-2.07-10.56-2.838-15.87-0.212 9.396-0.404 18.8-0.748 28.2-0.465-11.4-0.8184-22.8-2.111-34.14-0.313 7.991-0.4655 15.98-0.6875 23.97-1.708-9.002-3.495-17.99-4.555-27.1-0.606 4.274-1.295 8.538-1.891 12.82-0.263-2.96-0.7675-8.892-1.02-11.85-0.333 10.08-0.4842 20.16-0.9492 30.24-0.808-23.21 0.1014-46.42-0.7266-69.63-2.293 19.44-4.224 38.92-4.285 58.52-1-25.91 0.3135-51.85-0.9395-77.75-0.616 24.91-0.789 49.83-2.082 74.72-1.152-29.28 0.505-58.6-1.041-87.87-0.717 27.93 0.1626 55.92-2.07 83.81-1.031-31.3 0.6053-62.63-0.9707-93.91-1.212 37.02 0.6373 74.08-0.9687 111.1-1.344-51.5 0.7067-103.1-1.031-154.6-1.101 44.78 0.7783 89.6-2.051 134.3-0.323-14.48-0.323-28.95-1-43.4-0.96 23.56 0.3435 47.16-0.9805 70.72-1.899-17.44-0.8789-35.06-2.92-52.47-0.344 8.699-0.5651 17.41-0.7871 26.12-0.384-1.728-1.132-5.164-1.506-6.891-0.253 6.011-0.464 12.02-0.666 18.04-0.475-4.011-0.919-8.023-1.334-12.02-0.283 17.14-0.2136 34.33-1.891 51.41-0.055-0.3795-0.05-0.7648-0.1016-1.145v47.18c0.1491 1.774 0.1643 3.556 0.3516 5.328 0.394-14.41 0.8887-28.81 2.01-43.18 0.505 21.17 0.3235 42.36 1.98 63.49 1.273-13.73 1.526-27.52 2-41.28 1.233 11.37 1.596 22.79 2.182 34.22 0.98-10.72 1.425-21.48 2.031-32.23 1.213 31.45-1.152 62.97 1.354 94.36 3.041-25.28 2.556-50.78 3.566-76.18 0.647 14.46 1.191 28.91 1.969 43.35 0.546-8.042 0.9106-16.09 1.891-24.1 1.222 14.75 1.636 29.55 2.232 44.34 0.798-27.94 1.071-55.89 2.051-83.81 0.748 19.52-0.4743 39.16 1.971 58.6 0.445-12.08 0.3731-24.23 2.08-36.22 0.727 16.42 1.324 32.83 1.85 49.27 1.354-29.27 1.182-58.56 2.152-87.82 0.667 19.51 0.029 39.04 0.9493 58.54 1.748-10.1 1.072-20.56 3.688-30.51 1.192 9.456 1.798 18.97 2.576 28.48 0.273-15.13 0.1611-30.27 0.7871-45.38 0.344 10.7 0.5053 21.41 0.7383 32.12 0.505-2.9 1.496-5.659 2.143-8.518 0.495 1.475 1.019 2.96 1.555 4.445 0.101-7.638 0.1737-15.28 0.3047-22.9 0.707 5.344 1.473 10.71 2.322 16.04 3.273-8.739 6.132-17.66 6.213-27.12 0.616 5.698 1.283 11.39 2.152 17.06 0.839-5.011 1.323-10.06 2.031-15.07 0.475 3.91 0.9503 7.83 1.404 11.75 0.889-4.223 1.859-8.436 2.879-12.64 0.596 1.526 1.222 3.05 1.859 4.576-0.03-1.616-0.072-4.848-0.1016-6.455 1.899 2.324 3.87 4.597 6.002 6.729 0.323-3.334 0.303-6.748 0.707-10.06 0.586 3.203 1.171 6.427 1.807 9.639 1.061-3.294 2.183-6.577 3.406-9.82 0.727 4.354 1.403 8.729 2.08 13.1 0.243-2.738 0.7385-8.213 0.9805-10.95 0.232 5.688 0.4438 11.37 0.7168 17.07 0.374-1.707 1.132-5.132 1.506-6.84 0.647 7.304 1.14 14.63 1.695 21.96 0.323-2.738 0.9817-8.205 1.305-10.93 0.919 10.72 1.322 21.47 1.898 32.22 0.232-11.08 0.3731-22.17 0.7871-33.24 1.505 18.12 1.457 36.3 2.225 54.46 0.434-15.13 0.222-30.29 1-45.42 0.465 16.83-0.2336 33.72 1.564 50.5 0.697-7.052 1.345-14.09 2.133-21.12 0.444 7.335 0.8685 14.69 1.312 22.05 0.384-15.47 0.344-30.94 1-46.38 1.202 29.61-0.5447 59.27 1.072 88.88 0.434-29.96 0.525-59.93 2.041-89.86 1.111 31.97-0.6685 63.97 0.9785 95.93 0.444-27.94 0.92-55.88 1.961-83.81 1.283 37.69-0.556 75.43 1 113.1 1.889-43.08 0.7968-86.21 2.09-129.3 1.091 38.68-0.3722 77.39 0.7188 116.1 0.879-9.547 1.817-19.09 1.666-28.69 0.071-30.31-0.081-60.62-0.051-90.93h1.09c0.313 48.99-0.8073 97.99 0.5567 147 2.505-41.37 0.456-82.83 2.082-124.2 1.303 40.4-0.8506 80.87 1.109 121.3 3.263-43.36-0.3216-86.94 1.9-130.4 1.738 38.39-1.728 76.95 1.889 115.2 1.485-31.66-0.5457-63.38 1.152-95.04 0.657 33-0.02 66.01 2.01 98.97 1.152-37.68-0.4649-75.39 0.8281-113.1 0.576 13.46 0.5144 26.99 2.232 40.38 0.354-14.49 0.3032-28.98 0.9902-43.46 0.232 30.47 1.404 60.92 1.404 91.39l1.01 0.0312c0.232-32.16-0.6159-64.34 0.4551-96.48 0.717 10.76 1.425 21.52 2.303 32.28 0.283-15.11 0.1418-30.24 0.6778-45.34 1.536 23.85 1.303 47.76 2.172 71.64 0.556-17.5 0.2718-35.01 0.9278-52.51 0.323 6.021 0.5463 12.03 0.8593 18.07 0.566-7.385 1.162-14.76 2-22.12 0.97 9.052 1.778 18.12 2.354 27.22 0.323-9.406 0.5167-18.81 1.012-28.21 0.354 11.77 0.444 23.54 1 35.31 0.515-17.48-0.082-35.02 1.787-52.42 0.515 11.02 0.7066 22.09 2.182 33.06 0.344-7.668 0.626-15.35 1-23 0.344 9.062 0.5956 18.13 1.02 27.19 0.465-9.062 0.7879-18.13 1.586-27.16 0.889 4.981 1.678 9.983 2.496 14.99 0.495-2.95 0.3223-6.072 1.07-8.941 0.323 4.334 0.5667 8.648 0.9707 13 0.515-11.09 1.111-22.18 2-33.24 0.414 8.436 0.7077 16.87 1.223 25.31 0.778-3.647 1.221-7.374 1.867-11.04 0.646 3.011 0.5676 5.839 1.477 8.93 0.586-6.365 1.03-12.74 1.504-19.1 0.273 11.05 0.5059 22.11 1.506 33.14 0.475-3.981 0.9791-7.94 1.494-11.9 0.465 9.679 0.7074 19.42 2.152 29.03 0.323-13.41 0.294-26.82 0.789-40.22 0.374 9.557 0.7474 19.11 1.525 28.65 0.748-4.789 1.111-9.639 1.748-14.43 0.333 4.657 0.5354 9.305 0.8984 13.98 0.849-6.668 1.486-13.37 2.143-20.05 1.202 9.002 1.425 18.06 1.93 27.13 0.354-8.385 0.656-16.77 1.332-25.14 7.001 7.567 3.316 18.73 4.053 27.96 1.121-6.486 2.929-12.82 5.859-18.73 0.232 4.294 0.5056 8.597 0.8086 12.9 0.596-8.375 1.172-16.76 1.939-25.12 0.333 8.699 0.6256 17.42 1.02 26.13 0.879-9.052 1.596-18.12 2.172-27.19 0.303 9.729 0.5062 19.47 1.031 29.2 0.99-10.39 1.424-20.82 1.959-31.24 0.768 8.385 1.294 16.79 1.98 25.2 0.364-6.042 0.6975-12.08 1.142-18.1 0.839 5.981 1.312 11.98 1.949 17.99 0.273-4.011 0.8185-12.05 1.102-16.07 1.859 11.35 1.263 22.9 1.879 34.35 0.354-10.78 0.5143-21.56 1.656-32.29 0.839 7.001 1.446 14.02 2.375 21.01 0.364-4.95 0.6561-9.921 1.08-14.86 0.798 5.617 1.455 11.25 2.213 16.88 0.111-14.41 0.1107-28.82 0.5957-43.2 1.637 15.27 1.697 30.61 1.617 45.96 0.454-0.02 1.385-0.062 1.85-0.082 0.151-8.901 0.3639-17.81 0.7579-26.7 0.404 14.44 0.3835 28.88 0.7265 43.32 1.455-10.7 2.052-21.49 3.244-32.22 0.869 8.062 1.475 16.13 2.213 24.22 0.202-14.48 0.2013-28.96 0.9083-43.41 0.657 19.85-0.021 39.72 0.8984 59.57 0.475-12.8 0.6577-25.68 3.012-38.32 1.495 38.35-0.6157 76.76 1.111 115.1 0.636-22.7 0.9794-45.4 1.777-68.09 0.242-8.305 1.97-16.45 3.496-24.58 0.182 12.69 0.1728 25.44 1.799 38.05 0.576-18.82 0.1007-37.65 0.9297-56.46 0.444 8.062 0.6876 16.12 1.143 24.2 0.071-5.799 0.081-11.61 0.1718-17.4 0.738 0.525 1.484 1.051 2.252 1.576 0.424-9.527 0.9086-19.06 1.475-28.57 0.414 11.39 0.5256 22.83 2.102 34.15 0.364-8.022 0.6162-16.04 0.9902-24.04 0.111 5.617 0.2128 11.25 0.3848 16.88 0.667-1.172 1.354-2.334 2.06-3.496 0.192 4.263 0.4343 8.536 0.6973 12.81 0.233-9.729 0.424-19.46 0.707-29.18 0.606 11.45 1.1 22.95 3.07 34.28 0.738-15.13-0.2926-30.5 2.9-45.42 1.384 12.73 1.101 25.76 4.203 38.26 0.546-9.699 0.8988-19.4 2.051-29.04 0.313 9.032 0.6152 18.07 0.9082 27.12 0.909-2.617 1.162-5.405 2.283-7.961 0.687 5.607 1.365 11.22 2.102 16.83 0.283-10.67 0.4026-21.36 1.848-31.94 0.344 7.749 0.6372 15.5 1.162 23.26 3.041-8.396 2.123-17.57 2.709-26.32 0.546 5.688 1.152 11.4 1.859 17.09 0.586-10.45 0.9076-20.9 1.434-31.34 0.344 10.08 0.4859 20.16 0.9199 30.24 0.293-9.032 0.4333-18.05 0.6153-27.09 1.051 4.334 2.122 8.677 3.455 12.94 0.323-5.708 0.6785-11.41 1.062-17.1 1.364 21.18 1.212 42.39 1.898 63.59 0.515-15.05 0.636-30.11 1.414-45.14 0.667 1.121 1.354 2.254 2.061 3.385 0.162-2.546 0.3749-5.082 0.6269-7.607 0.404 7.173 0.8891 14.34 1.455 21.51 0.95-9.184 1.132-18.43 1.646-27.64 0.293 8.446 0.7267 16.88 1.303 25.32 0.717-7.759 1.233-15.53 1.768-23.3 0.303 12.46 0.3835 24.96 1.94 37.35 0.354-13.14 0.3645-26.31 1.728-39.39 0.849 7.688 1.606 15.39 2.273 23.09 0.283-4.001 0.8491-12.01 1.121-16.01 1.142 28.93 1.001 57.89 1.971 86.83 0.768-19.92-0.3852-39.9 1.383-59.77 2.384 24.9-0.091 49.97 1.637 74.92 0.96-24.9-0.2729-49.83 0.8691-74.72 0.414 10.75 0.6779 21.51 1.213 32.27 0.404-15.14 0.2316-30.29 0.8476-45.42 1.101 11.4 1.517 22.83 1.961 34.28 0.364-7.052 0.7479-14.09 1.172-21.12 0.546 11.82 1.142 23.64 2.354 35.42 1.152-13.16 1.112-26.39 1.799-39.56 2.303 17.42 0.7669 35.08 1.838 52.59 0.717-17.15-0.4126-34.44 1.941-51.49 0.384 6.648 0.3937 13.31 0.5957 19.97 1.071-4.698 2.161-9.387 3.525-14 0.465 6.739 0.6871 13.49 1.121 20.25 0.303-9.749 0.5145-19.5 1.02-29.23 0.374 13.45 0.3234 26.9 0.8594 40.35 0.364-10.75 0.5769-21.51 0.9199-32.26 0.525 3.344 0.6672 6.607 1.283 9.992 0.111-3.97 0.2421-7.933 0.4141-11.88 0.556 1.536 1.13 3.081 1.726 4.627 0.303-9.709 0.5768-19.47 2.719-28.98 0.333 9.224 0.4647 18.46 0.5957 27.69l0.8887 0.041c-0.071-15.32-0.192-30.64 1-45.91 0.576 2.233 1.192 4.475 1.859 6.738 0.172-1.94 0.5348-5.808 0.7168-7.738 0.243 2.718 0.7277 8.172 0.9707 10.9 0.697-3.97 1.404-7.94 2.152-11.9 0.737 5.637 1.445 11.29 2 16.96 0.647-7.658 1.363-15.29 2.191-22.92 0.232 11.37 0.3119 22.74 0.5449 34.12 0.727-15.53 3.93-30.79 4.455-46.35 0.313 6.698 0.4956 13.39 0.8496 20.09 0.394-4.668 0.6058-9.365 1.01-14.02 0.566 8.719 1.092 17.47 2.092 26.17 0.808-11.41 1.343-22.82 1.949-34.23 1.303 11.03 1.547 22.14 2.072 33.23 1.435-11.73 2.364-23.51 3.092-35.3 0.232 11.13 0.4742 22.28 1.242 33.4 1.333-12.48 1.131-25.06 2.637-37.52 0.93 9.699 1.597 19.44 1.809 29.19 0.97-7.991 2.072-15.96 3.305-23.92 0.232 2.98 0.7062 8.92 0.9492 11.9 1.081-5.314 2.022-10.66 3.092-15.98 0.455 5.001 0.7668 9.991 1.262 15 0.889-5.658 1.274-11.4 1.91-17.08 1.404 6.011 2.516 12.07 3.758 18.13 0.273-8.749 0.7158-17.49 0.9278-26.23 0.596 9.002 1.132 18.03 2.133 27.02 0.344-5.648 0.7061-11.28 1.08-16.9 3.122 7.294 3.941 15.19 4.305 23.04 0.535-8.022 1.111-16.03 1.637-24.05 0.232 1.687 0.698 5.06 0.9296 6.748 0.384-1.384 1.151-4.151 1.535-5.525 0.192 2.9 0.4054 5.818 0.6484 8.738 0.192-1.687 0.5661-5.061 0.7481-6.748 0.485 1.475 0.9896 2.949 1.516 4.434 0.758-4.506 1.606-8.992 2.475-13.48 0.899 3.283 2.02 6.617 3.07 9.881 0.283-2.798 0.8391-8.395 1.121-11.19 1.233 3.597 2.456 7.162 3.648 10.79 0.141-4.607 0.2116-9.233 0.4336-13.82 4.183 8.446 3.99 18.01 4.354 27.23 0.546-9.709 1.192-19.4 2.022-29.08 0.161 3.122-0.01 6.163 0.3027 9.305 0.647-0.606 1.313-1.201 2-1.797 0.424 3.354 0.092 6.547 0.8086 9.961 1.232-4.051 2.039-8.214 3.15-12.29 0.141 1.677 0.4242 5.03 0.5762 6.707 0.566-2.708 1.173-5.404 1.799-8.102 0.899 5.021 1.718 10.05 2.445 15.1 0.727-6.698 1.595-13.39 2.787-20.02 0.556 3.385 0.9085 6.759 1.312 10.17 1.091-1.283 2.172-2.607 3.445-3.738 0.4122 1.23 0.8137 2.494 1.219 3.746z"/>
</svg>
