<?xml version="1.0" encoding="UTF-8" standalone="no"?>
<svg
   version="1.1"
   id="Layer_1"
   x="0px"
   y="0px"
   viewBox="0 0 393.59375 317.20375"
   enable-background="new -74.447 -42.393 2692.97 682.775"
   xml:space="preserve"
   sodipodi:docname="soundwave1.svg"
   inkscape:version="1.3 (0e150ed6c4, 2023-07-21)"
   width="393.59375"
   height="317.20377"
   xmlns:inkscape="http://www.inkscape.org/namespaces/inkscape"
   xmlns:sodipodi="http://sodipodi.sourceforge.net/DTD/sodipodi-0.dtd"
   xmlns="http://www.w3.org/2000/svg"
   xmlns:svg="http://www.w3.org/2000/svg"><defs
   id="defs1" /><sodipodi:namedview
   id="namedview1"
   pagecolor="#ffffff"
   bordercolor="#000000"
   borderopacity="0.25"
   inkscape:showpageshadow="2"
   inkscape:pageopacity="0.0"
   inkscape:pagecheckerboard="0"
   inkscape:deskcolor="#d1d1d1"
   inkscape:zoom="1.8225231"
   inkscape:cx="208.22781"
   inkscape:cy="174.75773"
   inkscape:window-width="1920"
   inkscape:window-height="974"
   inkscape:window-x="-11"
   inkscape:window-y="-11"
   inkscape:window-maximized="1"
   inkscape:current-layer="Layer_1" />&#10;<path
   id="path1"
   d="m 393.59376,158.9043 v -20.01172 c -0.0192,0.14272 -0.0394,0.28501 -0.0586,0.42773 -0.687,-5.68799 -1.33503,-11.36497 -2.08203,-17.04297 -0.768,4.991 -1.50464,9.9912 -2.18164,14.99219 -1.01,-7.29399 -2.03057,-14.58905 -3.10157,-21.87305 -0.384,6.001 -0.76889,11.99292 -1.21289,18.00391 -0.99,-5.67799 -1.71672,-11.40771 -2.63672,-17.0957 -0.465,6.35499 -0.87898,12.70922 -1.33398,19.07422 -0.798,-5.041 -1.41355,-10.1316 -2.06055,-15.1836 -0.869,4.344 -1.65648,8.70921 -2.64648,13.03321 -0.889,-6.264 -1.51613,-12.55804 -2.20313,-18.83204 -0.505,7.314 -0.94901,14.64814 -1.66601,21.95313 -0.596,-7.49599 -1.09128,-15.00229 -1.73828,-22.48828 -0.899,6.72899 -1.35389,13.51763 -2.21289,20.26562 -0.909,-5.06199 -1.59722,-10.1433 -2.69922,-15.15429 -0.475,3.07099 -1.42344,9.21392 -1.89844,12.29492 -0.889,-7.33499 -1.43444,-14.70923 -1.89844,-22.07422 -0.818,9.71899 -1.48489,19.44679 -2.21289,29.17578 -1.728,-12.65899 -1.17322,-25.48921 -2.69922,-38.1582 -0.546,10.37599 -0.97828,20.77196 -1.98828,31.12695 -0.566,-6.18299 -1.10126,-12.3663 -1.69726,-18.5293 -0.596,6.132 -0.96077,12.27474 -1.38477,18.42774 -0.788,-5.365 -1.39467,-10.75952 -2.26367,-16.10352 -0.919,5.031 -1.59505,10.08354 -2.37305,15.14453 -1.051,-9.04199 -1.10126,-18.17505 -1.69726,-27.24804 -0.909,9.74899 -1.5044,19.52859 -2.52539,29.26758 -0.879,-10.39599 -1.65838,-20.803 -2.23438,-31.20899 -0.546,6.71799 -1.11942,13.43826 -1.85742,20.15625 -0.919,-4.27299 -1.70697,-8.57835 -2.29297,-12.90234 -0.828,5.31399 -1.93141,10.57928 -2.94141,15.86328 -0.232,-2.768 -0.70622,-8.28374 -0.94922,-11.05274 -0.58599,4.061 -1.15203,8.12213 -1.70703,12.20313 -1.78799,-11.35599 -1.991,-22.87286 -2.375,-34.33984 -0.758,10.69898 -1.455,21.39819 -2,32.11718 -0.798,-8.71899 -1.55575,-17.43849 -2.34375,-26.14648 -1.49499,9.29499 -1.87915,18.72118 -2.91015,28.07617 -0.303,-15.09398 -1.34254,-30.1574 -3.01953,-45.15039 -0.232,12.10299 -0.38377,24.21732 -1.00977,36.32031 -1.839,-11.01199 -1.37402,-22.25638 -2.04102,-33.35937 -0.33299,11.73999 -0.38473,23.47876 -0.67773,35.21875 -1.222,-10.04199 -2.07042,-20.12598 -3.23242,-30.16797 -0.889,7.33499 -1.49627,14.69141 -2.07227,22.0664 -0.384,-12.04298 -1.01908,-24.07637 -2.08008,-36.06835 -0.36399,15.73998 -0.32396,31.4922 -0.66796,47.24218 -0.828,-9.75899 -1.73752,-19.50021 -3.35352,-29.1582 -1.263,10.68899 -1.5057,21.46023 -1.9707,32.19922 -0.455,-18.16498 -1.05078,-36.31986 -2.05078,-54.46485 -0.495,17.45799 -0.25257,34.93632 -0.72657,52.4043 -2.97999,-22.37798 0.0502,-45.1805 -4.42578,-67.39648 -0.232,14.07298 -0.25117,28.146 -0.82617,42.20898 -0.697,-20.17598 -1.182,-40.36113 -2,-60.53711 -0.626,17.13499 -0.37469,34.29057 -0.92969,51.43555 -1.808,-18.11498 -2.74836,-36.29135 -3.19336,-54.48633 -0.414,14.09399 -0.24108,28.31919 -3.08007,42.20117 -0.768,-22.48897 0.28276,-45.00953 -0.99024,-67.47851 -1.031,25.23697 0.41259,50.50544 -0.94141,75.73242 -0.93999,-15.12399 -0.96945,-30.34959 -2.93945,-45.39258 -0.495,13.18399 -0.50508,26.39805 -1.45508,39.58203 C 273.67418,52.2107 277.05766,25.96497 275.09766,0 c -1.192,24.49998 1.02125,49.15085 -1.96875,73.54883 -0.303,-5.648 -0.61692,-11.30537 -0.91992,-16.94336 -0.333,3.991 -0.65599,7.98143 -0.95899,11.98242 -0.293,-2.728 -0.87911,-8.18388 -1.16211,-10.92187 -0.374,3.32399 -0.77856,6.59717 -1.10156,9.95117 -0.343,-6.031 -0.66653,-12.06299 -1.01953,-18.08399 -0.293,12.76999 -0.37381,25.55033 -0.75781,38.32032 -0.586,-11.08299 -1.12065,-22.17653 -2.18164,-33.22852 -0.354,12.08299 -0.43544,24.16701 -0.64844,36.25 -0.919,-2.263 -1.82757,-4.5356 -2.72656,-6.80859 -0.04,4.23299 -0.0813,8.47475 -0.11133,12.71875 -0.465,-1.394 -1.40414,-4.18218 -1.86914,-5.57618 -0.232,6.284 -0.44503,12.56711 -0.70703,18.8711 -0.333,-12.44699 -0.48477,-24.89409 -1.00977,-37.33008 -0.697,18.21598 0.44448,36.53275 -1.72852,54.67773 -0.65699,-1.49499 -1.96995,-4.4857 -2.62695,-5.9707 -0.101,1.93 -0.31306,5.79852 -0.41406,7.72852 -0.697,-6.011 -1.2921,-12.01291 -2.1211,-18.00391 -0.45499,4.991 -0.78834,9.98338 -1.15234,14.98438 -0.566,-3.95 -1.1222,-7.90157 -1.6582,-11.85157 -0.525,1.566 -1.03969,3.12127 -1.55469,4.69727 -0.535,-7.96099 -0.90031,-15.92057 -1.82031,-23.85156 -0.495,6.03099 -0.98869,12.05299 -1.55469,18.08398 -0.778,-6.72899 -1.14273,-13.50786 -1.67773,-20.25586 -0.182,9.38599 -0.43404,18.7605 -0.70704,28.14649 -0.38399,-7.032 -0.74809,-14.06371 -1.12109,-21.09571 -0.374,4.354 -0.73584,8.70046 -1.08984,13.06446 -0.172,-2.91 -0.39486,-5.93079 -0.50586,-8.80079 -1.172,3.314 -2.29296,6.65693 -3.62696,9.91993 -0.31299,-11.15399 -0.45582,-22.2957 -0.79882,-33.42969 -1.142,11.07299 -1.71538,22.1856 -2.10938,33.30859 -1.172,-9.98199 -1.45642,-20.03441 -1.60742,-30.0664 -0.394,1.394 -1.18217,4.20342 -1.57617,5.60742 -0.424,-8.66799 -0.56457,-17.36785 -1.72656,-25.96485 -0.576,11.39599 -0.66818,22.80372 -0.95118,34.22071 -0.849,-8.65799 -1.58573,-17.31757 -2.30273,-25.97656 -0.242,7.31499 -0.52559,14.63008 -0.80859,21.95507 -0.313,-8.72899 -0.78708,-17.43825 -1.08008,-26.15625 -0.374,9.06199 -0.69782,18.13504 -1.13282,27.20703 -0.34399,-13.11398 -0.38296,-26.23757 -0.91796,-39.35156 -0.152,4.486 -0.2315,8.95127 -0.3125,13.44727 -0.748,-0.586 -1.47685,-1.17205 -2.21485,-1.74805 -0.172,5.84 -0.35222,11.68907 -0.57422,17.53906 -0.374,-10.08299 -0.54717,-20.16505 -0.95117,-30.24804 -0.374,11.10299 -0.56553,22.19584 -1.01953,33.29882 -0.333,-11.09298 -0.49445,-22.17482 -0.93945,-33.25781 -0.253,8.56699 -0.48666,17.13395 -0.59766,25.71094 l -0.74609,-0.0508 C 212.04652,71.70057 211.833,63.13338 211.5,54.56639 c -0.263,9.40599 -0.65551,18.80204 -0.97851,28.20703 -0.242,-8.56699 -0.47541,-17.1359 -0.56641,-25.71289 l -0.74805,0.0508 c -0.192,8.56699 -0.41381,17.13418 -0.75781,25.70117 -0.344,-9.39599 -0.50652,-18.79151 -0.72852,-28.1875 -0.82799,7.73899 -1.393,15.53779 -3,23.17578 -0.59599,-10.43599 -0.93996,-20.8726 -1.29296,-31.30859 -0.343,10.75999 -0.59577,21.51954 -1.00977,32.26953 -0.404,-9.40599 -0.61578,-18.82253 -1.05078,-28.22852 -0.344,9.40599 -0.49559,18.83206 -0.80859,28.24805 -0.354,-2.617 -0.68677,-5.23285 -1.00977,-7.83984 -0.222,1.172 -0.43348,2.34339 -0.64648,3.52539 -1.384,0.182 -2.74905,0.37487 -4.12305,0.54687 -0.091,6.961 -0.17197,13.93135 -0.29297,20.90235 -0.828,-5.284 -1.61652,-10.5771 -2.35352,-15.8711 -0.303,5.627 -0.61545,11.26559 -0.93945,16.89258 -0.313,-9.71899 -0.43405,-19.44921 -0.74805,-29.1582 -1.59599,14.71998 -1.70725,29.53228 -2.03125,44.32226 -0.505,-7.43599 -0.98993,-14.86158 -1.58593,-22.26758 -0.758,6.375 -1.2226,12.77884 -1.8086,19.17383 -0.242,-14.12398 -0.37344,-28.26709 -1.89843,-42.33008 -0.333,14.47699 -0.31418,28.95489 -0.95118,43.42188 -0.475,-16.15498 -0.263,-32.30814 -1,-48.45313 -3.02099,18.68999 -0.62464,37.73271 -1.80664,56.55469 -0.525,-4.36399 -1.00109,-8.73803 -1.49609,-13.08203 -0.697,8.03199 -1.27281,16.06324 -1.75781,24.11524 -0.374,-15.47799 -0.70693,-30.96436 -1.91993,-46.40235 -0.44499,6.042 -0.83843,12.07301 -1.27343,18.125 -0.596,-21.86298 0.32286,-43.74568 -0.86914,-65.59765 -0.485,25.98497 -0.71585,51.97862 -2.08985,77.93359 -1.344,-3.92 -2.44484,-7.9419 -3.46484,-11.96289 0.141,5.31399 0.29259,10.63789 0.43359,15.96289 -1.051,-0.515 -2.10158,-1.00867 -3.14258,-1.51367 -0.44499,3.48599 -0.86826,6.97008 -1.32226,10.45508 l -1.69727,-5.86915 c -0.768,4.274 -1.37368,8.5571 -1.92968,12.8711 -0.576,-7.01099 -1.0916,-14.01291 -1.8086,-21.00391 -0.273,4.011 -0.82856,12.02026 -1.10156,16.03125 -0.535,-9.70899 -1.01955,-19.41623 -2.06055,-29.07422 -0.354,8.001 -0.60498,16.01145 -0.95898,24.02344 -0.384,-7.75899 -0.6485,-15.51663 -1.0625,-23.26562 -2.243,7.24399 -4.20188,14.56758 -6.17188,21.89257 -0.737,-1.41399 -1.4644,-2.83014 -2.1914,-4.24414 -0.141,1.425 -0.28478,2.85016 -0.42578,4.28516 -1,-5.30399 -1.96957,-10.58857 -3.10157,-15.85156 -0.475,3.37399 -0.92928,6.67922 -1.36328,10.07422 -0.253,-4.668 -0.45597,-9.34591 -0.66797,-14.00391 -0.232,1.717 -0.69668,5.13161 -0.92968,6.84961 -0.98,-3.657 -1.90893,-7.31318 -2.91993,-10.95117 -0.344,2.76799 -1.03004,8.28302 -1.37304,11.04101 -0.293,-2.75799 -0.85958,-8.27302 -1.14258,-11.04101 -0.748,5.32399 -1.28314,10.66772 -1.86914,16.01172 -0.616,-4.314 -1.22167,-8.63741 -1.88867,-12.94141 -0.323,4.011 -0.96021,12.05346 -1.28321,16.06445 -0.273,-6.67799 -0.43348,-13.35544 -0.64648,-20.02343 -1,10.36599 -2.29414,20.71971 -3.24414,31.0957 -0.566,-7.02199 -1.03091,-14.04245 -1.87891,-21.02344 -0.455,6.34499 -0.78787,12.67821 -1.17187,19.0332 -0.576,-8.07199 -1.00991,-16.15432 -1.87891,-24.19531 -0.475,7.72899 -0.79694,15.45632 -1.21094,23.19531 -0.354,-10.44599 -0.59733,-20.89283 -1.48632,-31.29882 -0.546,7.05199 -1.04968,14.12527 -1.51368,21.19726 -0.455,-10.04199 -0.69723,-20.10518 -1.99023,-30.07617 -0.374,10.67899 -0.54684,21.36693 -0.83984,32.04492 -0.919,-11.04199 -1.65744,-22.10498 -2.27344,-33.16797 -0.313,13.76999 -0.38367,27.5398 -0.88868,41.30078 -1.76799,-16.08398 -1.39434,-32.27789 -2.15234,-48.42187 -0.485,13.28499 -0.36375,26.58025 -0.34375,39.86523 -0.495,0 -1.49523,0.01 -1.99023,0.01 0.05,-13.63899 -0.01,-27.2775 -0.64649,-40.89649 -0.606,16.77099 0.28323,33.65401 -2.00976,50.33399 -0.535003,-17.44798 -0.16155,-34.91677 -1.060551,-52.34375 -0.545999,16.81098 -0.163391,33.65363 -0.90039,50.47461 -2.020998,-21.48898 -1.079533,-43.08016 -2.019532,-64.61914 -0.625999,21.53898 -0.668126,43.09868 -2.203125,64.59765 -0.413999,-16.82098 -0.06997,-33.6519 -0.917968,-50.46289 -0.465,12.95199 -0.405,25.91325 -0.375,38.86524 h -2.060547 c 0.05,-18.67998 0.342827,-37.37104 -0.576172,-56.04102 -0.576,17.87198 -0.06088,35.76497 -1.171875,53.62696 -1.474999,-10.38599 -1.32236,-20.92411 -1.81836,-31.3711 -0.292999,11.14399 -0.565704,22.2974 -1.595703,33.40039 C 84.224439,91.85467 84.869375,71.42674 84.859375,51.01976 l -1.13086,0.01 c 0.081,16.98298 0.241687,33.976 -0.445312,50.95898 C 80.717206,82.23776 82.323421,62.2748 81.232422,42.44382 80.636422,58.9418 80.898295,75.49949 79.029297,91.91648 78.221298,68.7005 79.374327,45.44377 78.111328,22.23679 77.495329,45.45277 77.342764,68.69997 76.009765,91.89694 75.595766,75.40896 75.847624,58.90055 75.140625,42.41257 73.928626,56.18256 73.605531,70.01369 73.019531,83.82468 72.645531,69.38769 72.6455,54.94135 72.3125,40.50437 71.443501,51.21336 70.66403,61.92186 69.957031,72.65085 69.523032,55.66787 69.594547,38.69438 69.685547,21.7114 l -1.082032,0.0312 c -0.061,15.92198 0.817967,32.00565 -1.707031,47.80664 -0.686999,-20.13498 0.110953,-40.2998 -0.748047,-60.42578 -1.565998,15.42698 -1.636891,30.93389 -2.21289,46.42187 -0.515,-17.84198 -0.171673,-35.69245 -0.888672,-53.52344 -1.676998,26.05498 -1.606078,52.16966 -1.455078,78.26563 l -1.101563,0.01 C 60.005235,55.95954 62.035825,31.46099 58.923828,7.23502 57.862829,33.09799 59.29953,58.99165 57.894531,84.83462 57.500532,70.00364 57.782936,55.13172 56.085937,40.37173 54.964938,61.23471 55.954593,82.14819 54.933594,103.02017 53.700595,73.7422 55.275655,44.42291 53.972656,15.15494 50.820659,40.62391 53.579811,66.34592 51.882812,91.90689 51.427813,75.74191 51.912542,59.51673 50.185547,43.41275 48.417549,69.31672 50.347014,95.30151 48.791015,121.21548 47.306017,84.36052 49.9342,47.42303 47.408203,10.60806 c -0.848999,7.375 -1.03111,14.80181 -1.162109,22.2168 0.262999,33.67297 0.120406,67.33485 0.191406,101.00781 l -1.101563,0.01 C 45.133938,106.72669 46.376763,79.54952 43.759765,52.51454 43.284766,68.33553 43.112748,84.17692 41.71875,99.9579 c -0.394,-8.05199 -0.614297,-16.12402 -1.029297,-24.16601 -1.383999,19.11498 2.030839,38.85667 -2.910156,57.59765 -0.414,-7.74899 -0.677469,-15.50882 -0.980469,-23.25781 -0.212,3.97 -0.434719,7.9526 -0.636719,11.93359 -0.615999,-1.56599 -1.220891,-3.12345 -1.83789,-4.68945 -0.01,3.253 -0.01,6.42522 0,9.69922 -0.657,-1.192 -1.313704,-2.37269 -1.970704,-3.55469 -0.312999,2 -0.928187,6.00096 -1.242187,8.00195 -0.545999,-2.96999 -1.021094,-6.05219 -1.496094,-8.99218 -0.939999,3.24299 -1.878126,6.49481 -2.828125,9.75781 -1.696998,-0.667 -3.394798,-1.33447 -5.091797,-1.98047 -1.403998,3.001 -2.869079,5.97258 -4.455078,8.89258 -1.050999,-3.9 -2.082048,-7.77993 -3.123046,-11.66992 -0.384,-0.091 -1.172407,-0.26252 -1.566407,-0.35352 -3.1719966,3.576 -6.7077052,6.8996 -8.9707029,11.1836 -0.8719991,0.101 -2.2940794,0.27273 -3.5800781,0.42773 0.09,0.376 0.1721407,0.75667 0.2441406,1.13867 h 4.3261719 c 0.2529997,2.738 0.7577659,8.21318 1.0097656,10.95117 2.1619978,-3.39499 3.5760171,-7.16262 5.0410159,-10.89062 1.413998,3.485 2.870017,6.95196 4.416015,10.37695 0.657,-1.435 1.960188,-4.30428 2.617188,-5.73828 0.555999,3.546 1.099547,7.11197 1.685547,10.66797 0.555999,-1.536 1.111969,-3.04946 1.667968,-4.56445 0.162,1.69699 0.494016,5.09206 0.666016,6.78906 0.575999,-3.405 1.111829,-6.82008 1.798828,-10.20508 1.434999,-1.95 2.70747,-4.10281 3.980469,-6.13281 0.939999,3.83899 1.698425,8.01213 4.982422,10.57812 0.242,1.344 0.715984,4.04249 0.958984,5.39649 0.635999,-1.091 1.262438,-2.18244 1.898438,-3.27344 0.151999,6.28399 0.282844,12.5578 0.464843,18.8418 0.364,-5.698 0.698266,-11.40576 1.072266,-17.09375 0.303,3.98099 0.595672,7.97166 0.888672,11.97265 0.354,-2.72799 1.071781,-8.17434 1.425781,-10.90234 0.202,9.89099 0.170703,19.78165 0.220703,29.68164 l 0.888672,-0.01 c 0.051,-11.94198 0.153188,-23.89223 0.617188,-35.82421 1.888998,25.63097 0.646158,51.3534 2.535156,76.98437 1.757998,-16.85198 0.64811,-33.83653 1.537109,-50.72852 0.777999,18.17499 -0.476576,36.46166 1.857422,54.55665 1.403999,-23.21698 -0.140108,-46.49301 1.212891,-69.70899 1.211999,26.29797 -0.687264,52.66539 1.302734,78.94336 2.878997,-25.52997 -0.212654,-51.32409 1.777344,-76.91406 1.151999,40.38096 -0.515108,80.79482 0.83789,121.17578 3.909997,-38.57296 -0.201419,-77.4708 2.142579,-116.13477 1.898998,35.59297 -1.949418,71.4492 2.142578,106.91016 0.989999,-33.26897 -0.626561,-66.57892 0.898437,-99.83789 1.040999,26.05497 -0.282155,52.14229 0.839844,78.19726 0.898999,19.71099 0.151173,39.46067 1.201172,59.18165 1.302999,-46.79696 -0.726748,-93.62249 1.03125,-140.39844 0.939999,23.35797 -0.252171,46.74554 0.798828,70.10351 0.999999,21.38798 0.0811,42.82663 1.121094,64.22461 1.413998,-41.05796 -0.606686,-82.15712 1.070312,-123.20508 2.020998,42.39196 0.768705,84.83414 1.970703,127.2461 1.292999,-39.36096 -0.394326,-78.75232 0.888672,-118.11328 3.737997,31.14697 0.0094,62.61726 2.232422,93.86523 1.131999,-35.33996 -0.484874,-70.7091 0.828125,-106.03906 3.080997,45.39195 0.39433,90.9147 2.111328,136.34766 1.434999,-42.77596 -0.67667,-85.59247 1.111328,-128.35743 3.404997,24.41898 -0.04008,49.25276 1.919922,73.80274 1.100999,-24.25698 -0.303686,-48.55576 1.070313,-72.80274 1.676998,7.82 1.404625,15.86323 1.515625,23.82422 -0.061,20.36698 -0.555687,40.74459 0.445312,61.10156 1.383999,-26.05497 -0.859388,-52.19229 1.47461,-78.19726 0.827999,5.13199 1.191813,10.29552 1.757812,15.47851 0.333,-6.37499 0.635532,-12.75047 1.019531,-19.10546 1.737999,16.60898 1.293657,33.34078 1.222657,50.00976 h 1.009765 c -0.212,-26.10597 0.687033,-52.18284 1.707031,-78.25781 0.384,13.44699 0.352751,26.90458 0.96875,40.35156 0.283,-12.13399 0.293518,-24.2981 1.728516,-36.37109 1.161999,19.51898 0.21322,39.08844 1.324219,58.60742 0.635999,-18.49798 0.07091,-37.02664 0.878906,-55.51563 0.556,10.70899 0.656892,21.47897 2.212891,32.12696 0.312999,-13.08299 0.331875,-26.16748 0.796875,-39.23047 0.918999,12.07299 1.595672,24.15678 1.888672,36.25976 0.686999,-7.98099 1.314141,-15.96283 2.24414,-23.92382 0.343,5.63699 0.667001,11.28464 1,16.93164 0.566,-9.03199 0.940486,-18.06393 2.021481,-27.04492 0.374,9.00199 0.6153,18.02416 1.0293,27.03515 0.394,-8.05199 0.59647,-16.12402 0.98047,-24.16601 0.364,6.01099 0.65653,12.03369 1.01953,18.05468 0.667,-7.64799 1.2836,-15.30661 1.80859,-22.97461 0.707,5.304 1.40411,10.62742 2.16211,15.94141 0.354,-5.70799 0.65701,-11.41552 1.00001,-17.10352 0.303,2.617 0.6152,5.24191 0.9082,7.87891 0.677,-4.65799 1.31302,-9.29441 2.04101,-13.94141 0.455,10.43599 0.7179,20.87261 1.21289,31.3086 1.344,-10.37599 1.51329,-20.84036 1.98829,-31.27735 0.303,7.375 0.57614,14.74978 0.86914,22.13477 0.535,-7.53699 1.06229,-15.06332 1.77929,-22.57031 1.041,11.51699 0.96035,23.10412 1.15235,34.66211 0.636,-10.39599 1.23115,-20.79126 2.16015,-31.15625 0.313,7.01099 0.63718,14.03246 0.95118,21.06445 0.67699,-5.67799 1.24254,-11.34519 2.06054,-16.99219 0.414,9.03199 0.65677,18.07325 1.00977,27.11524 0.515,-8.07199 1.03084,-16.14356 1.83984,-24.18555 0.515,7.73899 0.95985,15.47757 1.46485,23.22656 1.38399,-7.98099 1.35287,-16.11379 1.79687,-24.17578 0.596,5.678 1.1927,11.35668 1.9707,17.01367 0.424,-8.03199 0.67724,-16.08519 0.99024,-24.11718 0.697,6.01099 1.20233,12.05392 2.11133,18.04492 0.475,-8.36499 0.63647,-16.76196 0.98046,-25.12696 0.515,9.072 0.74629,18.18528 1.98829,27.19727 0.586,-10.07299 0.67701,-20.16529 1.04101,-30.23828 0.586,12.77999 1.25288,25.55056 2.17188,38.31055 0.333,-9.74899 0.50615,-19.50906 0.91015,-29.24805 1.031,11.41599 1.63608,22.8526 2.08008,34.30859 0.293,-12.09298 0.37544,-24.20652 1.64844,-36.22851 0.525,7.34499 0.94858,14.69946 1.39258,22.06445 0.434,-10.37599 0.50525,-20.80071 2.03125,-31.0957 0.263,7.99099 0.56581,15.99315 0.75781,23.99414 0.515,-7.16299 1.10128,-14.32771 1.73828,-21.47071 0.606,4.779 0.99133,9.56896 1.48633,14.37696 0.697,-2.94 1.37284,-5.96038 2.08984,-8.85938 0.253,3.96 0.50482,7.93993 0.75781,11.91992 0.354,-1.73799 1.0613,-5.2034 1.4043,-6.9414 1.334,5.30399 2.63622,10.62913 3.94922,15.95312 0.889,-7.99099 1.47664,-16.01293 1.93164,-24.04492 0.313,4.334 0.56442,8.64796 0.85742,13.00195 0.586,-6.35499 1.12161,-12.69867 1.84961,-19.01367 0.455,5.678 0.90875,11.36451 1.34375,17.0625 0.818,-6.99099 1.47628,-13.99314 2.11328,-20.99414 0.525,15.78099 1.41302,31.55199 2.66602,47.29297 0.889,15.80099 0.5245,31.64214 1.3125,47.45313 -0.394,-23.35798 1.74885,-46.56371 4.83984,-69.67969 0.424,3.344 0.76764,6.61742 1.18164,9.98242 0.333,-5.33399 0.68702,-10.66991 1.04102,-16.00391 0.404,12.75999 0.9297,25.52002 1.9707,38.25 0.384,-13.76998 0.43266,-27.54056 0.84766,-41.31054 3.435,20.34698 3.75812,40.98742 4.20312,61.5664 0.455,-12.12298 0.63629,-24.29631 2.73828,-36.27929 0.414,7.01099 0.76857,14.02197 1.10157,21.04297 0.525,-8.032 1.10123,-16.04317 1.99023,-24.03516 0.596,12.40599 0.73663,24.82425 1.14063,37.24023 1.192,-13.74998 1.69884,-27.55181 2.21484,-41.34179 0.333,14.79098 0.32142,29.59159 0.85742,44.39257 0.505,-8.54699 0.83864,-17.10386 1.55664,-25.63085 0.687,6.14299 1.03141,12.30356 1.56641,18.47656 0.748,-5.314 1.44464,-10.62765 2.18164,-15.93164 0.182,15.44698 0.11184,30.90481 0.83984,46.34179 0.697,-19.53898 0.0704,-39.08797 0.89844,-58.62695 1.546,7.24399 2.29233,14.61962 3.11133,21.97461 0.303,-1.647 0.92842,-4.92917 1.23242,-6.57617 0.212,2.97 0.62613,8.91086 0.82813,11.88086 0.394,-9.40599 0.78886,-18.80251 1.50586,-28.1875 0.535,5.32399 1.00937,10.66968 1.48437,16.01367 0.283,-4.001 0.84958,-12.01268 1.14258,-16.01367 0.303,8.38499 0.50559,16.77102 0.80859,25.16601 0.717,-12.45698 1.83864,-24.87231 3.18164,-37.27929 1.061,9.03199 1.62774,18.10277 2.67774,27.13476 1.808,-8.58699 2.99973,-17.26616 3.30273,-26.03515 0.677,4.22299 1.35425,8.46622 2.03125,12.69921 0.576,-6.96099 0.95913,-13.91203 1.82813,-20.83203 0.434,6.001 0.81867,12.01317 1.26367,18.03516 0.313,-7.72899 0.56692,-15.44726 0.91992,-23.15625 0.364,6.03099 0.68655,12.07301 1.06055,18.125 0.839,-3.94 1.55519,-7.92086 2.24218,-11.88086 0.798,10.67899 1.28268,21.36765 1.88868,32.05664 0.293,-12.78999 0.28331,-25.60157 1.44531,-38.35156 0.323,4.03099 0.99145,12.07275 1.31445,16.09375 1.556,-7.07199 3.00066,-14.18299 5.22266,-21.08399 1.02,4.294 2.00047,8.5864 2.98047,12.90039 0.647,-3.92999 1.27128,-7.85953 1.98828,-11.76953 0.808,3.546 1.48659,7.09074 2.18359,10.67774 0.081,-1.354 0.26275,-4.06007 0.34375,-5.41406 0.96,0.98999 1.90914,1.99095 2.86914,3.00195 0.636,-3.102 1.26246,-6.26471 1.93946,-9.3457 1,8.00099 1.34368,16.04199 1.92968,24.08398 0.333,-8.05199 0.59554,-16.11254 1.01953,-24.14453 0.354,13.42699 0.31383,26.86379 0.79883,40.30078 1.071,-8.38499 1.807,-16.81102 3,-25.16602 1.94,15.73999 1.48603,31.62238 2.08203,47.44336 0.495,-13.45698 0.43402,-26.96557 2.04102,-40.35156 2.768,24.44898 0.75713,49.08917 1.82812,73.61914 2.829,-21.75198 0.96115,-43.71366 2.24415,-65.55664 0.70699,15.62899 1.07072,31.27749 2.63671,46.85547 0.798,-8.16299 0.89819,-16.3756 1.24219,-24.55859 0.313,1.71699 0.93038,5.1619 1.23438,6.8789 0.404,-2.92999 0.64608,-6.04139 1.08007,-8.90039 0.323,4.658 0.59693,9.30419 0.91993,13.99219 0.404,-7.76899 0.79751,-15.5264 1.35351,-23.27539 1.344,14.80098 1.11094,29.68145 1.58594,44.52344 0.384,-10.74999 0.63647,-21.50906 0.98047,-32.24805 0.828,10.38599 1.72789,20.7922 3.21289,31.11719 0.263,-20.51898 0.80756,-41.04905 3.10156,-61.45703 0.364,17.83198 0.0716,35.67411 0.8086,53.49609 0.69699,-11.16399 -0.74855,-23.00371 3.93945,-33.4707 0.424,7.09199 0.80834,14.19488 1.15234,21.29687 1.465,-14.06298 1.50408,-28.21804 2.08008,-42.33203 0.354,12.77999 0.4045,25.57058 0.6875,38.35156 0.424,-2.64699 0.84967,-5.28488 1.26367,-7.92187 0.313,2.71799 0.91771,8.16286 1.22071,10.88086 0.455,-20.84198 -0.15197,-41.69341 0.70703,-62.52539 0.697,15.15398 1.03048,30.34812 3.02148,45.41211 0.636,-11.73999 0.59544,-23.50806 0.89844,-35.24805 0.596,9.33499 1.07066,18.70991 2.22265,28.0039 1.071,-14.39698 1.48674,-28.83301 2.05274,-43.25 1.313,13.77999 1.51339,27.61066 2.15039,41.43165 0.879,-8.042 1.4055,-16.13356 2.0625,-24.18555 1.283,13.05299 1.87869,26.16701 2.92969,39.25 0.616,-20.48898 -0.42433,-41.05882 1.88867,-61.4668 0.576,17.13398 0.3223,34.28861 1.0293,51.4336 0.253,-9.022 0.4244,-18.03465 0.5664,-27.05665 0.445,1.394 1.32358,4.16288 1.76758,5.54688 0.263,-4.587 0.51559,-9.18377 0.80859,-13.75977 0.778,5.617 1.40308,11.24387 2.08008,16.88086 0.404,-7.67799 0.7891,-15.35591 1.4961,-23.0039 0.475,7.05199 0.94076,14.10402 1.38476,21.16601 1.344,-10.71899 2.41457,-21.45734 3.10156,-32.23633 0.333,12.74999 0.69715,25.51953 1.86914,38.22852 0.828,-12.06299 1.48535,-24.14576 2.15235,-36.21875 0.525,9.75899 0.85877,19.54882 2.00976,29.25781 0.647,-11.76999 1.22179,-23.54079 2.05079,-35.30078 0.445,11.03199 0.6059,22.09614 1.8789,33.07813 0.566,-6.688 1.11091,-13.37693 1.87891,-20.04493 1.031,4.627 1.80775,9.30545 2.34375,14.02344 0.515,-5.67799 0.97958,-11.34543 1.76758,-16.98242 0.818,6.67799 1.47604,13.37499 2.12304,20.08398 0.616,-6.31399 1.23302,-12.60881 2.04102,-18.88281 0.465,4.637 0.93961,9.26584 1.47461,13.92383 1.283,-7.01099 2.181,-14.08426 3,-21.15625 0.505,6.02099 0.92047,12.03346 1.35547,18.06445 1.273,-3.19299 2.42323,-6.45669 3.61523,-9.67968 0.343,3.31399 0.62774,6.49756 1.05274,9.85156 1.01999,-7.42599 2.04965,-14.84284 2.84765,-22.29883 0.172,9.81999 0.42469,19.63142 0.92969,29.44141 1.616,-6.678 2.24344,-13.54913 3.27344,-20.32813 0.707,2.96 1.39262,5.88133 2.14062,8.86133 0.647,-5.98099 1.08266,-11.9819 1.59766,-17.96289 0.606,7.70899 1.21145,15.41529 1.93945,23.11328 0.596,-6.37499 1.13136,-12.76001 1.81836,-19.125 0.677,3.991 1.31347,7.99119 1.98047,11.99219 0.748,-2.637 1.52645,-5.26291 2.31445,-7.87891 0.899,3.576 1.60552,7.17207 2.35352,10.78906 1,-6.22299 1.91936,-12.45645 2.81836,-18.68945 0.455,4.688 0.85898,9.36427 1.33398,14.07227 1.303,-5.294 1.92005,-10.73806 2.74805,-16.12305 0.434,5.96099 0.86884,11.94235 1.46484,17.90234 0.889,-3.58699 1.63753,-7.21431 2.39453,-10.82031 0.64974,4.07054 1.30112,8.14612 2.11133,12.19141 z" />&#10;</svg>
