<svg width="393.6" height="317.2" enable-background="new -74.447 -42.393 2692.97 682.775" version="1.1" viewBox="0 0 393.6 317.2" xml:space="preserve" xmlns="http://www.w3.org/2000/svg">
<path d="m393.6 158.9v-20.01c-0.0192 0.1427-0.0394 0.285-0.0586 0.4277-0.687-5.688-1.335-11.36-2.082-17.04-0.768 4.991-1.505 9.991-2.182 14.99-1.01-7.294-2.031-14.59-3.102-21.87-0.384 6.001-0.7689 11.99-1.213 18-0.99-5.678-1.717-11.41-2.637-17.1-0.465 6.355-0.879 12.71-1.334 19.07-0.798-5.041-1.414-10.13-2.061-15.18-0.869 4.344-1.656 8.709-2.646 13.03-0.889-6.264-1.516-12.56-2.203-18.83-0.505 7.314-0.949 14.65-1.666 21.95-0.596-7.496-1.091-15-1.738-22.49-0.899 6.729-1.354 13.52-2.213 20.27-0.909-5.062-1.597-10.14-2.699-15.15-0.475 3.071-1.423 9.214-1.898 12.29-0.889-7.335-1.434-14.71-1.898-22.07-0.818 9.719-1.485 19.45-2.213 29.18-1.728-12.66-1.173-25.49-2.699-38.16-0.546 10.38-0.9783 20.77-1.988 31.13-0.566-6.183-1.101-12.37-1.697-18.53-0.596 6.132-0.9608 12.27-1.385 18.43-0.788-5.365-1.395-10.76-2.264-16.1-0.919 5.031-1.595 10.08-2.373 15.14-1.051-9.042-1.101-18.18-1.697-27.25-0.909 9.749-1.504 19.53-2.525 29.27-0.879-10.4-1.658-20.8-2.234-31.21-0.546 6.718-1.119 13.44-1.857 20.16-0.919-4.273-1.707-8.578-2.293-12.9-0.828 5.314-1.931 10.58-2.941 15.86-0.232-2.768-0.7062-8.284-0.9492-11.05-0.586 4.061-1.152 8.122-1.707 12.2-1.788-11.36-1.991-22.87-2.375-34.34-0.758 10.7-1.455 21.4-2 32.12-0.798-8.719-1.556-17.44-2.344-26.15-1.495 9.295-1.879 18.72-2.91 28.08-0.303-15.09-1.343-30.16-3.02-45.15-0.232 12.1-0.3838 24.22-1.01 36.32-1.839-11.01-1.374-22.26-2.041-33.36-0.333 11.74-0.3847 23.48-0.6777 35.22-1.222-10.04-2.07-20.13-3.232-30.17-0.889 7.335-1.496 14.69-2.072 22.07-0.384-12.04-1.019-24.08-2.08-36.07-0.364 15.74-0.324 31.49-0.668 47.24-0.828-9.759-1.738-19.5-3.354-29.16-1.263 10.69-1.506 21.46-1.971 32.2-0.455-18.16-1.051-36.32-2.051-54.46-0.495 17.46-0.2526 34.94-0.7266 52.4-2.98-22.38 0.0502-45.18-4.426-67.4-0.232 14.07-0.2512 28.15-0.8262 42.21-0.697-20.18-1.182-40.36-2-60.54-0.626 17.13-0.3747 34.29-0.9297 51.44-1.808-18.11-2.748-36.29-3.193-54.49-0.414 14.09-0.2411 28.32-3.08 42.2-0.768-22.49 0.2828-45.01-0.9902-67.48-1.031 25.24 0.4126 50.51-0.9414 75.73-0.94-15.12-0.9694-30.35-2.939-45.39-0.495 13.18-0.5051 26.4-1.455 39.58-4.152-25.8-0.7685-52.05-2.729-78.01-1.192 24.5 1.021 49.15-1.969 73.55-0.303-5.648-0.6169-11.31-0.9199-16.94-0.333 3.991-0.656 7.981-0.959 11.98-0.293-2.728-0.8791-8.184-1.162-10.92-0.374 3.324-0.7786 6.597-1.102 9.951-0.343-6.031-0.6665-12.06-1.02-18.08-0.293 12.77-0.3738 25.55-0.7578 38.32-0.586-11.08-1.121-22.18-2.182-33.23-0.354 12.08-0.4354 24.17-0.6484 36.25-0.919-2.263-1.828-4.536-2.727-6.809-0.04 4.233-0.0813 8.475-0.1113 12.72-0.465-1.394-1.404-4.182-1.869-5.576-0.232 6.284-0.445 12.57-0.707 18.87-0.333-12.45-0.4848-24.89-1.01-37.33-0.697 18.22 0.4445 36.53-1.729 54.68-0.657-1.495-1.97-4.486-2.627-5.971-0.101 1.93-0.3131 5.799-0.4141 7.729-0.697-6.011-1.292-12.01-2.121-18-0.455 4.991-0.7883 9.983-1.152 14.98-0.566-3.95-1.122-7.902-1.658-11.85-0.525 1.566-1.04 3.121-1.555 4.697-0.535-7.961-0.9003-15.92-1.82-23.85-0.495 6.031-0.9887 12.05-1.555 18.08-0.778-6.729-1.143-13.51-1.678-20.26-0.182 9.386-0.434 18.76-0.707 28.15-0.384-7.032-0.7481-14.06-1.121-21.1-0.374 4.354-0.7358 8.7-1.09 13.06-0.172-2.91-0.3949-5.931-0.5059-8.801-1.172 3.314-2.293 6.657-3.627 9.92-0.313-11.15-0.4558-22.3-0.7988-33.43-1.142 11.07-1.715 22.19-2.109 33.31-1.172-9.982-1.456-20.03-1.607-30.07-0.394 1.394-1.182 4.203-1.576 5.607-0.424-8.668-0.5646-17.37-1.727-25.96-0.576 11.4-0.6682 22.8-0.9512 34.22-0.849-8.658-1.586-17.32-2.303-25.98-0.242 7.315-0.5256 14.63-0.8086 21.96-0.313-8.729-0.7871-17.44-1.08-26.16-0.374 9.062-0.6978 18.14-1.133 27.21-0.344-13.11-0.383-26.24-0.918-39.35-0.152 4.486-0.2315 8.951-0.3125 13.45-0.748-0.586-1.477-1.172-2.215-1.748-0.172 5.84-0.3522 11.69-0.5742 17.54-0.374-10.08-0.5472-20.17-0.9512-30.25-0.374 11.1-0.5655 22.2-1.02 33.3-0.333-11.09-0.4944-22.17-0.9394-33.26-0.253 8.567-0.4867 17.13-0.5977 25.71l-0.7461-0.0508c-0.182-8.567-0.3955-17.13-0.7285-25.7-0.263 9.406-0.6555 18.8-0.9785 28.21-0.242-8.567-0.4754-17.14-0.5664-25.71l-0.748 0.0508c-0.192 8.567-0.4138 17.13-0.7578 25.7-0.344-9.396-0.5065-18.79-0.7285-28.19-0.828 7.739-1.393 15.54-3 23.18-0.596-10.44-0.94-20.87-1.293-31.31-0.343 10.76-0.5958 21.52-1.01 32.27-0.404-9.406-0.6158-18.82-1.051-28.23-0.344 9.406-0.4956 18.83-0.8086 28.25-0.354-2.617-0.6868-5.233-1.01-7.84-0.222 1.172-0.4335 2.343-0.6465 3.525-1.384 0.182-2.749 0.3749-4.123 0.5469-0.091 6.961-0.172 13.93-0.293 20.9-0.828-5.284-1.617-10.58-2.354-15.87-0.303 5.627-0.6154 11.27-0.9394 16.89-0.313-9.719-0.434-19.45-0.748-29.16-1.596 14.72-1.707 29.53-2.031 44.32-0.505-7.436-0.9899-14.86-1.586-22.27-0.758 6.375-1.223 12.78-1.809 19.17-0.242-14.12-0.3734-28.27-1.898-42.33-0.333 14.48-0.3142 28.95-0.9512 43.42-0.475-16.15-0.263-32.31-1-48.45-3.021 18.69-0.6246 37.73-1.807 56.55-0.525-4.364-1.001-8.738-1.496-13.08-0.697 8.032-1.273 16.06-1.758 24.12-0.374-15.48-0.7069-30.96-1.92-46.4-0.445 6.042-0.8384 12.07-1.273 18.12-0.596-21.86 0.3229-43.75-0.8691-65.6-0.485 25.98-0.7158 51.98-2.09 77.93-1.344-3.92-2.445-7.942-3.465-11.96 0.141 5.314 0.2926 10.64 0.4336 15.96-1.051-0.515-2.102-1.009-3.143-1.514-0.445 3.486-0.8683 6.97-1.322 10.46l-1.697-5.869c-0.768 4.274-1.374 8.557-1.93 12.87-0.576-7.011-1.092-14.01-1.809-21-0.273 4.011-0.8286 12.02-1.102 16.03-0.535-9.709-1.02-19.42-2.061-29.07-0.354 8.001-0.605 16.01-0.959 24.02-0.384-7.759-0.6485-15.52-1.062-23.27-2.243 7.244-4.202 14.57-6.172 21.89-0.737-1.414-1.464-2.83-2.191-4.244-0.141 1.425-0.2848 2.85-0.4258 4.285-1-5.304-1.97-10.59-3.102-15.85-0.475 3.374-0.9293 6.679-1.363 10.07-0.253-4.668-0.456-9.346-0.668-14-0.232 1.717-0.6967 5.132-0.9297 6.85-0.98-3.657-1.909-7.313-2.92-10.95-0.344 2.768-1.03 8.283-1.373 11.04-0.293-2.758-0.8596-8.273-1.143-11.04-0.748 5.324-1.283 10.67-1.869 16.01-0.616-4.314-1.222-8.637-1.889-12.94-0.323 4.011-0.9602 12.05-1.283 16.06-0.273-6.678-0.4335-13.36-0.6465-20.02-1 10.37-2.294 20.72-3.244 31.1-0.566-7.022-1.031-14.04-1.879-21.02-0.455 6.345-0.7879 12.68-1.172 19.03-0.576-8.072-1.01-16.15-1.879-24.2-0.475 7.729-0.7969 15.46-1.211 23.2-0.354-10.45-0.5973-20.89-1.486-31.3-0.546 7.052-1.05 14.13-1.514 21.2-0.455-10.04-0.6972-20.11-1.99-30.08-0.374 10.68-0.5468 21.37-0.8398 32.04-0.919-11.04-1.657-22.1-2.273-33.17-0.313 13.77-0.3837 27.54-0.8887 41.3-1.768-16.08-1.394-32.28-2.152-48.42-0.485 13.28-0.3638 26.58-0.3438 39.87-0.495 0-1.495 0.01-1.99 0.01 0.05-13.64-0.01-27.28-0.6465-40.9-0.606 16.77 0.2832 33.65-2.01 50.33-0.535-17.45-0.1616-34.92-1.061-52.34-0.546 16.81-0.1634 33.65-0.9004 50.47-2.021-21.49-1.08-43.08-2.02-64.62-0.626 21.54-0.6681 43.1-2.203 64.6-0.414-16.82-0.06997-33.65-0.918-50.46-0.465 12.95-0.405 25.91-0.375 38.87h-2.061c0.05-18.68 0.3428-37.37-0.5762-56.04-0.576 17.87-0.06088 35.76-1.172 53.63-1.475-10.39-1.322-20.92-1.818-31.37-0.293 11.14-0.5657 22.3-1.596 33.4-1.424-20.38-0.7791-40.81-0.7891-61.21l-1.131 0.01c0.081 16.98 0.2417 33.98-0.4453 50.96-2.566-19.75-0.9598-39.71-2.051-59.54-0.596 16.5-0.3341 33.06-2.203 49.47-0.808-23.22 0.345-46.47-0.918-69.68-0.616 23.22-0.7686 46.46-2.102 69.66-0.414-16.49-0.1621-33-0.8691-49.48-1.212 13.77-1.535 27.6-2.121 41.41-0.374-14.44-0.374-28.88-0.707-43.32-0.869 10.71-1.648 21.42-2.355 32.15-0.434-16.98-0.3625-33.96-0.2715-50.94l-1.082 0.0312c-0.061 15.92 0.818 32.01-1.707 47.81-0.687-20.13 0.111-40.3-0.748-60.43-1.566 15.43-1.637 30.93-2.213 46.42-0.515-17.84-0.1717-35.69-0.8887-53.52-1.677 26.05-1.606 52.17-1.455 78.27l-1.102 0.01c-0.485-24.34 1.546-48.84-1.566-73.06-1.061 25.86 0.3757 51.76-1.029 77.6-0.394-14.83-0.1116-29.7-1.809-44.46-1.121 20.86-0.1313 41.78-1.152 62.65-1.233-29.28 0.3421-58.6-0.9609-87.87-3.152 25.47-0.3928 51.19-2.09 76.75-0.455-16.16 0.02973-32.39-1.697-48.49-1.768 25.9 0.1615 51.89-1.395 77.8-1.485-36.85 1.143-73.79-1.383-110.6-0.849 7.375-1.031 14.8-1.162 22.22 0.263 33.67 0.1204 67.33 0.1914 101l-1.102 0.01c-0.202-27.12 1.041-54.29-1.576-81.33-0.475 15.82-0.647 31.66-2.041 47.44-0.394-8.052-0.6143-16.12-1.029-24.17-1.384 19.11 2.031 38.86-2.91 57.6-0.414-7.749-0.6775-15.51-0.9805-23.26-0.212 3.97-0.4347 7.953-0.6367 11.93-0.616-1.566-1.221-3.123-1.838-4.689-0.01 3.253-0.01 6.425 0 9.699-0.657-1.192-1.314-2.373-1.971-3.555-0.313 2-0.9282 6.001-1.242 8.002-0.546-2.97-1.021-6.052-1.496-8.992-0.94 3.243-1.878 6.495-2.828 9.758-1.697-0.667-3.395-1.334-5.092-1.98-1.404 3.001-2.869 5.973-4.455 8.893-1.051-3.9-2.082-7.78-3.123-11.67-0.384-0.091-1.172-0.2625-1.566-0.3535-3.172 3.576-6.708 6.9-8.971 11.18-0.872 0.101-2.294 0.2727-3.58 0.4277 0.09 0.376 0.1721 0.7567 0.2441 1.139h4.326c0.253 2.738 0.7578 8.213 1.01 10.95 2.162-3.395 3.576-7.163 5.041-10.89 1.414 3.485 2.87 6.952 4.416 10.38 0.657-1.435 1.96-4.304 2.617-5.738 0.556 3.546 1.1 7.112 1.686 10.67 0.556-1.536 1.112-3.049 1.668-4.564 0.162 1.697 0.494 5.092 0.666 6.789 0.576-3.405 1.112-6.82 1.799-10.21 1.435-1.95 2.707-4.103 3.98-6.133 0.94 3.839 1.698 8.012 4.982 10.58 0.242 1.344 0.716 4.042 0.959 5.396 0.636-1.091 1.262-2.182 1.898-3.273 0.152 6.284 0.2828 12.56 0.4648 18.84 0.364-5.698 0.6983-11.41 1.072-17.09 0.303 3.981 0.5957 7.972 0.8887 11.97 0.354-2.728 1.072-8.174 1.426-10.9 0.202 9.891 0.1707 19.78 0.2207 29.68l0.8887-0.01c0.051-11.94 0.1532-23.89 0.6172-35.82 1.889 25.63 0.6462 51.35 2.535 76.98 1.758-16.85 0.6481-33.84 1.537-50.73 0.778 18.17-0.4766 36.46 1.857 54.56 1.404-23.22-0.1401-46.49 1.213-69.71 1.212 26.3-0.6873 52.67 1.303 78.94 2.879-25.53-0.2127-51.32 1.777-76.91 1.152 40.38-0.5151 80.79 0.8379 121.2 3.91-38.57-0.2014-77.47 2.143-116.1 1.899 35.59-1.949 71.45 2.143 106.9 0.99-33.27-0.6266-66.58 0.8984-99.84 1.041 26.05-0.2822 52.14 0.8398 78.2 0.899 19.71 0.1512 39.46 1.201 59.18 1.303-46.8-0.7267-93.62 1.031-140.4 0.94 23.36-0.2522 46.75 0.7988 70.1 1 21.39 0.0811 42.83 1.121 64.22 1.414-41.06-0.6067-82.16 1.07-123.2 2.021 42.39 0.7687 84.83 1.971 127.2 1.293-39.36-0.3943-78.75 0.8887-118.1 3.738 31.15 0.0094 62.62 2.232 93.87 1.132-35.34-0.4849-70.71 0.8281-106 3.081 45.39 0.3943 90.91 2.111 136.3 1.435-42.78-0.6767-85.59 1.111-128.4 3.405 24.42-0.04008 49.25 1.92 73.8 1.101-24.26-0.3037-48.56 1.07-72.8 1.677 7.82 1.405 15.86 1.516 23.82-0.061 20.37-0.5557 40.74 0.4453 61.1 1.384-26.05-0.8594-52.19 1.475-78.2 0.828 5.132 1.192 10.3 1.758 15.48 0.333-6.375 0.6355-12.75 1.02-19.11 1.738 16.61 1.294 33.34 1.223 50.01h1.01c-0.212-26.11 0.687-52.18 1.707-78.26 0.384 13.45 0.3528 26.9 0.9688 40.35 0.283-12.13 0.2935-24.3 1.729-36.37 1.162 19.52 0.2132 39.09 1.324 58.61 0.636-18.5 0.07091-37.03 0.8789-55.52 0.556 10.71 0.6569 21.48 2.213 32.13 0.313-13.08 0.3319-26.17 0.7969-39.23 0.919 12.07 1.596 24.16 1.889 36.26 0.687-7.981 1.314-15.96 2.244-23.92 0.343 5.637 0.667 11.28 1 16.93 0.566-9.032 0.9405-18.06 2.021-27.04 0.374 9.002 0.6153 18.02 1.029 27.04 0.394-8.052 0.5965-16.12 0.9805-24.17 0.364 6.011 0.6565 12.03 1.02 18.05 0.667-7.648 1.284-15.31 1.809-22.97 0.707 5.304 1.404 10.63 2.162 15.94 0.354-5.708 0.657-11.42 1-17.1 0.303 2.617 0.6152 5.242 0.9082 7.879 0.677-4.658 1.313-9.294 2.041-13.94 0.455 10.44 0.7179 20.87 1.213 31.31 1.344-10.38 1.513-20.84 1.988-31.28 0.303 7.375 0.5761 14.75 0.8691 22.13 0.535-7.537 1.062-15.06 1.779-22.57 1.041 11.52 0.9604 23.1 1.152 34.66 0.636-10.4 1.231-20.79 2.16-31.16 0.313 7.011 0.6372 14.03 0.9512 21.06 0.677-5.678 1.243-11.35 2.061-16.99 0.414 9.032 0.6568 18.07 1.01 27.12 0.515-8.072 1.031-16.14 1.84-24.19 0.515 7.739 0.9598 15.48 1.465 23.23 1.384-7.981 1.353-16.11 1.797-24.18 0.596 5.678 1.193 11.36 1.971 17.01 0.424-8.032 0.6772-16.09 0.9902-24.12 0.697 6.011 1.202 12.05 2.111 18.04 0.475-8.365 0.6365-16.76 0.9805-25.13 0.515 9.072 0.7463 18.19 1.988 27.2 0.586-10.07 0.677-20.17 1.041-30.24 0.586 12.78 1.253 25.55 2.172 38.31 0.333-9.749 0.5062-19.51 0.9102-29.25 1.031 11.42 1.636 22.85 2.08 34.31 0.293-12.09 0.3754-24.21 1.648-36.23 0.525 7.345 0.9486 14.7 1.393 22.06 0.434-10.38 0.5052-20.8 2.031-31.1 0.263 7.991 0.5658 15.99 0.7578 23.99 0.515-7.163 1.101-14.33 1.738-21.47 0.606 4.779 0.9913 9.569 1.486 14.38 0.697-2.94 1.373-5.96 2.09-8.859 0.253 3.96 0.5048 7.94 0.7578 11.92 0.354-1.738 1.061-5.203 1.404-6.941 1.334 5.304 2.636 10.63 3.949 15.95 0.889-7.991 1.477-16.01 1.932-24.04 0.313 4.334 0.5644 8.648 0.8574 13 0.586-6.355 1.122-12.7 1.85-19.01 0.455 5.678 0.9088 11.36 1.344 17.06 0.818-6.991 1.476-13.99 2.113-20.99 0.525 15.78 1.413 31.55 2.666 47.29 0.889 15.8 0.5245 31.64 1.312 47.45-0.394-23.36 1.749-46.56 4.84-69.68 0.424 3.344 0.7676 6.617 1.182 9.982 0.333-5.334 0.687-10.67 1.041-16 0.404 12.76 0.9297 25.52 1.971 38.25 0.384-13.77 0.4327-27.54 0.8477-41.31 3.435 20.35 3.758 40.99 4.203 61.57 0.455-12.12 0.6363-24.3 2.738-36.28 0.414 7.011 0.7686 14.02 1.102 21.04 0.525-8.032 1.101-16.04 1.99-24.04 0.596 12.41 0.7366 24.82 1.141 37.24 1.192-13.75 1.699-27.55 2.215-41.34 0.333 14.79 0.3214 29.59 0.8574 44.39 0.505-8.547 0.8386-17.1 1.557-25.63 0.687 6.143 1.031 12.3 1.566 18.48 0.748-5.314 1.445-10.63 2.182-15.93 0.182 15.45 0.1118 30.9 0.8398 46.34 0.697-19.54 0.0704-39.09 0.8984-58.63 1.546 7.244 2.292 14.62 3.111 21.97 0.303-1.647 0.9284-4.929 1.232-6.576 0.212 2.97 0.6261 8.911 0.8281 11.88 0.394-9.406 0.7889-18.8 1.506-28.19 0.535 5.324 1.009 10.67 1.484 16.01 0.283-4.001 0.8496-12.01 1.143-16.01 0.303 8.385 0.5056 16.77 0.8086 25.17 0.717-12.46 1.839-24.87 3.182-37.28 1.061 9.032 1.628 18.1 2.678 27.13 1.808-8.587 3-17.27 3.303-26.04 0.677 4.223 1.354 8.466 2.031 12.7 0.576-6.961 0.9591-13.91 1.828-20.83 0.434 6.001 0.8187 12.01 1.264 18.04 0.313-7.729 0.5669-15.45 0.9199-23.16 0.364 6.031 0.6866 12.07 1.061 18.12 0.839-3.94 1.555-7.921 2.242-11.88 0.798 10.68 1.283 21.37 1.889 32.06 0.293-12.79 0.2833-25.6 1.445-38.35 0.323 4.031 0.9914 12.07 1.314 16.09 1.556-7.072 3.001-14.18 5.223-21.08 1.02 4.294 2 8.586 2.98 12.9 0.647-3.93 1.271-7.86 1.988-11.77 0.808 3.546 1.487 7.091 2.184 10.68 0.081-1.354 0.2628-4.06 0.3438-5.414 0.96 0.99 1.909 1.991 2.869 3.002 0.636-3.102 1.262-6.265 1.939-9.346 1 8.001 1.344 16.04 1.93 24.08 0.333-8.052 0.5955-16.11 1.02-24.14 0.354 13.43 0.3138 26.86 0.7988 40.3 1.071-8.385 1.807-16.81 3-25.17 1.94 15.74 1.486 31.62 2.082 47.44 0.495-13.46 0.434-26.97 2.041-40.35 2.768 24.45 0.7571 49.09 1.828 73.62 2.829-21.75 0.9612-43.71 2.244-65.56 0.707 15.63 1.071 31.28 2.637 46.86 0.798-8.163 0.8982-16.38 1.242-24.56 0.313 1.717 0.9304 5.162 1.234 6.879 0.404-2.93 0.6461-6.041 1.08-8.9 0.323 4.658 0.5969 9.304 0.9199 13.99 0.404-7.769 0.7975-15.53 1.354-23.28 1.344 14.8 1.111 29.68 1.586 44.52 0.384-10.75 0.6365-21.51 0.9805-32.25 0.828 10.39 1.728 20.79 3.213 31.12 0.263-20.52 0.8076-41.05 3.102-61.46 0.364 17.83 0.0716 35.67 0.8086 53.5 0.697-11.16-0.7486-23 3.939-33.47 0.424 7.092 0.8083 14.19 1.152 21.3 1.465-14.06 1.504-28.22 2.08-42.33 0.354 12.78 0.4045 25.57 0.6875 38.35 0.424-2.647 0.8497-5.285 1.264-7.922 0.313 2.718 0.9177 8.163 1.221 10.88 0.455-20.84-0.152-41.69 0.707-62.53 0.697 15.15 1.03 30.35 3.021 45.41 0.636-11.74 0.5954-23.51 0.8984-35.25 0.596 9.335 1.071 18.71 2.223 28 1.071-14.4 1.487-28.83 2.053-43.25 1.313 13.78 1.513 27.61 2.15 41.43 0.879-8.042 1.406-16.13 2.062-24.19 1.283 13.05 1.879 26.17 2.93 39.25 0.616-20.49-0.4243-41.06 1.889-61.47 0.576 17.13 0.3223 34.29 1.029 51.43 0.253-9.022 0.4244-18.03 0.5664-27.06 0.445 1.394 1.324 4.163 1.768 5.547 0.263-4.587 0.5156-9.184 0.8086-13.76 0.778 5.617 1.403 11.24 2.08 16.88 0.404-7.678 0.7891-15.36 1.496-23 0.475 7.052 0.9408 14.1 1.385 21.17 1.344-10.72 2.415-21.46 3.102-32.24 0.333 12.75 0.6972 25.52 1.869 38.23 0.828-12.06 1.485-24.15 2.152-36.22 0.525 9.759 0.8588 19.55 2.01 29.26 0.647-11.77 1.222-23.54 2.051-35.3 0.445 11.03 0.6059 22.1 1.879 33.08 0.566-6.688 1.111-13.38 1.879-20.04 1.031 4.627 1.808 9.305 2.344 14.02 0.515-5.678 0.9796-11.35 1.768-16.98 0.818 6.678 1.476 13.37 2.123 20.08 0.616-6.314 1.233-12.61 2.041-18.88 0.465 4.637 0.9396 9.266 1.475 13.92 1.283-7.011 2.181-14.08 3-21.16 0.505 6.021 0.9205 12.03 1.355 18.06 1.273-3.193 2.423-6.457 3.615-9.68 0.343 3.314 0.6277 6.498 1.053 9.852 1.02-7.426 2.05-14.84 2.848-22.3 0.172 9.82 0.4247 19.63 0.9297 29.44 1.616-6.678 2.243-13.55 3.273-20.33 0.707 2.96 1.393 5.881 2.141 8.861 0.647-5.981 1.083-11.98 1.598-17.96 0.606 7.709 1.211 15.42 1.939 23.11 0.596-6.375 1.131-12.76 1.818-19.12 0.677 3.991 1.313 7.991 1.98 11.99 0.748-2.637 1.526-5.263 2.314-7.879 0.899 3.576 1.606 7.172 2.354 10.79 1-6.223 1.919-12.46 2.818-18.69 0.455 4.688 0.859 9.364 1.334 14.07 1.303-5.294 1.92-10.74 2.748-16.12 0.434 5.961 0.8688 11.94 1.465 17.9 0.889-3.587 1.638-7.214 2.395-10.82 0.6497 4.071 1.301 8.146 2.111 12.19z"/>
</svg>
